<svg xmlns="http://www.w3.org/2000/svg" viewBox="0 0 609 232.91"><defs><style>.cls-1,.cls-3{fill-rule:evenodd;}.cls-2,.cls-3{fill:#ffd33b;}.cls-4{fill:#6493b5;}.cls-5{fill:#fff;}</style></defs><g id="Capa_2" data-name="Capa 2"><g id="Isologotipo_a_1_lineas_color_firma_negativo" data-name="Isologotipo a 1 lineas color firma negativo"><g id="Isolootipo_Principal_firma_negativa_1_linea" data-name="Isolootipo Principal firma negativa 1 linea"><g id="Torreon"><path class="cls-1" d="M133.75,196.84a3.66,3.66,0,0,0,1.5-.3c5.25-2.29,14.13-5.59,15.73-5.35a49.63,49.63,0,0,0,10.14,3c12.79,2.19,21.46,2,32.16-5.82,2.75-2,9.5-6.75,9.34-10.58a3.12,3.12,0,0,0-.48-1.79,1.91,1.91,0,0,1,.72-2.88c5.71-2.66,9.2-7.79,12.53-12,2.68-3.38,11-13.54,7.42-18.06a1.93,1.93,0,0,1,.18-2.55c3.08-3.12,6-8.84,7.84-13.83,1.37-3.74,4.11-11.87,2.8-15.91-.55-1.73-.85-1.88-1.34-2a1.93,1.93,0,0,1-1.46-2.41c2.08-7.42,7-39.43-3.9-33-.32.18-2.43,2.34-4.32,4.35a1.93,1.93,0,0,1-3.34-1.18c-.47-6.11-1.06-10.21-4.11-16.2a64.73,64.73,0,0,0-4.9-7.75c-3.06-4.3-19.21-18.36-17.28,5.25.31,3.84,1.25,7.43,1.4,11.48a25.66,25.66,0,0,0,1.4,7.38,1.94,1.94,0,0,1-2.32,2.42c-8.14-2-4.15,3.56-5.77,10.11-1.19,4.84,2.07,11.7,4.55,15.17a1.92,1.92,0,0,1,.14,2c-.66,1.26-1.45,2.26-2.12,3.75a34.74,34.74,0,0,0-2.76,18.49,2,2,0,0,1-.95,2,3.42,3.42,0,0,0-1,1l-.12.17-5.35,8.74-.09.15c-4.84,9.74-2.51,15.46-4.06,15.84-8.41,2.08-11.33,7.73-11.33,6.28,0-15.07.92-12.33-3.53-19.46-2.15-3.45-7.77-13.79-8.76-19.54-.95-5.46-1.68-13.25-.17-19.59,1.21-5.06,6.76-16,8.93-19.37,4.37-6.9,3.53-5.34,3.53-19.47V47.79a1.94,1.94,0,0,0-1.94-1.94H145.25a1.93,1.93,0,0,0-1.93,1.94V63.48a1.94,1.94,0,0,1-1.94,1.94h-3.27a1.94,1.94,0,0,1-1.94-1.94V47.79a1.93,1.93,0,0,0-1.93-1.94H100.9A1.94,1.94,0,0,0,99,47.79V63.48A1.94,1.94,0,0,1,97,65.42H93.86a1.94,1.94,0,0,1-1.94-1.94V47.79A1.94,1.94,0,0,0,90,45.85H72.62a1.94,1.94,0,0,0-1.94,1.94V65.42c0,14.13-.85,12.42,3.5,19.47,2.49,4,7.17,13.42,8.89,19.44a41.56,41.56,0,0,1,.09,19.52c-1.42,5.45-7.13,16.54-9,19.54-4.35,7-3.5,4.39-3.5,19.46,0,1-6.71-5.14-11-6.94a2,2,0,0,1-1.15-1.47c-1.33-7.8-6.64-20.46-11.27-23.77a1.93,1.93,0,0,1-.79-1.79c1.45-12.75-2.07-15.77-4.93-22.53a1.93,1.93,0,0,1,.22-1.9c2.48-3.47,5.75-10.36,4.56-15.2-1.69-6.78,2.2-12.1-5.72-10.14a1.93,1.93,0,0,1-2.32-2.43,23.05,23.05,0,0,0,1.34-6.8c.16-4.28,6.27-33.91-8.8-23.4-2.89,2-4.67,3-6.82,5.8-1,1.32-1.38,2.2-2.54,3.81A32.21,32.21,0,0,0,19,60a38.85,38.85,0,0,0-3.42,9.19,57,57,0,0,0-.92,7.45,1.93,1.93,0,0,1-3.41,1.07c-1.62-2-3.51-4-4.57-4.49C-4,68.2,1.24,99.09,3.18,106.3a1.94,1.94,0,0,1-1,2.22c-1.38.73-2.83,1.92-1.93,7.8A58.23,58.23,0,0,0,3,126.25c1.21,3.44,4.92,10.76,8.09,14.25a1.93,1.93,0,0,1,.09,2.5c-3.42,4.32,4.36,14.29,7.15,17.78,3.5,4.38,7,9.61,12.74,12.31a1.93,1.93,0,0,1,.66,3c-.8.9-.72,2.41,1.62,5.79,4.92,7.13,18.7,13.3,27.13,13.66,3.83.16,13.54-1.41,17.62-2.53,1.42-.39,4.47-1.77,5-1.88,1.45-.3,10.31,2.9,15.75,5.21a3.57,3.57,0,0,0,1.44.3Z"/><g id="Torreon-2" data-name="Torreon"><rect class="cls-2" x="74.18" y="167.25" width="41.68" height="15.12"/><path class="cls-3" d="M115.86,104.33v-15H80.13c1.32,2.13,5.25,12.48,5.81,15Z"/><rect class="cls-2" x="102.54" y="50.32" width="30.09" height="15.1"/><path class="cls-3" d="M115.86,143.39V128.22H84.79c-1.53,5.24-4.36,9.81-6.53,15.17Z"/><path class="cls-3" d="M91.92,162.85V147.78H76a7.47,7.47,0,0,0-1.82,3.05v12Z"/><path class="cls-3" d="M74.18,77.84c.19,1.75,3.73,6.2,3.84,7h13.9V69.76H74.18Z"/><path class="cls-3" d="M88.38,65.44l.06-15.12H74.18s0,4.45,0,15.1Z"/><rect class="cls-2" x="146.85" y="50.32" width="14.2" height="15.1"/><path class="cls-3" d="M91.92,123.85v-15H86.6a47.87,47.87,0,0,1-.56,15Z"/><path class="cls-3" d="M149.33,104.33c.57-2.57,4.49-12.92,5.81-15H119.35v15Z"/><path class="cls-3" d="M157,143.41c-2.16-5.35-5-9.92-6.52-15.17l-31.17,0v15.17Z"/><rect class="cls-2" x="119.35" y="167.25" width="41.7" height="15.12"/><path class="cls-3" d="M161.07,69.76H143.32V84.89h13.91c.1-.85,3.65-5.3,3.84-7Z"/><path class="cls-3" d="M149.26,123.83a47.85,47.85,0,0,1-.56-15l-5.38,0v15Z"/><path class="cls-3" d="M161.05,162.85v-12a7.3,7.3,0,0,0-1.75-3h-16v15.07Z"/><rect class="cls-2" x="95.59" y="69.76" width="44.09" height="15.12"/><rect class="cls-2" x="95.59" y="147.78" width="44.09" height="15.07"/><rect class="cls-2" x="95.56" y="108.75" width="44.09" height="15.07"/></g><g id="Laurel"><path class="cls-3" d="M70.68,182.37V165c-4.36-2.19-8.17-5.22-14.29-6.49-.24,12.49,5.85,18.42,13,23Z"/><path class="cls-3" d="M178.39,176.24c5.8.07,23.33-5.23,27.6-9.05,1.28-1.13,16.75-19,13.52-22.1-.67-.64-9.72,4.24-11.6,5.11-16.06,7.45-10.2,3.77-16.2,11.34l-8.61,9.72c-1.78,1.68-3.69,2.37-4.71,5Z"/><path class="cls-3" d="M55.59,176.24c-.92-2.34-5.47-5.37-8.92-9.33-11.65-13.35-1.92-8-20.19-16.52-2-.92-11.34-5.93-12-5.3-3.11,2.95,12.1,20.79,13.22,21.84,4.22,3.95,21.49,9.39,27.89,9.31Z"/><path class="cls-3" d="M197.9,151c3.72-.74,9.35-4.08,12.42-5.87,4.38-2.56,7.18-4.09,10.2-7.6,4.63-5.39,10.48-16.14,9.95-25.94-2.54.48-17.91,13.58-20.41,15.49-4.89,3.69-.5,2.66-5.12,12.68-3.26,7.06-5.27,7.56-7,11.24Z"/><path class="cls-3" d="M36.09,151c-1.61-3.3-7.33-8.35-9.21-17.65-1.63-8,.72-2.94-12.86-14.11-2.39-2-8.33-7.23-10.47-7.65-.52,9.81,5.3,20.57,9.92,26C17.37,142.11,30.91,150,36.09,151Z"/><path class="cls-3" d="M81.11,187.48c-2.78-1.83-7.26-1.86-10.44-3.28-18.11-8.06-4.06-6-21.64-5.57a79.35,79.35,0,0,1-13.76-.54c-.54,1.81,9.44,10.31,18.38,12.77,7.2,2,14.22.89,21.64-.63,3.78-.77,4.95-.87,5.82-2.75Z"/><path class="cls-3" d="M57,172c-2.54-13.8.45-17.08-6.7-31.1-1.11-2.17-3.6-6.76-5.84-7.57-5.44,3.2-4.17,18-1.42,23.41,2.29,4.5,9.71,14.47,14,15.26Z"/><path class="cls-3" d="M190.78,157.14c-2.32,4.41-9.86,14.13-13.72,14.91l1-7.23c-1.91,3.38-4.87,14-13.47,17.55V165.93c3.68-3.69,6.23-6.43,13.9-7.56A42.9,42.9,0,0,1,185.4,138c.52-.82,1.33-2.2,1.78-2.81,1.28-1.72.74-1.26,2.38-1.84C194.8,136.51,193.62,151.73,190.78,157.14Z"/><path class="cls-3" d="M24.66,123c0-2.26-2.9-7.28-2.84-13.49.09-9.26,2.27-5.64-2.17-13.63-3.1-5.57-11.07-18.28-15-19.69-2,4.91,0,24.88,2,30.36C8.31,111,19,123.31,24.66,123Z"/><path class="cls-3" d="M209.33,123c5.32.29,16-11.73,17.81-16,2.2-5.39,4.17-25.79,2.16-30.76-2.31.82-2.86,2.08-4.27,4-4.33,5.82-6.26,7.79-10.48,15.33-4.38,7.8-2.65,4.12-2.39,13.43.25,9.12-2.85,11.4-2.83,14.06Z"/><path class="cls-3" d="M23.79,95.18c1.3-1.34,1.71-2.87,2.8-4.7,2.07-3.45,5.24-4,8.59-14.94,1.18-3.83,1.21-9.33,1.8-13.68.78-5.52,1.29-9-.42-13.82C30,48.06,22,59.91,19.78,67c-2.62,8.25-3,24.22,4,28.16Z"/><path class="cls-3" d="M210.2,95.18c8.16-4.71,8-27.69-2.22-39.7C206.1,53.26,201.63,48,197.43,48c-1.71,4.78-1.19,8.31-.43,13.82,1.27,9.23,1,16.67,6.71,24.26,1,1.35,2.4,2.28,3.51,3.95s1.43,3.54,3,5.11Z"/><path class="cls-3" d="M152.88,186.81c-.2,3.27,8.53,4,12.32,4.5,5.74.82,9,1.16,14.69-.33,9.26-2.42,19.35-11.08,18.84-12.89-5.1.8-22.95-.6-25.31.69-3.31,1.79-1.16,1.58-8.49,4.71-3,1.29-6.63,2.83-10.38,2.84Z"/><path class="cls-3" d="M35.85,107.74c-1,3.67-7.56,6.76-5.91,20.34a39.79,39.79,0,0,0,3,10.7c1.58,3.75,2.83,7.72,5.48,8.64.83-3.11,1.28-6,2.4-9.5,5.2-16.21,2-19.61-2.3-30.49l-2.1-.29c2.1-6.07,8-10.3,6.38-17.81-.86-3.89,0-4-.19-7.24-4.63.32-12.63,6.51-14.87,13.5-1.9,6-5.85,18.91-.3,23.91,2.84-1.43,3.4-7.94,6.65-10.67a6.26,6.26,0,0,1,.66-.49c1-.66,0-.15,1.14-.6Z"/><path class="cls-3" d="M197.61,107.16l-2.1.26c-4.1,10.39-7.48,14.26-2.44,30.07,1.17,3.65,1.65,6.67,2.54,9.93,4.73-1.69,10.93-21.09,7.53-30.89-1.42-4.11-4.37-6.55-5-8.77,1.17.44.1-.22,1.48.82A8.09,8.09,0,0,1,201,110c2.61,3.55,3,8.22,5.56,9.47,5.44-5,1.74-16.92-.09-23a19.09,19.09,0,0,0-5.61-9.24c-1.49-1.24-6.68-5-9.49-5.17-.13,3,.69,3.28-.07,6.78-.7,3.22-.9,3.71.35,7,1.59,4.24,4.69,7.72,5.92,11.31Z"/><path class="cls-3" d="M111.69,194.17l-6.41-9c-3.72-.22-14.69-.75-25.32-.9,5.25,3.74,16.49,7.76,25.1,9.84Z"/><path class="cls-3" d="M129.37,194c8.61-2.08,19.84-6.1,25.1-9.83-10.64.14-21.61.67-25.33.89l-6.41,9.06Z"/></g><g id="Sol"><path class="cls-3" d="M117.53,17.18S109.47,9.23,106.71,0c-3.73,13.25-1.72,19-1.72,19S93.67,13.43,86.93,7.18C87.77,20,91.5,25.84,91.5,25.84s-13-2.37-20.82-5.19C73.13,30.33,81,37.12,81,37.12a111,111,0,0,1-21,1.65c5.77,8.18,10.72,9.59,10.72,9.59V48a2.15,2.15,0,0,1,2.15-2.15H82.3l.64-1.39A37.4,37.4,0,0,1,95,30.53c13.15-8.76,31.77-8.9,44.15.18,2.92,2.14,5.46,3.84,7.69,6.64,1.89,2.39,4.2,5.1,5.42,8.5h10.2a2.1,2.1,0,0,1,2.09,2.1v.55s4-.46,10.15-9.7a134.35,134.35,0,0,1-20.9-2s8.72-6.58,11-15.2c-7.66,2.62-21.73,3.86-21.73,3.86s5-5.54,5-18.2c-5.65,5.57-19.23,11.44-19.23,11.44s1.93-6-1.16-18.73c-3,9.83-10.2,17.18-10.2,17.18Z"/><path class="cls-3" d="M82.14,45.85h7.74a2,2,0,0,1,2,2V64.5a.92.92,0,0,0,.92.92h5.21A.92.92,0,0,0,99,64.5V48.05a2.21,2.21,0,0,1,2.2-2.2h33a2.07,2.07,0,0,1,2.06,2.07V64.5a.92.92,0,0,0,.92.92h5.31a.92.92,0,0,0,.92-.92V47.94a2.09,2.09,0,0,1,2.09-2.09h6.9c-1.22-3.4-3.55-6.11-5.44-8.5-2.23-2.8-4.77-4.5-7.69-6.64-12.38-9.08-31-8.94-44.16-.18A37.55,37.55,0,0,0,83,44.44a.08.08,0,0,0,0,0Z"/></g><g id="Moño"><path class="cls-4" d="M128.53,208.75a11.24,11.24,0,0,0,.34-2.74,11,11,0,0,0-.29-2.51c4-.8,10.53-2.74,14.15-7.15a11.64,11.64,0,0,0,2.61-9,9.32,9.32,0,0,0-4.23-7c-6.84-4.46-19.85-1.21-23.53-.15-3.68-1.06-16.69-4.31-23.53.15a9.28,9.28,0,0,0-4.22,7,11.63,11.63,0,0,0,2.6,9c3.64,4.45,10.22,6.37,14.23,7.17a11.08,11.08,0,0,0,0,5.16c-2.9,2.87-12.34,11.14-26,12.66h0a19.45,19.45,0,0,0,4,4.76,50.81,50.81,0,0,0,24.6-12.54,10.8,10.8,0,0,0,1.26,1.18c-.86,3.34-4.48,11.91-19.24,15.63a32.86,32.86,0,0,0,8.88,2.54c10.26-4.66,13.92-11.75,15.21-15.88a10.83,10.83,0,0,0,2.21.22,11.48,11.48,0,0,0,2.13-.2c1.3,4.13,5,11.21,15.21,15.85a32.52,32.52,0,0,0,8.88-2.53c-14.69-3.7-18.34-12.17-19.22-15.57a10.42,10.42,0,0,0,1.29-1.2,50.83,50.83,0,0,0,24.55,12.5,19.64,19.64,0,0,0,4-4.76c-13.52-1.5-22.91-9.66-25.9-12.59"/><path class="cls-5" d="M138.22,184.83a4,4,0,0,1,1.84,3.13,6.4,6.4,0,0,1-1.43,5c-1.57,1.92-4.22,3.27-6.85,4.18a9.91,9.91,0,0,0,.52-7.93,12.12,12.12,0,0,0-4.24-5.63c4-.4,8-.21,10.16,1.23"/><path class="cls-5" d="M107.83,191.08c2-5.34,9.45-5.42,9.75-5.42h0a15.3,15.3,0,0,1,4.27.71c2.81.9,4.65,2.48,5.48,4.71.9,2.42-.8,4.92-2.26,6.51a11.23,11.23,0,0,0-14.94,0c-1.48-1.58-3.21-4.1-2.3-6.56"/><path class="cls-5" d="M103.39,197.17A15.3,15.3,0,0,1,96.54,193a6.39,6.39,0,0,1-1.44-5A4,4,0,0,1,97,184.83c1.56-1,4-1.41,6.72-1.41a33.91,33.91,0,0,1,3.44.18,12.07,12.07,0,0,0-4.25,5.63,9.86,9.86,0,0,0,.53,7.94"/><path class="cls-5" d="M111.69,206a5.94,5.94,0,1,1,5.94,5.94,5.95,5.95,0,0,1-5.94-5.94"/><path class="cls-5" d="M150.46,226.1a50.83,50.83,0,0,1-24.55-12.5,10.42,10.42,0,0,1-1.29,1.2c.88,3.4,4.53,11.87,19.22,15.57a25.85,25.85,0,0,0,6.62-4.27"/><path class="cls-5" d="M109.3,213.56A50.86,50.86,0,0,1,84.7,226.1a25.75,25.75,0,0,0,6.63,4.27c14.75-3.72,18.37-12.3,19.23-15.63a10.06,10.06,0,0,1-1.26-1.18"/></g></g><path class="cls-5" d="M357.94,123.38H306.13v40.38h57.93v20.6h-83V46.9H361V67.5H306.13V103h51.81Z"/><path class="cls-5" d="M386.08,48.73c9.18-1.63,21.62-2.85,38.35-2.85,18.35,0,31.61,3.87,40.38,11.21,8.16,6.74,13.46,17.55,13.46,30.39,0,13.06-4.08,23.66-11.63,31-10.19,10-25.69,14.88-43.44,14.88a54.65,54.65,0,0,1-12.24-1v52H386.08ZM411,112.57c3.27,1,7.14,1.22,12.24,1.22,18.77,0,30.19-9.38,30.19-25.29,0-15.29-10.61-23.25-27.94-23.25A69.45,69.45,0,0,0,411,66.48Z"/><path class="cls-5" d="M499.88,184.36V46.9h28.76l35.49,58.94a409.86,409.86,0,0,1,23.45,46.09H588c-1.83-18.35-2.24-36.1-2.24-57.1V46.9H609V184.36H582.89L547,123.79C538.23,108.7,529.25,92,522.52,76.47l-.81.2c1,17.75,1.42,35.9,1.42,58.54v49.15Z"/></g></g></g></svg>