<svg xmlns="http://www.w3.org/2000/svg" viewBox="0 0 85.18 126.51"><defs><style>.cls-1,.cls-3{fill-rule:evenodd;}.cls-2,.cls-3{fill:#ffd33b;}.cls-4{fill:#6493b5;}.cls-5{fill:#fff;}</style></defs><g id="Capa_2" data-name="Capa 2"><g id="Isologotipo_v2_casos_de_espacio" data-name="Isologotipo v2 casos de espacio"><g id="Isologotipo_v3_por_temas_de_espacio" data-name="Isologotipo v3 por temas de espacio"><g id="Torreon"><path class="cls-1" d="M48.69,71.66a1.5,1.5,0,0,0,.55-.11c1.91-.84,5.14-2,5.72-2a18.38,18.38,0,0,0,3.69,1.09c4.66.79,7.81.73,11.71-2.12,1-.74,3.46-2.46,3.4-3.86a1.13,1.13,0,0,0-.17-.65A.7.7,0,0,1,73.85,63c2.08-1,3.35-2.83,4.56-4.36,1-1.23,4-4.93,2.7-6.58a.7.7,0,0,1,.07-.93,15.25,15.25,0,0,0,2.85-5c.5-1.36,1.5-4.32,1-5.79-.2-.63-.31-.69-.49-.73a.7.7,0,0,1-.53-.88c.76-2.69,2.56-14.35-1.42-12A20.17,20.17,0,0,0,81,28.3a.71.71,0,0,1-1.22-.43A13.56,13.56,0,0,0,78.33,22a24.36,24.36,0,0,0-1.79-2.82c-1.11-1.56-7-6.68-6.29,1.91.12,1.4.46,2.71.51,4.18a9.36,9.36,0,0,0,.51,2.69.7.7,0,0,1-.84.88c-3-.73-1.51,1.3-2.1,3.68-.44,1.76.75,4.26,1.65,5.52a.71.71,0,0,1,0,.73c-.24.46-.53.82-.77,1.37a12.66,12.66,0,0,0-1,6.73.71.71,0,0,1-.35.72,1.31,1.31,0,0,0-.37.37.21.21,0,0,0,0,.06l-2,3.19,0,0C63.75,54.78,64.6,56.86,64,57c-3.06.75-4.13,2.81-4.13,2.28,0-5.48.34-4.49-1.28-7.08-.78-1.26-2.83-5-3.19-7.12A18.92,18.92,0,0,1,55.38,38a35.62,35.62,0,0,1,3.25-7.05c1.59-2.51,1.28-1.94,1.28-7.09V17.4a.7.7,0,0,0-.7-.71H52.88a.71.71,0,0,0-.71.71v5.71a.7.7,0,0,1-.7.7H50.28a.7.7,0,0,1-.71-.7V17.4a.7.7,0,0,0-.7-.71H36.73a.7.7,0,0,0-.7.71v5.71a.7.7,0,0,1-.71.7H34.17a.7.7,0,0,1-.71-.7V17.4a.7.7,0,0,0-.7-.71H26.44a.71.71,0,0,0-.71.71v6.41c0,5.15-.31,4.53,1.27,7.09A36.47,36.47,0,0,1,30.24,38a15.08,15.08,0,0,1,0,7.1A38.5,38.5,0,0,1,27,52.2c-1.58,2.56-1.27,1.6-1.27,7.08,0,.37-2.44-1.87-4-2.52a.73.73,0,0,1-.42-.54c-.48-2.84-2.42-7.45-4.1-8.65a.7.7,0,0,1-.29-.65c.53-4.64-.76-5.74-1.8-8.21a.74.74,0,0,1,.08-.69c.91-1.26,2.1-3.77,1.66-5.53-.61-2.47.81-4.4-2.08-3.69a.7.7,0,0,1-.84-.89,8.71,8.71,0,0,0,.49-2.47c.05-1.56,2.28-12.34-3.21-8.52A9,9,0,0,0,8.73,19c-.37.48-.5.8-.93,1.39a14,14,0,0,0-.88,1.41,14.18,14.18,0,0,0-1.24,3.34,19.24,19.24,0,0,0-.33,2.72.71.71,0,0,1-1.25.39,7.5,7.5,0,0,0-1.66-1.64c-3.91-1.81-2,9.43-1.28,12.06a.69.69,0,0,1-.36.8c-.5.27-1,.71-.7,2.84A21.83,21.83,0,0,0,1.1,46,19.58,19.58,0,0,0,4,51.15a.7.7,0,0,1,0,.91c-1.25,1.57,1.59,5.2,2.6,6.47C8,60.12,9.21,62,11.32,63a.71.71,0,0,1,.24,1.1c-.29.33-.26.88.59,2.11,1.79,2.6,6.81,4.84,9.87,5a31.06,31.06,0,0,0,6.42-.92c.52-.14,1.63-.64,1.82-.68.52-.11,3.75,1.06,5.73,1.9a1.31,1.31,0,0,0,.52.11Z"/><g id="Torreon-2" data-name="Torreon"><rect class="cls-2" x="27" y="60.88" width="15.17" height="5.5"/><path class="cls-3" d="M42.18,38V32.5h-13A37.23,37.23,0,0,1,31.29,38Z"/><rect class="cls-2" x="37.33" y="18.32" width="10.95" height="5.5"/><path class="cls-3" d="M42.18,52.2V46.68H30.86a58.77,58.77,0,0,1-2.37,5.52Z"/><path class="cls-3" d="M33.46,59.28V53.8H27.67A2.67,2.67,0,0,0,27,54.91v4.37Z"/><path class="cls-3" d="M27,28.34c.07.63,1.36,2.25,1.4,2.56h5.06V25.4H27Z"/><path class="cls-3" d="M32.17,23.82l0-5.5H27s0,1.62,0,5.49Z"/><rect class="cls-2" x="53.46" y="18.32" width="5.17" height="5.5"/><path class="cls-3" d="M33.46,45.08V39.61H31.53a17.56,17.56,0,0,1-.21,5.47Z"/><path class="cls-3" d="M54.36,38a37.23,37.23,0,0,1,2.12-5.48h-13V38Z"/><path class="cls-3" d="M57.17,52.21a58.93,58.93,0,0,1-2.37-5.53H43.45V52.2Z"/><rect class="cls-2" x="43.45" y="60.88" width="15.18" height="5.5"/><path class="cls-3" d="M58.63,25.4H52.17v5.5h5.07c0-.31,1.32-1.93,1.39-2.56Z"/><path class="cls-3" d="M54.34,45.08a17.33,17.33,0,0,1-.21-5.48h-2v5.47Z"/><path class="cls-3" d="M58.63,59.28V54.9A2.72,2.72,0,0,0,58,53.8H52.17v5.48Z"/><rect class="cls-2" x="34.8" y="25.4" width="16.05" height="5.5"/><rect class="cls-2" x="34.8" y="53.8" width="16.05" height="5.49"/><rect class="cls-2" x="34.79" y="39.59" width="16.05" height="5.49"/></g><g id="Laurel"><path class="cls-3" d="M25.73,66.39V60.06c-1.59-.8-3-1.9-5.2-2.36-.09,4.54,2.13,6.7,4.74,8.36Z"/><path class="cls-3" d="M64.94,64.16c2.11,0,8.49-1.91,10-3.3.46-.41,6.1-6.92,4.92-8-.25-.24-3.54,1.54-4.22,1.86-5.85,2.71-3.72,1.37-5.9,4.13l-3.13,3.53c-.65.62-1.35.87-1.72,1.82Z"/><path class="cls-3" d="M20.24,64.16c-.34-.85-2-2-3.25-3.4-4.24-4.86-.7-2.91-7.35-6-.72-.34-4.13-2.16-4.37-1.93-1.13,1.07,4.41,7.57,4.81,8,1.54,1.44,7.83,3.42,10.16,3.39Z"/><path class="cls-3" d="M72,55a18.59,18.59,0,0,0,4.52-2.14,12.47,12.47,0,0,0,3.72-2.77c1.68-2,3.81-5.87,3.62-9.44-.92.17-6.52,4.94-7.43,5.64-1.78,1.34-.18,1-1.86,4.62C73.42,53.45,72.69,53.64,72,55Z"/><path class="cls-3" d="M13.14,55c-.59-1.2-2.67-3-3.36-6.43-.59-2.91.27-1.07-4.68-5.14-.87-.71-3-2.63-3.81-2.78C1.1,44.2,3.22,48.12,4.9,50.08A23.1,23.1,0,0,0,13.14,55Z"/><path class="cls-3" d="M29.53,68.25c-1-.67-2.64-.68-3.8-1.19-6.6-2.94-1.48-2.18-7.88-2a29.66,29.66,0,0,1-5-.2c-.2.66,3.44,3.75,6.69,4.65,2.62.72,5.18.32,7.88-.23,1.37-.28,1.8-.32,2.12-1Z"/><path class="cls-3" d="M20.74,62.63c-.92-5,.17-6.22-2.44-11.33-.4-.79-1.31-2.46-2.12-2.75-2,1.16-1.52,6.56-.52,8.52.83,1.64,3.54,5.27,5.08,5.56Z"/><path class="cls-3" d="M69.45,57.21c-.84,1.6-3.59,5.14-5,5.42L64.82,60c-.7,1.23-1.78,5.1-4.91,6.39v-6A7.53,7.53,0,0,1,65,57.65a15.69,15.69,0,0,1,2.52-7.41c.19-.3.49-.8.65-1,.47-.63.27-.46.87-.67C70.91,49.69,70.48,55.24,69.45,57.21Z"/><path class="cls-3" d="M9,44.76c0-.82-1.06-2.65-1-4.91,0-3.37.83-2.05-.79-5-1.13-2-4-6.66-5.45-7.17-.72,1.79,0,9.06.73,11.05.59,1.63,4.5,6.12,6.55,6Z"/><path class="cls-3" d="M76.2,44.76c1.94.11,5.85-4.27,6.49-5.84.8-2,1.51-9.39.78-11.2-.84.3-1,.76-1.55,1.45a38.89,38.89,0,0,0-3.81,5.58c-1.6,2.84-1,1.5-.87,4.89s-1,4.15-1,5.12Z"/><path class="cls-3" d="M8.66,34.65a9,9,0,0,0,1-1.71c.75-1.26,1.91-1.44,3.13-5.44a34.85,34.85,0,0,0,.65-5c.28-2,.47-3.29-.15-5-2.39,0-5.29,4.32-6.11,6.91-1,3-1.08,8.81,1.46,10.25Z"/><path class="cls-3" d="M76.52,34.65c3-1.72,2.9-10.08-.81-14.45-.68-.81-2.31-2.72-3.84-2.71-.62,1.74-.43,3-.15,5,.46,3.36.37,6.07,2.44,8.83.37.49.87.83,1.28,1.44s.52,1.29,1.08,1.86Z"/><path class="cls-3" d="M55.65,68c-.07,1.19,3.11,1.44,4.49,1.63a11.39,11.39,0,0,0,5.35-.12c3.37-.88,7-4,6.86-4.69-1.86.29-8.36-.22-9.22.25A13.33,13.33,0,0,1,60,66.8a9.85,9.85,0,0,1-3.78,1Z"/><path class="cls-3" d="M13.05,39.22c-.37,1.34-2.75,2.46-2.15,7.41A14.12,14.12,0,0,0,12,50.52c.57,1.37,1,2.81,2,3.15.3-1.14.47-2.2.88-3.46,1.89-5.9.71-7.14-.84-11.1L13.24,39c.77-2.21,2.93-3.75,2.33-6.48a8.83,8.83,0,0,1-.07-2.64c-1.69.12-4.6,2.37-5.42,4.92C9.39,37,8,41.68,10,43.5c1-.52,1.24-2.89,2.42-3.88l.24-.18c.37-.24,0-.06.42-.22Z"/><path class="cls-3" d="M71.94,39l-.77.09c-1.49,3.79-2.72,5.2-.89,10.95.43,1.33.61,2.43.93,3.62,1.72-.62,4-7.68,2.74-11.25-.52-1.49-1.59-2.38-1.82-3.19.43.16,0-.08.54.3a2.57,2.57,0,0,1,.51.53c1,1.29,1.1,3,2,3.44,2-1.82.63-6.16,0-8.37a6.92,6.92,0,0,0-2.05-3.37c-.54-.45-2.43-1.8-3.45-1.88a9,9,0,0,1,0,2.47,3.22,3.22,0,0,0,.13,2.54c.58,1.54,1.71,2.81,2.16,4.12Z"/><path class="cls-3" d="M40.66,70.69l-2.33-3.3c-1.36-.08-5.35-.27-9.22-.33,1.91,1.36,6,2.83,9.13,3.58Z"/><path class="cls-3" d="M47.09,70.64c3.14-.76,7.23-2.22,9.14-3.58-3.87,0-7.86.24-9.22.32l-2.33,3.3Z"/></g><g id="Sol"><path class="cls-3" d="M42.79,6.25A17.22,17.22,0,0,1,38.85,0c-1.36,4.83-.63,6.93-.63,6.93a33.6,33.6,0,0,1-6.57-4.33c.3,4.68,1.66,6.8,1.66,6.8a61.71,61.71,0,0,1-7.58-1.89,13.21,13.21,0,0,0,3.75,6,39.69,39.69,0,0,1-7.65.6c2.1,3,3.9,3.49,3.9,3.49v-.12a.78.78,0,0,1,.78-.79H30l.23-.5a13.71,13.71,0,0,1,4.4-5.08c4.79-3.18,11.57-3.23,16.08.07a13.55,13.55,0,0,1,2.8,2.42,11.45,11.45,0,0,1,2,3.09h3.71a.76.76,0,0,1,.76.76v.21s1.48-.17,3.7-3.54A49.33,49.33,0,0,1,56,13.41s3.17-2.4,4-5.53a44.44,44.44,0,0,1-7.91,1.4s1.8-2,1.83-6.62c-2.06,2-7,4.16-7,4.16s.7-2.2-.42-6.82a17.22,17.22,0,0,1-3.71,6.25Z"/><path class="cls-3" d="M29.9,16.69h2.82a.75.75,0,0,1,.74.75v6a.34.34,0,0,0,.34.33h1.89a.34.34,0,0,0,.34-.33v-6a.8.8,0,0,1,.8-.8h12a.75.75,0,0,1,.75.75v6a.34.34,0,0,0,.34.33h1.93a.33.33,0,0,0,.33-.33v-6a.76.76,0,0,1,.76-.76h2.52a11.47,11.47,0,0,0-2-3.09,13.55,13.55,0,0,0-2.8-2.42c-4.51-3.3-11.29-3.25-16.08-.07a13.64,13.64,0,0,0-4.39,5.07h0Z"/></g><g id="Moño"><path class="cls-4" d="M46.79,76a4.07,4.07,0,0,0,.12-1,4,4,0,0,0-.1-.92c1.46-.29,3.83-1,5.15-2.6a4.23,4.23,0,0,0,.95-3.27,3.4,3.4,0,0,0-1.54-2.54c-2.49-1.63-7.23-.44-8.57-.06-1.33-.38-6.07-1.57-8.56.06a3.34,3.34,0,0,0-1.54,2.54,4.23,4.23,0,0,0,.95,3.27c1.32,1.62,3.72,2.32,5.18,2.61a3.85,3.85,0,0,0-.1.91,4.44,4.44,0,0,0,.11,1,16.67,16.67,0,0,1-9.45,4.61h0a7.07,7.07,0,0,0,1.44,1.73,18.52,18.52,0,0,0,9-4.57,3.12,3.12,0,0,0,.46.43c-.32,1.22-1.63,4.34-7,5.69a11.69,11.69,0,0,0,3.23.93A9.59,9.59,0,0,0,42,79a4.28,4.28,0,0,0,.81.08A4.13,4.13,0,0,0,43.6,79a9.57,9.57,0,0,0,5.53,5.78,11.9,11.9,0,0,0,3.23-.93c-5.34-1.34-6.67-4.43-7-5.66.16-.14.32-.28.47-.44a18.46,18.46,0,0,0,8.93,4.55,7.21,7.21,0,0,0,1.45-1.73A16.64,16.64,0,0,1,46.79,76"/><path class="cls-5" d="M50.32,67.28A1.48,1.48,0,0,1,51,68.42a2.32,2.32,0,0,1-.52,1.83A5.65,5.65,0,0,1,48,71.77a3.56,3.56,0,0,0,.19-2.88,4.38,4.38,0,0,0-1.54-2,6.29,6.29,0,0,1,3.7.44"/><path class="cls-5" d="M39.26,69.56c.72-1.94,3.43-2,3.54-2h0a5.29,5.29,0,0,1,1.56.26,2.88,2.88,0,0,1,2,1.71,2.47,2.47,0,0,1-.82,2.37,4.08,4.08,0,0,0-5.44,0,2.45,2.45,0,0,1-.83-2.39"/><path class="cls-5" d="M37.64,71.78a5.65,5.65,0,0,1-2.5-1.52,2.36,2.36,0,0,1-.52-1.84,1.48,1.48,0,0,1,.67-1.14,4.7,4.7,0,0,1,2.45-.51,10.71,10.71,0,0,1,1.25.07,4.46,4.46,0,0,0-1.55,2,3.62,3.62,0,0,0,.2,2.89"/><path class="cls-5" d="M40.66,75a2.16,2.16,0,1,1,2.16,2.16A2.17,2.17,0,0,1,40.66,75"/><path class="cls-5" d="M54.77,82.31a18.55,18.55,0,0,1-8.93-4.55c-.15.16-.31.3-.47.44.32,1.23,1.64,4.32,7,5.66a9.21,9.21,0,0,0,2.41-1.55"/><path class="cls-5" d="M39.79,77.74a18.52,18.52,0,0,1-9,4.57,9.28,9.28,0,0,0,2.42,1.55c5.37-1.35,6.68-4.47,7-5.69a3.12,3.12,0,0,1-.46-.43"/></g></g><path class="cls-5" d="M27.89,115.62H18.64v7.21H29v3.68H14.16V102H28.44v3.68h-9.8V112h9.25Z"/><path class="cls-5" d="M32.92,102.28a39.62,39.62,0,0,1,6.85-.51c3.28,0,5.65.7,7.21,2a6.92,6.92,0,0,1,2.41,5.43,7.45,7.45,0,0,1-2.08,5.53c-1.82,1.79-4.59,2.66-7.76,2.66a9.59,9.59,0,0,1-2.19-.18v9.29H32.92Zm4.44,11.41a7.61,7.61,0,0,0,2.19.22c3.35,0,5.39-1.68,5.39-4.52s-1.89-4.16-5-4.16a12.38,12.38,0,0,0-2.59.22Z"/><path class="cls-5" d="M53.25,126.51V102h5.14l6.34,10.52a72.65,72.65,0,0,1,4.18,8.24H69a99.71,99.71,0,0,1-.4-10.2V102h4.15v24.55H68.08l-6.42-10.82a85.78,85.78,0,0,1-4.37-8.45l-.14,0c.18,3.17.25,6.42.25,10.46v8.78Z"/></g></g></g></svg>