<svg xmlns="http://www.w3.org/2000/svg" viewBox="0 0 175.45 260.6"><defs><style>.cls-1,.cls-3{fill-rule:evenodd;}.cls-2,.cls-3{fill:#ffd33b;}.cls-4{fill:#6493b5;}.cls-5{fill:#fff;}</style></defs><g id="Capa_2" data-name="Capa 2"><g id="Isologotipo_v2_casos_de_espacio" data-name="Isologotipo v2 casos de espacio"><g id="Isologotipo_v3_por_temas_de_espacio" data-name="Isologotipo v3 por temas de espacio"><g id="Torreon"><path class="cls-1" d="M100.3,147.61a2.88,2.88,0,0,0,1.12-.23c3.94-1.72,10.59-4.19,11.79-4a36.81,36.81,0,0,0,7.61,2.25c9.59,1.64,16.09,1.5,24.12-4.37,2.06-1.51,7.12-5.06,7-7.94a2.36,2.36,0,0,0-.36-1.34,1.43,1.43,0,0,1,.54-2.16c4.28-2,6.9-5.84,9.39-9,2-2.54,8.22-10.16,5.57-13.55a1.45,1.45,0,0,1,.13-1.91c2.32-2.34,4.52-6.63,5.89-10.37,1-2.81,3.08-8.9,2.1-11.93-.42-1.3-.65-1.41-1-1.49a1.46,1.46,0,0,1-1.1-1.81c1.56-5.56,5.28-29.57-2.92-24.72-.24.14-1.83,1.76-3.24,3.26a1.45,1.45,0,0,1-2.51-.88c-.35-4.58-.79-7.65-3.08-12.15a49.15,49.15,0,0,0-3.67-5.81c-2.3-3.23-14.4-13.76-13,3.93.24,2.89.94,5.58,1,8.62a19.35,19.35,0,0,0,1.05,5.53,1.45,1.45,0,0,1-1.74,1.81C139,57.85,142,62,140.75,66.92c-.9,3.64,1.55,8.78,3.41,11.38a1.45,1.45,0,0,1,.1,1.5c-.49.94-1.09,1.7-1.59,2.81a26.07,26.07,0,0,0-2.07,13.87,1.46,1.46,0,0,1-.71,1.49,2.54,2.54,0,0,0-.77.77l-.08.12-4,6.56-.06.11c-3.64,7.3-1.89,11.59-3.05,11.88-6.3,1.56-8.5,5.79-8.5,4.71,0-11.3.69-9.25-2.64-14.6-1.61-2.59-5.83-10.34-6.57-14.65-.71-4.09-1.26-9.93-.13-14.69.91-3.79,5.07-12,6.7-14.53,3.28-5.17,2.64-4,2.64-14.6V35.84A1.45,1.45,0,0,0,122,34.38h-13a1.45,1.45,0,0,0-1.45,1.46V47.6A1.45,1.45,0,0,1,106,49.05h-2.45a1.45,1.45,0,0,1-1.46-1.45V35.84a1.45,1.45,0,0,0-1.45-1.46h-25a1.45,1.45,0,0,0-1.45,1.46V47.6a1.45,1.45,0,0,1-1.45,1.45H70.38a1.45,1.45,0,0,1-1.45-1.45V35.84a1.45,1.45,0,0,0-1.45-1.46h-13A1.45,1.45,0,0,0,53,35.84V49.05c0,10.6-.64,9.32,2.62,14.6a75,75,0,0,1,6.67,14.58,31.1,31.1,0,0,1,.07,14.64C61.3,97,57,105.28,55.62,107.52c-3.26,5.28-2.62,3.3-2.62,14.6,0,.75-5-3.86-8.26-5.21a1.43,1.43,0,0,1-.86-1.1c-1-5.85-5-15.34-8.45-17.83a1.42,1.42,0,0,1-.6-1.33c1.09-9.56-1.55-11.83-3.7-16.9a1.5,1.5,0,0,1,.17-1.43c1.86-2.6,4.31-7.76,3.42-11.4-1.26-5.08,1.65-9.06-4.29-7.59a1.45,1.45,0,0,1-1.74-1.83,17.72,17.72,0,0,0,1-5.1c.11-3.21,4.7-25.43-6.6-17.55-2.17,1.51-3.5,2.24-5.12,4.35-.76,1-1,1.65-1.9,2.86A25.3,25.3,0,0,0,14.26,45a29.72,29.72,0,0,0-2.56,6.89A40.64,40.64,0,0,0,11,57.44a1.45,1.45,0,0,1-2.56.81A15.47,15.47,0,0,0,5,54.87C-3,51.14.93,74.31,2.38,79.71a1.44,1.44,0,0,1-.72,1.66c-1,.56-2.13,1.45-1.45,5.85a44,44,0,0,0,2.05,7.45c.92,2.58,3.69,8.07,6.07,10.68a1.45,1.45,0,0,1,.07,1.88c-2.57,3.24,3.27,10.71,5.36,13.33,2.62,3.29,5.21,7.21,9.55,9.23a1.45,1.45,0,0,1,.5,2.28c-.6.67-.54,1.8,1.22,4.34,3.68,5.35,14,10,20.33,10.24,2.88.12,10.16-1.05,13.22-1.89,1.07-.29,3.35-1.33,3.74-1.41,1.09-.23,7.73,2.17,11.81,3.91a2.86,2.86,0,0,0,1.08.22Z"/><g id="Torreon-2" data-name="Torreon"><rect class="cls-2" x="55.62" y="125.42" width="31.25" height="11.34"/><path class="cls-3" d="M86.88,78.23V67H60.09a75.71,75.71,0,0,1,4.36,11.28Z"/><rect class="cls-2" x="76.89" y="37.73" width="22.56" height="11.32"/><path class="cls-3" d="M86.88,107.52V96.15H63.58c-1.14,3.93-3.27,7.36-4.89,11.37Z"/><path class="cls-3" d="M68.93,122.12v-11.3H57a5.56,5.56,0,0,0-1.37,2.28v9Z"/><path class="cls-3" d="M55.62,58.37c.14,1.31,2.8,4.65,2.88,5.28H68.93V52.31H55.62Z"/><path class="cls-3" d="M66.27,49.07l0-11.34H55.62s0,3.34,0,11.32Z"/><rect class="cls-2" x="110.12" y="37.73" width="10.65" height="11.32"/><path class="cls-3" d="M68.93,92.87V81.58h-4a35.84,35.84,0,0,1-.42,11.29Z"/><path class="cls-3" d="M112,78.23A73.59,73.59,0,0,1,116.34,67H89.5V78.23Z"/><path class="cls-3" d="M117.76,107.54c-1.62-4-3.75-7.44-4.89-11.38H89.5v11.37Z"/><rect class="cls-2" x="89.5" y="125.42" width="31.27" height="11.34"/><path class="cls-3" d="M120.78,52.31H107.47V63.65H117.9c.08-.63,2.74-4,2.88-5.28Z"/><path class="cls-3" d="M111.93,92.86a36.15,36.15,0,0,1-.43-11.29h-4V92.87Z"/><path class="cls-3" d="M120.77,122.12v-9a5.45,5.45,0,0,0-1.32-2.26h-12v11.3Z"/><rect class="cls-2" x="71.68" y="52.31" width="33.06" height="11.34"/><rect class="cls-2" x="71.68" y="110.82" width="33.06" height="11.3"/><rect class="cls-2" x="71.65" y="81.55" width="33.06" height="11.3"/></g><g id="Laurel"><path class="cls-3" d="M53,136.75v-13c-3.27-1.64-6.12-3.91-10.71-4.86-.18,9.37,4.38,13.81,9.77,17.23Z"/><path class="cls-3" d="M133.77,132.16c4.35.05,17.49-3.93,20.7-6.79,1-.85,12.56-14.26,10.13-16.57-.5-.48-7.29,3.18-8.7,3.83-12,5.59-7.64,2.83-12.14,8.5l-6.46,7.29c-1.33,1.26-2.76,1.78-3.53,3.74Z"/><path class="cls-3" d="M41.69,132.16c-.69-1.76-4.11-4-6.7-7-8.73-10-1.43-6-15.13-12.39-1.49-.69-8.51-4.44-9-4-2.33,2.21,9.07,15.59,9.91,16.37,3.16,3,16.12,7,20.92,7Z"/><path class="cls-3" d="M148.4,113.25c2.79-.56,7-3.06,9.31-4.41,3.29-1.91,5.39-3.06,7.65-5.69,3.47-4,7.86-12.11,7.47-19.45-1.91.35-13.44,10.18-15.31,11.61-3.67,2.77-.38,2-3.84,9.51-2.44,5.29-4,5.66-5.28,8.43Z"/><path class="cls-3" d="M27.06,113.25c-1.2-2.48-5.5-6.27-6.91-13.24-1.22-6,.55-2.2-9.64-10.58C8.72,88,4.27,84,2.66,83.7c-.39,7.35,4,15.42,7.44,19.46,2.92,3.4,13.08,9.32,17,10.09Z"/><path class="cls-3" d="M60.82,140.58c-2.08-1.37-5.44-1.39-7.83-2.45-13.58-6-3-4.48-16.22-4.18a60.76,60.76,0,0,1-10.32-.4c-.41,1.35,7.08,7.72,13.78,9.57,5.4,1.49,10.66.67,16.22-.47,2.84-.58,3.72-.66,4.37-2.07Z"/><path class="cls-3" d="M42.72,129c-1.9-10.35.35-12.81-5-23.32-.83-1.63-2.7-5.07-4.38-5.68-4.07,2.4-3.12,13.52-1.06,17.56C34,120.93,39.54,128.4,42.72,129Z"/><path class="cls-3" d="M143.06,117.84c-1.74,3.3-7.39,10.59-10.29,11.17l.74-5.41c-1.43,2.53-3.65,10.5-10.1,13.15V124.42c2.76-2.76,4.68-4.82,10.43-5.66A32,32,0,0,1,139,103.49c.39-.61,1-1.65,1.33-2.11,1-1.29.55-.94,1.79-1.38C146.08,102.36,145.19,113.78,143.06,117.84Z"/><path class="cls-3" d="M18.49,92.21c0-1.7-2.17-5.46-2.13-10.12.07-6.94,1.7-4.23-1.63-10.22C12.41,67.69,6.43,58.16,3.51,57.1,2,60.78,3.54,75.76,5,79.87c1.21,3.35,9.25,12.6,13.47,12.34Z"/><path class="cls-3" d="M157,92.21c4,.21,12-8.8,13.35-12,1.65-4,3.13-19.34,1.63-23.07-1.74.62-2.15,1.56-3.2,3-3.25,4.37-4.7,5.84-7.86,11.5-3.29,5.85-2,3.09-1.79,10.07S157,90.21,157,92.21Z"/><path class="cls-3" d="M17.84,71.37c1-1,1.28-2.15,2.1-3.52,1.55-2.59,3.93-3,6.44-11.2.89-2.88.91-7,1.35-10.26.58-4.15,1-6.77-.31-10.37-4.92,0-10.9,8.9-12.58,14.23-2,6.19-2.23,18.17,3,21.12Z"/><path class="cls-3" d="M157.62,71.37c6.12-3.53,6-20.76-1.66-29.77C154.55,39.94,151.2,36,148,36c-1.27,3.59-.88,6.23-.31,10.37,1,6.92.76,12.5,5,18.19.75,1,1.8,1.71,2.63,3s1.07,2.66,2.23,3.83Z"/><path class="cls-3" d="M114.64,140.09c-.15,2.45,6.4,3,9.24,3.37,4.3.61,6.77.87,11-.25,7-1.81,14.52-8.31,14.13-9.66-3.82.59-17.21-.45-19,.51-2.48,1.34-.87,1.19-6.36,3.54-2.27,1-5,2.12-7.79,2.13Z"/><path class="cls-3" d="M26.89,80.79c-.78,2.76-5.68,5.07-4.44,15.25a30.24,30.24,0,0,0,2.22,8c1.19,2.81,2.12,5.79,4.11,6.48.62-2.34,1-4.54,1.8-7.13,3.9-12.15,1.48-14.7-1.73-22.86l-1.57-.22c1.57-4.55,6-7.72,4.79-13.35-.65-2.92,0-3-.15-5.43-3.47.24-9.47,4.88-11.15,10.12-1.43,4.48-4.39,14.18-.22,17.93,2.13-1.07,2.55-6,5-8a4.62,4.62,0,0,1,.5-.37c.74-.49,0-.11.86-.45Z"/><path class="cls-3" d="M148.18,80.35l-1.57.2c-3.07,7.79-5.61,10.7-1.83,22.55.88,2.73,1.24,5,1.9,7.45,3.55-1.27,8.2-15.82,5.65-23.17-1.07-3.08-3.28-4.91-3.75-6.58.88.34.08-.16,1.12.62a6,6,0,0,1,1.05,1.09c2,2.66,2.25,6.16,4.17,7.1,4.08-3.76,1.31-12.69-.06-17.25a14.3,14.3,0,0,0-4.21-6.93c-1.12-.93-5-3.72-7.11-3.88-.11,2.21.51,2.46-.06,5.08-.52,2.42-.67,2.78.26,5.25,1.2,3.17,3.52,5.79,4.44,8.47Z"/><path class="cls-3" d="M83.76,145.6,79,138.81c-2.79-.16-11-.56-19-.67,3.94,2.8,12.36,5.82,18.82,7.38Z"/><path class="cls-3" d="M97,145.51c6.45-1.56,14.88-4.58,18.82-7.38-8,.11-16.2.51-19,.67L92,145.59Z"/></g><g id="Sol"><path class="cls-3" d="M88.13,12.88S82.09,6.93,80,0c-2.8,9.93-1.29,14.26-1.29,14.26s-8.49-4.22-13.54-8.91c.62,9.63,3.42,14,3.42,14A124.35,124.35,0,0,1,53,15.49c1.84,7.25,7.73,12.35,7.73,12.35A83.78,83.78,0,0,1,45,29.07c4.33,6.14,8,7.19,8,7.19V36a1.62,1.62,0,0,1,1.61-1.62h7.11l.47-1A28,28,0,0,1,71.26,22.9c9.86-6.58,23.83-6.68,33.1.13a26.85,26.85,0,0,1,5.77,5,23.06,23.06,0,0,1,4.07,6.37h7.64A1.57,1.57,0,0,1,123.41,36v.42s3-.35,7.61-7.28a101.2,101.2,0,0,1-15.67-1.47s6.54-4.94,8.24-11.4c-5.75,2-16.29,2.9-16.29,2.9S111,15,111.07,5.47C106.83,9.65,96.65,14,96.65,14s1.45-4.52-.87-14a35.45,35.45,0,0,1-7.65,12.88Z"/><path class="cls-3" d="M61.59,34.38H67.4a1.54,1.54,0,0,1,1.53,1.54V48.37a.68.68,0,0,0,.69.68h3.9a.68.68,0,0,0,.69-.68V36a1.65,1.65,0,0,1,1.65-1.65h24.71a1.55,1.55,0,0,1,1.54,1.55V48.37a.68.68,0,0,0,.69.68h4a.68.68,0,0,0,.69-.68V36A1.57,1.57,0,0,1,109,34.38h5.17A22.85,22.85,0,0,0,110.13,28a26.85,26.85,0,0,0-5.77-5c-9.27-6.81-23.24-6.71-33.1-.13A28,28,0,0,0,62.2,33.32l0,0Z"/></g><g id="Moño"><path class="cls-4" d="M96.38,156.54a8.22,8.22,0,0,0,0-3.94c3-.6,7.9-2,10.61-5.36a8.72,8.72,0,0,0,2-6.74,7,7,0,0,0-3.16-5.24c-5.13-3.34-14.89-.9-17.65-.11-2.76-.79-12.51-3.23-17.65.11a7,7,0,0,0-3.16,5.24,8.72,8.72,0,0,0,2,6.74C72,150.57,77,152,80,152.61a8.86,8.86,0,0,0-.21,1.87,8.24,8.24,0,0,0,.25,2c-2.18,2.15-9.26,8.36-19.48,9.5h0a14.6,14.6,0,0,0,3,3.57A38.12,38.12,0,0,0,82,160.14a8.77,8.77,0,0,0,.94.89c-.64,2.5-3.36,8.93-14.42,11.72a24.52,24.52,0,0,0,6.66,1.9c7.69-3.49,10.44-8.81,11.4-11.9a8.34,8.34,0,0,0,1.66.16,8.43,8.43,0,0,0,1.6-.15c1,3.09,3.72,8.4,11.4,11.89a24.52,24.52,0,0,0,6.66-1.9c-11-2.78-13.75-9.13-14.41-11.67a9.25,9.25,0,0,0,1-.91,38.17,38.17,0,0,0,18.4,9.38,14.54,14.54,0,0,0,3-3.57,34.24,34.24,0,0,1-19.42-9.44"/><path class="cls-5" d="M103.64,138.6a3,3,0,0,1,1.39,2.34,4.84,4.84,0,0,1-1.07,3.77,11.68,11.68,0,0,1-5.14,3.14,7.45,7.45,0,0,0,.39-5.95A9.09,9.09,0,0,0,96,137.67c3-.29,6-.15,7.61.93"/><path class="cls-5" d="M80.86,143.29c1.49-4,7.08-4.07,7.31-4.07h0a11.44,11.44,0,0,1,3.2.53,6,6,0,0,1,4.11,3.54c.67,1.81-.6,3.69-1.69,4.88a8.41,8.41,0,0,0-11.21,0c-1.1-1.19-2.4-3.08-1.72-4.92"/><path class="cls-5" d="M77.53,147.85a11.57,11.57,0,0,1-5.14-3.13,4.84,4.84,0,0,1-1.08-3.78,3,3,0,0,1,1.39-2.34,9.54,9.54,0,0,1,5-1.06c.83,0,1.7.05,2.58.13a9.09,9.09,0,0,0-3.19,4.23,7.39,7.39,0,0,0,.4,5.95"/><path class="cls-5" d="M83.75,154.48a4.46,4.46,0,1,1,4.45,4.45,4.46,4.46,0,0,1-4.45-4.45"/><path class="cls-5" d="M112.83,169.55a38.12,38.12,0,0,1-18.41-9.38,9.25,9.25,0,0,1-1,.91c.66,2.55,3.39,8.89,14.41,11.67a19.49,19.49,0,0,0,5-3.2"/><path class="cls-5" d="M82,160.14a38.2,38.2,0,0,1-18.45,9.41,19.49,19.49,0,0,0,5,3.2C79.54,170,82.26,163.53,82.9,161a8.77,8.77,0,0,1-.94-.89"/></g></g><path d="M57.45,238.16H38.39V253H59.71v7.58H29.16V210H58.58v7.58H38.39v13.05H57.45Z"/><path d="M67.81,210.69a81.36,81.36,0,0,1,14.11-1.05c6.75,0,11.63,1.43,14.86,4.13a14.29,14.29,0,0,1,5,11.18c0,4.8-1.5,8.71-4.28,11.41-3.75,3.68-9.45,5.48-16,5.48a20.09,20.09,0,0,1-4.5-.38V260.6H67.81ZM77,234.18a15.21,15.21,0,0,0,4.5.45c6.9,0,11.11-3.45,11.11-9.3,0-5.63-3.91-8.56-10.29-8.56a25.75,25.75,0,0,0-5.32.45Z"/><path d="M109.69,260.6V210h10.58l13.06,21.69a150.77,150.77,0,0,1,8.63,17h.15a205.42,205.42,0,0,1-.83-21V210h8.56V260.6h-9.61L127,238.31a172.22,172.22,0,0,1-9-17.41l-.3.07c.37,6.53.52,13.21.52,21.54V260.6Z"/></g></g></g></svg>