<svg xmlns="http://www.w3.org/2000/svg" viewBox="0 0 401.35 154.38"><defs><style>.cls-1{fill-rule:evenodd;}</style></defs><g id="Capa_2" data-name="Capa 2"><g id="Isologotipo_v2_a_3_lineas_negativo_y_plumas" data-name="Isologotipo v2 a 3 lineas negativo  y plumas"><g id="Isologotipo_principal_negativo" data-name="Isologotipo principal negativo"><path d="M234.94,81.78H200.6v26.77H239V122.2H184V31.08h53V44.74H200.6V68.26h34.34Z"/><path d="M253.59,32.3A146.63,146.63,0,0,1,279,30.41c12.17,0,21,2.57,26.77,7.43,5.41,4.47,8.92,11.63,8.92,20.15S312,73.67,307,78.54c-6.76,6.62-17,9.86-28.8,9.86a36.43,36.43,0,0,1-8.11-.67V122.2H253.59Zm16.49,42.32a27.94,27.94,0,0,0,8.11.81c12.44,0,20-6.22,20-16.77,0-10.14-7-15.41-18.52-15.41a46.37,46.37,0,0,0-9.6.81Z"/><path d="M329,122.2V31.08h19.06L371.6,70.15a271.13,271.13,0,0,1,15.55,30.56h.27a371.27,371.27,0,0,1-1.49-37.86V31.08h15.42V122.2H384L360.25,82.05A314.26,314.26,0,0,1,344,50.69l-.54.13c.67,11.76.94,23.8.94,38.8V122.2Z"/><g id="Torreon"><g id="Sol"><path class="cls-1" d="M75.57,11.39S70.23,6.12,68.4,0c-2.48,8.78-1.14,12.6-1.14,12.6s-7.5-3.73-12-7.87c.55,8.51,3,12.37,3,12.37a111.21,111.21,0,0,1-13.8-3.44c1.62,6.41,6.83,10.92,6.83,10.92A74.22,74.22,0,0,1,37.41,25.7c3.83,5.42,7.11,6.35,7.11,6.35v-.23a1.42,1.42,0,0,1,1.42-1.43h6.28l.42-.92a24.86,24.86,0,0,1,8-9.23c8.72-5.81,21.07-5.9,29.27.11A24,24,0,0,1,95,24.76a20.43,20.43,0,0,1,3.59,5.63h6.76a1.39,1.39,0,0,1,1.39,1.39v.37s2.68-.31,6.72-6.43a88.84,88.84,0,0,1-13.85-1.31s5.78-4.36,7.28-10.07c-5.08,1.73-14.4,2.56-14.4,2.56s3.28-3.68,3.34-12.07C92.1,8.53,83.1,12.41,83.1,12.41s1.28-4-.77-12.41a31.45,31.45,0,0,1-6.76,11.39Z"/></g><path d="M80.69,142a5.25,5.25,0,0,1-.42.4A10.82,10.82,0,0,0,81.36,145a10.82,10.82,0,0,1-1.09-2.61A5.25,5.25,0,0,0,80.69,142Z"/><path d="M70.11,141.55l-.25.22.25-.22Z"/><path d="M81.13,141.58h0a34.31,34.31,0,0,0,3,2.45A32.56,32.56,0,0,1,81.13,141.58Z"/><path d="M59.59,118.53c4-2.6,11.54-1.25,14.87-.41v-7.26H46.83v10H57.16A18.65,18.65,0,0,1,59.59,118.53Z"/><path d="M54.63,69.15H74.46v-10H50.78A65.73,65.73,0,0,1,54.63,69.15Z"/><rect x="65.63" y="33.35" width="19.94" height="10.01"/><path d="M74.46,95V85H53.87c-1,3.47-2.89,6.5-4.33,10.05Z"/><path d="M58.59,98H48a5.06,5.06,0,0,0-1.21,2v8H58.59Z"/><path d="M58.59,56.26v-10H46.83v5.35c.13,1.17,2.48,4.11,2.55,4.67Z"/><path d="M56.25,43.37l0-10H46.83s0,2.95,0,10Z"/><rect x="95.01" y="33.35" width="9.41" height="10.01"/><path d="M58.59,82.09v-10H55.07a32,32,0,0,1-.37,10Z"/><path d="M100.5,59.18H76.78v10H96.65A65.73,65.73,0,0,1,100.5,59.18Z"/><path d="M97.44,85H76.78V95l25,0C100.33,91.51,98.45,88.48,97.44,85Z"/><path d="M91.2,118.46a21.12,21.12,0,0,1,2.49,2.42h10.73v-10H76.78V118C80.12,117.2,87.23,115.87,91.2,118.46Z"/><path d="M104.43,51.59V46.24H92.66v10h9.22C102,55.7,104.3,52.76,104.43,51.59Z"/><path d="M92.66,72.11v10H96.6a31.9,31.9,0,0,1-.37-10Z"/><path d="M104.42,100a5,5,0,0,0-1.16-2H92.66v10h11.76Z"/><rect x="61.03" y="46.24" width="29.22" height="10.02"/><rect x="61.03" y="97.95" width="29.22" height="9.99"/><rect x="61" y="72.08" width="29.22" height="9.99"/><path d="M43.68,120.29l.84.59V109.35c-2.89-1.45-5.42-3.46-9.48-4.3C34.89,113.33,38.92,117.26,43.68,120.29Z"/><path d="M135.47,99.56c-10.64,4.94-6.75,2.5-10.73,7.51L119,113.51c-1.18,1.12-2.44,1.57-3.12,3.31,3.85,0,15.46-3.47,18.29-6,.85-.75,11.11-12.61,9-14.65C142.72,95.74,136.72,99,135.47,99.56Z"/><path d="M28.6,110.64c-7.72-8.86-1.27-5.32-13.38-11-1.31-.61-7.52-3.93-8-3.51-2.07,2,8,13.78,8.76,14.47,2.79,2.63,14.24,6.23,18.49,6.18C33.91,115.27,30.89,113.26,28.6,110.64Z"/><path d="M150.43,74c-1.68.31-11.87,9-13.53,10.26-3.24,2.45-.33,1.77-3.39,8.41-2.16,4.68-3.5,5-4.67,7.45,2.47-.49,6.2-2.7,8.24-3.89,2.9-1.7,4.76-2.71,6.75-5C146.9,87.6,150.78,80.47,150.43,74Z"/><path d="M21.59,100.1c-1.07-2.18-4.86-5.53-6.11-11.7-1.08-5.29.48-2-8.52-9.35C5.38,77.74,1.44,74.25,0,74c-.34,6.5,3.52,13.63,6.58,17.2C9.18,94.19,18.16,99.43,21.59,100.1Z"/><path d="M44.51,122.1c-12-5.35-2.69-4-14.34-3.7a53.1,53.1,0,0,1-9.13-.35c-.35,1.19,6.27,6.83,12.19,8.46,4.77,1.31,9.42.59,14.34-.42,2.51-.51,3.28-.58,3.86-1.82C49.59,123.05,46.62,123,44.51,122.1Z"/><path d="M26.18,103.91c1.52,3,6.44,9.59,9.25,10.12-1.68-9.15.31-11.32-4.44-20.62-.73-1.44-2.38-4.48-3.87-5C23.52,90.51,24.36,100.34,26.18,103.91Z"/><path d="M115.68,109.25,115,114c2.56-.52,7.56-7,9.09-9.88,1.88-3.59,2.67-13.68-.81-15.77-1.09.39-.72.09-1.57,1.23-.3.4-.84,1.31-1.18,1.86A28.35,28.35,0,0,0,116,105c-5.08.74-6.78,2.56-9.21,5v10.9C112.46,118.54,114.42,111.49,115.68,109.25Z"/><path d="M14,81.5c0-1.5-1.92-4.82-1.88-8.94.06-6.14,1.5-3.74-1.44-9C8.63,59.83,3.35,51.41.77,50.48-.54,53.73.8,67,2.1,70.6,3.17,73.56,10.28,81.74,14,81.5Z"/><path d="M138.3,72.18c.16,6-1.89,7.56-1.89,9.32,3.54.19,10.65-7.77,11.81-10.64,1.46-3.57,2.77-17.09,1.44-20.38-1.54.54-1.9,1.37-2.83,2.64-2.88,3.86-4.15,5.16-7,10.16C137,68.45,138.12,66,138.3,72.18Z"/><path d="M13.44,63.09A15.49,15.49,0,0,0,15.29,60c1.37-2.28,3.48-2.62,5.7-9.9.78-2.54.8-6.19,1.19-9.07.51-3.66.85-6-.28-9.16-4.35,0-9.63,7.87-11.12,12.58C9,49.89,8.82,60.47,13.44,63.09Z"/><path d="M132.69,57.08c.67.9,1.6,1.52,2.33,2.62s.95,2.35,2,3.39c5.41-3.13,5.29-18.36-1.47-26.32-1.24-1.47-4.2-5-7-4.93-1.13,3.17-.79,5.51-.28,9.16C129.09,47.12,128.92,52.05,132.69,57.08Z"/><path d="M112.61,118.5c-2.19,1.19-.77,1-5.62,3.12a18,18,0,0,1-6.88,1.89l-1.11.32c-.13,2.16,5.65,2.62,8.17,3,3.8.54,6,.76,9.73-.23,6.14-1.6,12.83-7.34,12.49-8.53C126,118.57,114.18,117.65,112.61,118.5Z"/><path d="M16,63.36c-1.26,4-3.88,12.53-.2,15.85,1.88-.95,2.25-5.26,4.4-7.08l.44-.32c.66-.44,0-.1.76-.39-.68,2.43-5,4.47-3.92,13.48a26.56,26.56,0,0,0,2,7.09c1,2.48,1.87,5.12,3.63,5.73.55-2.07.85-4,1.59-6.31,3.45-10.74,1.3-13-1.53-20.2L21.78,71c1.39-4,5.33-6.83,4.23-11.81-.57-2.58,0-2.67-.12-4.8C22.82,54.63,17.51,58.73,16,63.36Z"/><path d="M125.64,91.13c.78,2.42,1.1,4.43,1.68,6.59,3.14-1.12,7.25-14,5-20.48-.94-2.72-2.89-4.34-3.31-5.82.78.3.07-.14,1,.55a5.3,5.3,0,0,1,.93,1c1.73,2.35,2,5.45,3.69,6.28,3.6-3.32,1.15-11.22-.06-15.25a12.69,12.69,0,0,0-3.72-6.13c-1-.82-4.43-3.28-6.29-3.43-.09,2,.46,2.18-.05,4.5-.46,2.14-.59,2.46.23,4.64,1.06,2.8,3.11,5.11,3.93,7.49l-1.39.17C124.54,78.09,122.3,80.66,125.64,91.13Z"/><path d="M66.38,121.57c.74,0,1.51.05,2.28.12a9,9,0,0,0-1.17,1.07l2.12,3c1.74-2.64,5.81-2.69,6-2.69h0a10,10,0,0,1,2.83.47,5.86,5.86,0,0,1,2.91,1.89l1.93-2.73.36,0a9,9,0,0,0-1.08-1c2.56-.25,5.06-.13,6.54.72,1.34-.06,2.81-.11,4.36-.16a6,6,0,0,0-.83-1.37H76.78v-1.73c-.48.11-.87.22-1.18.31l-1.14-.31v1.73H58.59a5.69,5.69,0,0,0-.85,1.4c1.55,0,3,.1,4.33.16A8.72,8.72,0,0,1,66.38,121.57Z"/><path d="M83.09,136.55a7.54,7.54,0,0,0-.19-1.66c2.66-.54,7-1.82,9.37-4.74a7.64,7.64,0,0,0,1.78-5c-1.2.49-2.47,1-3.76,1.41a4.3,4.3,0,0,1-.73,1.32A10.23,10.23,0,0,1,85,130.69a7.32,7.32,0,0,0,.73-2.68c-.79.22-1.57.43-2.32.61l-1.38,0A6.92,6.92,0,0,1,80.57,131a7.46,7.46,0,0,0-9.91,0,6.66,6.66,0,0,1-1.49-2.34l-1.87,0c-.59-.14-1.2-.3-1.83-.47a7.13,7.13,0,0,0,.73,2.53,10.18,10.18,0,0,1-4.55-2.77A4.53,4.53,0,0,1,61,126.8c-1.31-.44-2.6-.91-3.84-1.41a7.58,7.58,0,0,0,1.78,4.76c2.41,2.94,6.77,4.22,9.43,4.75a7.45,7.45,0,0,0-.19,1.65,7.94,7.94,0,0,0,.21,1.77,30.2,30.2,0,0,1-17.21,8.39h0a12.86,12.86,0,0,0,2.63,3.16h0a33.58,33.58,0,0,0,16-8.1l.25-.22h0l.22.2a5.76,5.76,0,0,0,.62.59c-.57,2.21-3,7.89-12.75,10.36a22,22,0,0,0,5.89,1.68c6.8-3.09,9.22-7.79,10.08-10.52a7.77,7.77,0,0,0,1.46.14,7.18,7.18,0,0,0,1.41-.13c.86,2.73,3.29,7.43,10.08,10.51A22.05,22.05,0,0,0,93,152.7c-7-1.75-10.16-5.11-11.65-7.71a10.82,10.82,0,0,1-1.09-2.61,5.25,5.25,0,0,0,.42-.4,4.07,4.07,0,0,0,.43-.4h0a32.56,32.56,0,0,0,3,2.45,32.92,32.92,0,0,0,13.26,5.84,13,13,0,0,0,2.63-3.16,30.33,30.33,0,0,1-17.17-8.34A7.32,7.32,0,0,0,83.09,136.55Zm-7.46,3.94a3.94,3.94,0,1,1,3.94-3.94A3.94,3.94,0,0,1,75.63,140.49Z"/><path d="M74.46,119.15C71.13,118.31,64,117,60,119.56a6.19,6.19,0,0,0-1.42,1.32H74.46Z"/><path d="M92.62,120.88a6.4,6.4,0,0,0-1.42-1.32c-4-2.59-11.08-1.26-14.42-.41v1.73Z"/><path d="M60.7,124.58a2.68,2.68,0,0,1,1.23-2.07s.1,0,.14-.07c-1.32-.06-2.78-.11-4.33-.16a6.58,6.58,0,0,0-.53,1.91,8.14,8.14,0,0,0-.05,1.2c1.24.5,2.53,1,3.84,1.41A4.41,4.41,0,0,1,60.7,124.58Z"/><path d="M69.14,126.65a5.1,5.1,0,0,1,.47-.9l-2.12-3a8.23,8.23,0,0,0-1.65,2.67,6.31,6.31,0,0,0-.37,2.73c.63.17,1.24.33,1.83.47l1.87,0A3,3,0,0,1,69.14,126.65Z"/><path d="M83.63,122.67l-.36,0-1.93,2.73a4.6,4.6,0,0,1,.73,1.23,3,3,0,0,1,0,2l1.38,0c.75-.18,1.53-.39,2.32-.61a6.17,6.17,0,0,0-.38-2.58A8,8,0,0,0,83.63,122.67Z"/><path d="M89.28,122.51a2.64,2.64,0,0,1,1.22,2.07,4.43,4.43,0,0,1-.21,2c1.29-.44,2.56-.92,3.76-1.41a8.31,8.31,0,0,0,0-1,6.8,6.8,0,0,0-.55-1.94c-1.55,0-3,.1-4.36.16Z"/><path d="M97.39,149.87h0A32.92,32.92,0,0,1,84.14,144,32.93,32.93,0,0,0,97.39,149.87Z"/><path d="M81.36,145c1.49,2.6,4.7,6,11.65,7.71h0C86.06,151,82.85,147.59,81.36,145Z"/><path d="M81.12,141.58a4.07,4.07,0,0,1-.43.4,4.07,4.07,0,0,0,.43-.4Z"/><path d="M70.11,141.55l.22.2-.22-.2Z"/><path d="M53.81,149.87h0a33.58,33.58,0,0,0,16-8.1A33.58,33.58,0,0,1,53.81,149.87Z"/></g></g></g></g></svg>