<svg xmlns="http://www.w3.org/2000/svg" viewBox="0 0 82.63 84.79"><defs><style>.cls-1{fill-rule:evenodd;}</style></defs><g id="Capa_2" data-name="Capa 2"><g id="Isologotipo_v2_casos_de_espacio" data-name="Isologotipo v2 casos de espacio"><g id="Isologotipo_v3_por_espacio_pluma" data-name="Isologotipo v3 por espacio pluma"><g id="Torreon"><g id="Sol"><path class="cls-1" d="M41.5,6.25A17.26,17.26,0,0,1,37.57,0c-1.36,4.83-.63,6.93-.63,6.93a33.86,33.86,0,0,1-6.58-4.33C30.67,7.29,32,9.41,32,9.41a61.71,61.71,0,0,1-7.58-1.89,13.21,13.21,0,0,0,3.75,6,39.69,39.69,0,0,1-7.65.6c2.1,3,3.9,3.49,3.9,3.49v-.12a.78.78,0,0,1,.78-.79h3.45l.23-.5a13.6,13.6,0,0,1,4.4-5.07c4.79-3.19,11.57-3.24,16.07.06a13.05,13.05,0,0,1,2.8,2.42,11.24,11.24,0,0,1,2,3.09h3.71a.76.76,0,0,1,.76.76v.21s1.47-.17,3.7-3.54a49.33,49.33,0,0,1-7.61-.71s3.17-2.4,4-5.53a44.44,44.44,0,0,1-7.91,1.4s1.8-2,1.83-6.62c-2.06,2-7,4.16-7,4.16s.7-2.2-.42-6.82A17.17,17.17,0,0,1,41.5,6.25Z"/></g><path d="M44.32,78c-.08.07-.15.15-.24.22a6.33,6.33,0,0,0,.61,1.43,6.33,6.33,0,0,1-.61-1.43C44.17,78.13,44.24,78.05,44.32,78Z"/><path d="M38.51,77.74l-.14.12.14-.12Z"/><path d="M44.56,77.76h0a17.6,17.6,0,0,0,1.65,1.34A17.6,17.6,0,0,1,44.56,77.76Z"/><path d="M32.73,65.1c2.19-1.43,6.34-.69,8.16-.23v-4H25.72v5.51h5.67A10.24,10.24,0,0,1,32.73,65.1Z"/><path d="M30,38H40.89V32.5h-13A37.23,37.23,0,0,1,30,38Z"/><rect x="36.05" y="18.32" width="10.95" height="5.5"/><path d="M40.89,52.2V46.68H29.58a58.77,58.77,0,0,1-2.37,5.52Z"/><path d="M32.18,53.8h-5.8a2.78,2.78,0,0,0-.66,1.11v4.37h6.46Z"/><path d="M32.18,30.9V25.4H25.72v2.94c.07.63,1.36,2.25,1.4,2.56Z"/><path d="M30.89,23.82l0-5.5H25.72s0,1.62,0,5.49Z"/><rect x="52.18" y="18.32" width="5.17" height="5.5"/><path d="M32.18,45.08V39.61H30.25A17.56,17.56,0,0,1,30,45.08Z"/><path d="M55.2,32.5h-13V38H53.08A36.15,36.15,0,0,1,55.2,32.5Z"/><path d="M53.51,46.68H42.17V52.2H55.89C55.1,50.26,54.07,48.59,53.51,46.68Z"/><path d="M50.09,65.06a10.7,10.7,0,0,1,1.36,1.33h5.9V60.88H42.17v3.95C44,64.37,47.91,63.64,50.09,65.06Z"/><path d="M57.35,28.34V25.4H50.89v5.5H56C56,30.59,57.28,29,57.35,28.34Z"/><path d="M50.89,39.61v5.47h2.17a17.33,17.33,0,0,1-.21-5.48Z"/><path d="M57.35,54.9a2.72,2.72,0,0,0-.64-1.1H50.89v5.48h6.46Z"/><rect x="33.52" y="25.4" width="16.05" height="5.5"/><rect x="33.52" y="53.8" width="16.05" height="5.49"/><rect x="33.5" y="39.59" width="16.05" height="5.49"/><path d="M24,66.06l.46.33V60.06c-1.59-.8-3-1.9-5.2-2.36C19.16,62.24,21.38,64.4,24,66.06Z"/><path d="M74.4,54.68c-5.84,2.71-3.71,1.37-5.89,4.13l-3.14,3.53c-.64.62-1.34.87-1.71,1.82,2.11,0,8.49-1.91,10-3.3.46-.41,6.1-6.92,4.92-8C78.38,52.58,75.09,54.36,74.4,54.68Z"/><path d="M15.71,60.76c-4.24-4.86-.7-2.91-7.35-6-.72-.34-4.13-2.16-4.37-1.93-1.13,1.07,4.41,7.57,4.81,8,1.54,1.44,7.83,3.42,10.16,3.39C18.62,63.31,17,62.2,15.71,60.76Z"/><path d="M82.62,40.63c-.93.17-6.52,4.94-7.43,5.64-1.78,1.34-.18,1-1.86,4.62-1.19,2.56-1.93,2.75-2.57,4.09a18.77,18.77,0,0,0,4.52-2.14A12.3,12.3,0,0,0,79,50.07C80.68,48.11,82.81,44.2,82.62,40.63Z"/><path d="M11.86,55c-.59-1.2-2.67-3-3.36-6.43-.59-2.91.27-1.07-4.68-5.14C3,42.7.79,40.78,0,40.63c-.19,3.57,1.93,7.49,3.61,9.45A23.1,23.1,0,0,0,11.86,55Z"/><path d="M24.44,67.06c-6.59-2.94-1.47-2.18-7.87-2a29.66,29.66,0,0,1-5-.2c-.2.66,3.44,3.75,6.69,4.65,2.62.72,5.17.32,7.88-.23,1.37-.28,1.8-.32,2.12-1C27.24,67.58,25.6,67.57,24.44,67.06Z"/><path d="M14.38,57.07c.83,1.64,3.53,5.27,5.08,5.56-.92-5,.17-6.22-2.44-11.33-.4-.79-1.31-2.46-2.12-2.75C12.92,49.71,13.38,55.11,14.38,57.07Z"/><path d="M63.53,60l-.35,2.63c1.4-.28,4.15-3.82,5-5.42,1-2,1.46-7.52-.44-8.66-.6.21-.4,0-.87.67-.16.22-.46.72-.65,1a15.69,15.69,0,0,0-2.52,7.41,7.53,7.53,0,0,0-5.06,2.75v6C61.76,65.1,62.84,61.23,63.53,60Z"/><path d="M7.7,44.76c0-.82-1.06-2.65-1-4.91,0-3.37.83-2.05-.79-5-1.13-2-4-6.66-5.45-7.17-.72,1.79,0,9.06.73,11.05C1.74,40.4,5.65,44.89,7.7,44.76Z"/><path d="M76,39.64c.09,3.32-1,4.15-1,5.12,1.94.11,5.85-4.27,6.48-5.84.81-2,1.52-9.39.79-11.2-.84.3-1,.76-1.55,1.45a39.73,39.73,0,0,0-3.82,5.58C75.23,37.59,75.86,36.25,76,39.64Z"/><path d="M7.38,34.65a9,9,0,0,0,1-1.71c.75-1.26,1.91-1.44,3.13-5.44a34.85,34.85,0,0,0,.65-5c.28-2,.47-3.29-.15-5-2.39,0-5.29,4.32-6.11,6.91C5,27.4,4.84,33.21,7.38,34.65Z"/><path d="M72.88,31.35c.36.49.87.83,1.27,1.44a10.79,10.79,0,0,0,1.09,1.86c3-1.72,2.9-10.08-.81-14.45-.68-.81-2.31-2.72-3.84-2.71-.62,1.74-.43,3-.16,5C70.9,25.88,70.81,28.59,72.88,31.35Z"/><path d="M61.85,65.08a13.33,13.33,0,0,1-3.09,1.72,9.85,9.85,0,0,1-3.78,1l-.61.18c-.07,1.19,3.11,1.44,4.49,1.63a11.34,11.34,0,0,0,5.34-.12c3.38-.88,7-4,6.86-4.69C69.21,65.12,62.71,64.61,61.85,65.08Z"/><path d="M8.8,34.8c-.69,2.17-2.13,6.88-.11,8.7,1-.52,1.24-2.89,2.42-3.88l.24-.18c.37-.24,0-.06.42-.22-.38,1.34-2.75,2.46-2.15,7.41a14.12,14.12,0,0,0,1.08,3.89c.57,1.37,1,2.81,2,3.15.3-1.14.47-2.2.88-3.46,1.89-5.9.71-7.14-.84-11.1L12,39c.77-2.21,2.93-3.75,2.33-6.48a8.83,8.83,0,0,1-.07-2.64C12.53,30,9.62,32.25,8.8,34.8Z"/><path d="M69,50.05c.43,1.33.61,2.43.93,3.62,1.72-.62,4-7.68,2.74-11.25-.52-1.49-1.59-2.38-1.82-3.19.43.16,0-.08.54.3a2.57,2.57,0,0,1,.51.53c.95,1.29,1.1,3,2,3.44,2-1.82.63-6.16,0-8.37a6.92,6.92,0,0,0-2.05-3.37c-.54-.45-2.43-1.8-3.45-1.88a9,9,0,0,1,0,2.47,3.22,3.22,0,0,0,.13,2.54c.58,1.54,1.71,2.81,2.16,4.12l-.77.09C68.4,42.89,67.17,44.3,69,50.05Z"/><path d="M36.46,66.77a10.83,10.83,0,0,1,1.25.07,3.86,3.86,0,0,0-.64.58l1.16,1.64c1-1.44,3.19-1.47,3.29-1.47h0a5.29,5.29,0,0,1,1.56.26,3.16,3.16,0,0,1,1.59,1l1.06-1.5h.2a4.15,4.15,0,0,0-.59-.53,6.55,6.55,0,0,1,3.59.39l2.39-.09a3.18,3.18,0,0,0-.45-.75h-8.7v-1l-.65.17c-.16,0-.37-.11-.63-.17v1H32.18a3.18,3.18,0,0,0-.47.77c.85,0,1.66.06,2.38.09A4.8,4.8,0,0,1,36.46,66.77Z"/><path d="M45.63,75a4,4,0,0,0-.1-.92c1.46-.29,3.83-1,5.15-2.6a4.15,4.15,0,0,0,1-2.73c-.66.27-1.35.53-2.06.78a2.44,2.44,0,0,1-.4.72,5.65,5.65,0,0,1-2.5,1.52,3.85,3.85,0,0,0,.4-1.47c-.44.13-.86.24-1.28.34h-.75a3.89,3.89,0,0,1-.81,1.28,4.08,4.08,0,0,0-5.44,0A3.85,3.85,0,0,1,38,70.66l-1,0-1-.25a3.85,3.85,0,0,0,.4,1.39,5.65,5.65,0,0,1-2.5-1.52,2.62,2.62,0,0,1-.36-.62c-.72-.24-1.43-.5-2.11-.77a4.22,4.22,0,0,0,1,2.61c1.32,1.62,3.72,2.32,5.18,2.61a3.85,3.85,0,0,0-.1.91,4.44,4.44,0,0,0,.11,1,16.67,16.67,0,0,1-9.45,4.61h0a7.07,7.07,0,0,0,1.44,1.73h0a18.5,18.5,0,0,0,8.82-4.45l.14-.12h0s.08.07.11.11a2.66,2.66,0,0,0,.35.32c-.32,1.22-1.64,4.34-7,5.69a11.87,11.87,0,0,0,3.24.93A9.59,9.59,0,0,0,40.73,79a4.28,4.28,0,0,0,.81.08,3.94,3.94,0,0,0,.77-.08,9.62,9.62,0,0,0,5.54,5.78,11.9,11.9,0,0,0,3.23-.93c-3.81-1-5.58-2.8-6.39-4.23a6.33,6.33,0,0,1-.61-1.43c.09-.07.16-.15.24-.22a2.39,2.39,0,0,0,.23-.22h0a17.6,17.6,0,0,0,1.65,1.34,18.13,18.13,0,0,0,7.28,3.21,7.48,7.48,0,0,0,1.45-1.73A16.61,16.61,0,0,1,45.51,76,4.07,4.07,0,0,0,45.63,75Zm-4.09,2.16A2.17,2.17,0,1,1,43.7,75,2.16,2.16,0,0,1,41.54,77.16Z"/><path d="M40.89,65.44c-1.82-.46-5.75-1.2-7.93.23a3.36,3.36,0,0,0-.78.72h8.71Z"/><path d="M50.87,66.39a3.36,3.36,0,0,0-.78-.72c-2.18-1.43-6.09-.7-7.92-.23v1Z"/><path d="M33.34,68.42A1.48,1.48,0,0,1,34,67.28l.08,0c-.72,0-1.53-.07-2.38-.09a3.54,3.54,0,0,0-.29,1,4.86,4.86,0,0,0,0,.66c.68.27,1.39.53,2.11.77A2.45,2.45,0,0,1,33.34,68.42Z"/><path d="M38,69.56a3,3,0,0,1,.26-.5l-1.16-1.64a4.32,4.32,0,0,0-.91,1.47,3.47,3.47,0,0,0-.2,1.5l1,.25,1,0A1.66,1.66,0,0,1,38,69.56Z"/><path d="M45.93,67.37h-.2l-1.06,1.5a2.34,2.34,0,0,1,.4.68,1.63,1.63,0,0,1,0,1.09h.75c.42-.1.84-.21,1.28-.34a3.41,3.41,0,0,0-.21-1.41A4.38,4.38,0,0,0,45.93,67.37Z"/><path d="M49,67.28a1.47,1.47,0,0,1,.68,1.14,2.54,2.54,0,0,1-.12,1.11c.71-.25,1.4-.51,2.06-.78a4.87,4.87,0,0,0,0-.54,3.69,3.69,0,0,0-.31-1.07l-2.39.09Z"/><path d="M53.49,82.31h0a18.13,18.13,0,0,1-7.28-3.21A18.07,18.07,0,0,0,53.49,82.31Z"/><path d="M44.69,79.63c.81,1.43,2.58,3.27,6.39,4.23h0C47.27,82.9,45.5,81.06,44.69,79.63Z"/><path d="M44.55,77.76a2.39,2.39,0,0,1-.23.22l.24-.22Z"/><path d="M38.51,77.74s.08.07.11.11-.08-.07-.11-.11Z"/><path d="M29.55,82.31h0a18.41,18.41,0,0,0,8.82-4.45A18.5,18.5,0,0,1,29.55,82.31Z"/></g></g></g></g></svg>