<svg xmlns="http://www.w3.org/2000/svg" viewBox="0 0 70.15 71.98"><defs><style>.cls-1,.cls-2{fill:#fff;}.cls-1{fill-rule:evenodd;}</style></defs><g id="Capa_2" data-name="Capa 2"><g id="Version_a_utilizar_segun_espacio" data-name="Version a utilizar segun espacio"><g id="Torreon"><g id="Sol"><path class="cls-1" d="M35.24,5.31A14.68,14.68,0,0,1,31.89,0c-1.15,4.1-.53,5.88-.53,5.88a28.65,28.65,0,0,1-5.58-3.67A13,13,0,0,0,27.19,8a51.21,51.21,0,0,1-6.43-1.6,11.19,11.19,0,0,0,3.18,5.09,33.83,33.83,0,0,1-6.5.51c1.79,2.53,3.32,3,3.32,3v-.1a.66.66,0,0,1,.66-.67h2.93l.19-.43a11.62,11.62,0,0,1,3.74-4.3,12.29,12.29,0,0,1,13.64.05,11.2,11.2,0,0,1,2.38,2A9.49,9.49,0,0,1,46,14.17h3.15a.65.65,0,0,1,.65.65V15s1.25-.14,3.13-3a41.58,41.58,0,0,1-6.46-.61,10.24,10.24,0,0,0,3.4-4.69,38.48,38.48,0,0,1-6.72,1.19s1.53-1.71,1.56-5.63C42.94,4,38.75,5.79,38.75,5.79s.59-1.87-.36-5.79a14.72,14.72,0,0,1-3.15,5.31Z"/></g><path class="cls-2" d="M37.62,66.2a1.62,1.62,0,0,1-.19.18,4.49,4.49,0,0,0,.51,1.22,4.58,4.58,0,0,1-.51-1.21C37.5,66.33,37.56,66.26,37.62,66.2Z"/><path class="cls-2" d="M32.69,66l-.12.1.12-.1Z"/><path class="cls-2" d="M37.83,66h0a13.1,13.1,0,0,0,1.4,1.15A13.1,13.1,0,0,1,37.83,66Z"/><path class="cls-2" d="M27.78,55.26c1.86-1.21,5.39-.58,6.94-.19V51.69H21.84v4.67h4.81A9,9,0,0,1,27.78,55.26Z"/><path class="cls-2" d="M25.47,32.24h9.25V27.59h-11A30.62,30.62,0,0,1,25.47,32.24Z"/><rect class="cls-2" x="30.6" y="15.55" width="9.3" height="4.67"/><path class="cls-2" d="M34.72,44.31V39.63h-9.6c-.48,1.62-1.35,3-2,4.68Z"/><path class="cls-2" d="M27.32,45.67H22.4a2.29,2.29,0,0,0-.56.94v3.72h5.48Z"/><path class="cls-2" d="M27.32,26.23V21.56H21.84v2.5C21.9,24.6,23,26,23,26.23Z"/><path class="cls-2" d="M26.23,20.22V15.55h-4.4v4.67Z"/><rect class="cls-2" x="44.3" y="15.55" width="4.39" height="4.67"/><path class="cls-2" d="M27.32,38.27V33.62H25.68a14.71,14.71,0,0,1-.18,4.65Z"/><path class="cls-2" d="M46.86,27.59H35.8v4.65h9.26A31.75,31.75,0,0,1,46.86,27.59Z"/><path class="cls-2" d="M45.43,39.63H35.8v4.68H47.45A50.61,50.61,0,0,1,45.43,39.63Z"/><path class="cls-2" d="M42.52,55.23a8.87,8.87,0,0,1,1.16,1.13h5V51.69H35.8V55C37.36,54.65,40.67,54,42.52,55.23Z"/><path class="cls-2" d="M48.69,24.06v-2.5H43.2v4.67h4.3C47.54,26,48.63,24.6,48.69,24.06Z"/><path class="cls-2" d="M43.2,33.62v4.65H45a15,15,0,0,1-.17-4.65Z"/><path class="cls-2" d="M48.69,46.61a2.4,2.4,0,0,0-.55-.94H43.2v4.66h5.49Z"/><rect class="cls-2" x="28.45" y="21.56" width="13.63" height="4.67"/><rect class="cls-2" x="28.45" y="45.67" width="13.63" height="4.66"/><rect class="cls-2" x="28.44" y="33.61" width="13.63" height="4.66"/><path class="cls-2" d="M20.37,56.09l.39.27V51a16.16,16.16,0,0,0-4.42-2C16.27,52.84,18.15,54.67,20.37,56.09Z"/><path class="cls-2" d="M63.17,46.42c-5,2.3-3.15,1.16-5,3.5l-2.66,3c-.55.52-1.14.73-1.46,1.54,1.8,0,7.21-1.62,8.53-2.8.4-.35,5.18-5.88,4.18-6.83C66.54,44.64,63.75,46.15,63.17,46.42Z"/><path class="cls-2" d="M13.33,51.58c-3.6-4.12-.59-2.47-6.23-5.1-.62-.29-3.51-1.83-3.71-1.64-1,.91,3.74,6.43,4.08,6.75,1.31,1.22,6.65,2.9,8.62,2.88C15.81,53.74,14.4,52.81,13.33,51.58Z"/><path class="cls-2" d="M70.14,34.49c-.78.15-5.54,4.2-6.31,4.79-1.51,1.14-.15.82-1.58,3.92-1,2.18-1.63,2.33-2.18,3.47a15.72,15.72,0,0,0,3.84-1.81,10.43,10.43,0,0,0,3.15-2.35C68.49,40.85,70.3,37.52,70.14,34.49Z"/><path class="cls-2" d="M10.07,46.67c-.5-1-2.27-2.58-2.85-5.45-.5-2.47.22-.91-4-4.36C2.51,36.25.67,34.62,0,34.49c-.16,3,1.64,6.36,3.07,8A19.39,19.39,0,0,0,10.07,46.67Z"/><path class="cls-2" d="M20.75,56.93c-5.6-2.49-1.25-1.85-6.68-1.73A24,24,0,0,1,9.81,55c-.16.56,2.92,3.18,5.68,4a14.06,14.06,0,0,0,6.69-.2c1.17-.24,1.53-.27,1.8-.85C23.12,57.37,21.74,57.37,20.75,56.93Z"/><path class="cls-2" d="M12.21,48.45c.71,1.39,3,4.47,4.31,4.72-.78-4.27.14-5.28-2.07-9.62-.34-.67-1.11-2.09-1.8-2.34C11,42.2,11.36,46.78,12.21,48.45Z"/><path class="cls-2" d="M53.94,50.94l-.31,2.23c1.2-.24,3.53-3.24,4.24-4.6.88-1.68,1.25-6.38-.37-7.36-.51.18-.34,0-.74.57-.14.19-.39.62-.55.87A13.28,13.28,0,0,0,54.07,49a6.31,6.31,0,0,0-4.29,2.33v5.08C52.43,55.27,53.35,52,53.94,50.94Z"/><path class="cls-2" d="M6.53,38c0-.7-.89-2.25-.87-4.17,0-2.86.7-1.74-.68-4.21C4,27.9,1.56,24,.36,23.53c-.61,1.52,0,7.69.62,9.39C1.48,34.3,4.8,38.11,6.53,38Z"/><path class="cls-2" d="M64.48,33.66c.08,2.81-.88,3.52-.88,4.34,1.65.09,5-3.62,5.51-5,.68-1.67,1.29-8,.67-9.51-.72.26-.89.65-1.32,1.24a32.92,32.92,0,0,0-3.24,4.73C63.87,31.92,64.4,30.78,64.48,33.66Z"/><path class="cls-2" d="M6.27,29.42A7.5,7.5,0,0,0,7.13,28c.64-1.06,1.62-1.22,2.65-4.61a29.2,29.2,0,0,0,.56-4.23,8,8,0,0,0-.13-4.27c-2,0-4.49,3.66-5.18,5.86C4.22,23.26,4.11,28.2,6.27,29.42Z"/><path class="cls-2" d="M61.87,26.62c.31.41.74.7,1.08,1.22a10.34,10.34,0,0,0,.92,1.58c2.53-1.46,2.47-8.56-.68-12.28-.58-.68-2-2.3-3.26-2.29a8,8,0,0,0-.13,4.27C60.19,22,60.11,24.27,61.87,26.62Z"/><path class="cls-2" d="M52.51,55.25a11.58,11.58,0,0,1-2.63,1.46,8.48,8.48,0,0,1-3.21.88l-.51.14c-.06,1,2.64,1.23,3.81,1.39a9.68,9.68,0,0,0,4.54-.1c2.86-.75,6-3.42,5.82-4C58.75,55.29,53.24,54.85,52.51,55.25Z"/><path class="cls-2" d="M7.47,29.54c-.59,1.85-1.81,5.85-.09,7.39.88-.44,1-2.45,2.05-3.3l.21-.15c.31-.2,0,0,.35-.18-.32,1.13-2.34,2.09-1.83,6.28a12.32,12.32,0,0,0,.92,3.31c.49,1.16.87,2.39,1.69,2.67.26-1,.4-1.87.75-2.94,1.6-5,.6-6.06-.72-9.42l-.65-.09c.65-1.87,2.49-3.18,2-5.5a7.82,7.82,0,0,1-.06-2.24C10.64,25.47,8.16,27.38,7.47,29.54Z"/><path class="cls-2" d="M58.58,42.49c.36,1.13.51,2.06.78,3.07C60.83,45,62.74,39,61.69,36c-.44-1.27-1.35-2-1.54-2.71.36.14,0-.06.46.26A2.31,2.31,0,0,1,61,34c.81,1.09.93,2.53,1.72,2.92,1.68-1.55.54-5.23,0-7.11A5.85,5.85,0,0,0,61,27a7.79,7.79,0,0,0-2.93-1.6,7.74,7.74,0,0,1,0,2.09,2.71,2.71,0,0,0,.1,2.16c.5,1.31,1.45,2.39,1.83,3.5l-.65.08C58.07,36.41,57,37.61,58.58,42.49Z"/><path class="cls-2" d="M31,56.69c.34,0,.7,0,1.06.05a3.6,3.6,0,0,0-.54.5l1,1.39a3.65,3.65,0,0,1,2.79-1.25h0a4.86,4.86,0,0,1,1.32.22,2.71,2.71,0,0,1,1.35.88l.9-1.28H39a4.23,4.23,0,0,0-.5-.45,5.64,5.64,0,0,1,3,.33l2-.07a2.81,2.81,0,0,0-.39-.64H35.8v-.81l-.55.15-.53-.14v.8h-7.4a3.34,3.34,0,0,0-.4.65l2,.08A4,4,0,0,1,31,56.69Z"/><path class="cls-2" d="M38.74,63.67a3.33,3.33,0,0,0-.09-.78A7.73,7.73,0,0,0,43,60.68a3.51,3.51,0,0,0,.83-2.31c-.56.23-1.15.45-1.75.66a2.31,2.31,0,0,1-.34.61,4.84,4.84,0,0,1-2.12,1.29A3.39,3.39,0,0,0,40,59.69L38.89,60h-.64a3.12,3.12,0,0,1-.69,1.09,3.44,3.44,0,0,0-4.61,0,3.06,3.06,0,0,1-.7-1.09l-.87,0c-.28-.06-.56-.14-.85-.22a3.15,3.15,0,0,0,.34,1.19,4.71,4.71,0,0,1-2.12-1.3,2,2,0,0,1-.31-.52c-.61-.2-1.21-.42-1.79-.66a3.56,3.56,0,0,0,.83,2.22,7.79,7.79,0,0,0,4.4,2.22,3.38,3.38,0,0,0,0,1.59,14,14,0,0,1-8,3.91h0a6.31,6.31,0,0,0,1.23,1.47h0a15.65,15.65,0,0,0,7.48-3.78l.12-.1h0l.1.09a3.83,3.83,0,0,0,.29.28c-.27,1-1.39,3.68-5.94,4.83a10.27,10.27,0,0,0,2.74.78,8.13,8.13,0,0,0,4.7-4.91,3.08,3.08,0,0,0,.68.07,3.52,3.52,0,0,0,.66-.06,8.14,8.14,0,0,0,4.7,4.9,10.46,10.46,0,0,0,2.75-.78c-3.24-.82-4.74-2.38-5.43-3.6a4.49,4.49,0,0,1-.51-1.22,1.62,1.62,0,0,0,.19-.18,1.8,1.8,0,0,0,.2-.19h0a13.1,13.1,0,0,0,1.4,1.15,15.39,15.39,0,0,0,6.18,2.72,6.08,6.08,0,0,0,1.23-1.48,14.1,14.1,0,0,1-8-3.89A3.34,3.34,0,0,0,38.74,63.67ZM35.26,65.5a1.84,1.84,0,1,1,1.84-1.83A1.83,1.83,0,0,1,35.26,65.5Z"/><path class="cls-2" d="M34.72,55.56c-1.55-.4-4.88-1-6.74.19a2.76,2.76,0,0,0-.66.61h7.4Z"/><path class="cls-2" d="M43.18,56.36a2.58,2.58,0,0,0-.66-.61c-1.85-1.21-5.16-.59-6.72-.2v.81Z"/><path class="cls-2" d="M28.3,58.09a1.23,1.23,0,0,1,.57-1l.07,0-2-.08a3.26,3.26,0,0,0-.25.89,5.43,5.43,0,0,0,0,.56c.58.24,1.18.46,1.79.66A2.06,2.06,0,0,1,28.3,58.09Z"/><path class="cls-2" d="M32.24,59.05a2.1,2.1,0,0,1,.22-.42l-1-1.39a3.74,3.74,0,0,0-.77,1.24,2.87,2.87,0,0,0-.17,1.27c.29.08.57.16.85.22l.87,0A1.38,1.38,0,0,1,32.24,59.05Z"/><path class="cls-2" d="M39,57.19h-.17l-.9,1.28a2.05,2.05,0,0,1,.34.57,1.35,1.35,0,0,1,0,.93h.64L40,59.69a3,3,0,0,0-.18-1.21A3.74,3.74,0,0,0,39,57.19Z"/><path class="cls-2" d="M41.63,57.12a1.23,1.23,0,0,1,.57,1,2.09,2.09,0,0,1-.1.94c.6-.21,1.19-.43,1.75-.66a3.7,3.7,0,0,0,0-.47,3,3,0,0,0-.26-.9l-2,.07Z"/><path class="cls-2" d="M45.41,69.88h0a15.39,15.39,0,0,1-6.18-2.72A15.39,15.39,0,0,0,45.41,69.88Z"/><path class="cls-2" d="M37.94,67.6c.69,1.22,2.19,2.78,5.43,3.6h0C40.13,70.38,38.63,68.82,37.94,67.6Z"/><path class="cls-2" d="M37.82,66a1.8,1.8,0,0,1-.2.19l.21-.19Z"/><path class="cls-2" d="M32.69,66l.1.09-.1-.09Z"/><path class="cls-2" d="M25.09,69.88h0a15.65,15.65,0,0,0,7.48-3.78A15.65,15.65,0,0,1,25.09,69.88Z"/></g></g></g></svg>