<svg xmlns="http://www.w3.org/2000/svg" viewBox="0 0 72.4 71.98"><defs><style>.cls-1,.cls-3{fill-rule:evenodd;}.cls-2,.cls-3{fill:#ffd33b;}.cls-4{fill:#6493b5;}.cls-5{fill:#fff;}</style></defs><g id="Capa_2" data-name="Capa 2"><g id="Version_a_utilizar_segun_espacio" data-name="Version a utilizar segun espacio"><g id="Isotipo"><path class="cls-1" d="M41.39,60.83a1,1,0,0,0,.46-.09,22.08,22.08,0,0,1,4.87-1.65,14.93,14.93,0,0,0,3.14.92c4,.68,6.64.62,10-1.8.85-.62,2.94-2.09,2.89-3.27a.9.9,0,0,0-.15-.55.59.59,0,0,1,.22-.89,11.44,11.44,0,0,0,3.88-3.71c.83-1,3.39-4.19,2.3-5.58a.6.6,0,0,1,0-.79,13.1,13.1,0,0,0,2.43-4.28c.42-1.15,1.27-3.66.87-4.91-.18-.54-.27-.58-.42-.62a.59.59,0,0,1-.45-.74c.64-2.29,2.17-12.19-1.21-10.19-.1.06-.75.72-1.34,1.34a.6.6,0,0,1-1-.36,11.51,11.51,0,0,0-1.27-5,19.9,19.9,0,0,0-1.52-2.39c-1-1.33-5.94-5.67-5.34,1.62.09,1.19.38,2.3.43,3.55a8.17,8.17,0,0,0,.43,2.28.6.6,0,0,1-.72.75c-2.52-.62-1.28,1.1-1.78,3.12-.37,1.5.64,3.62,1.41,4.69a.6.6,0,0,1,0,.62c-.2.39-.45.7-.66,1.16A10.71,10.71,0,0,0,58,39.76a.62.62,0,0,1-.29.62,1,1,0,0,0-.32.31l0,.05-1.65,2.71,0,0c-1.5,3-.78,4.78-1.26,4.9-2.6.64-3.5,2.39-3.5,1.94,0-4.66.28-3.81-1.09-6a23.48,23.48,0,0,1-2.72-6,16.13,16.13,0,0,1,0-6.05,30.16,30.16,0,0,1,2.77-6c1.35-2.13,1.09-1.65,1.09-6V14.77a.6.6,0,0,0-.6-.6H45a.6.6,0,0,0-.6.6v4.85a.6.6,0,0,1-.6.6h-1a.6.6,0,0,1-.6-.6V14.77a.6.6,0,0,0-.6-.6H31.22a.6.6,0,0,0-.6.6v4.85a.6.6,0,0,1-.6.6H29a.6.6,0,0,1-.6-.6V14.77a.6.6,0,0,0-.6-.6H22.47a.6.6,0,0,0-.6.6v5.45c0,4.36-.26,3.84,1.08,6a30.85,30.85,0,0,1,2.76,6,12.94,12.94,0,0,1,0,6,33.4,33.4,0,0,1-2.78,6c-1.34,2.18-1.08,1.36-1.08,6,0,.31-2.07-1.59-3.41-2.15a.58.58,0,0,1-.35-.45c-.42-2.41-2.06-6.32-3.49-7.35a.59.59,0,0,1-.25-.55c.45-3.94-.64-4.87-1.52-7a.62.62,0,0,1,.06-.59c.77-1.07,1.79-3.2,1.42-4.7-.52-2.09.68-3.74-1.77-3.13a.6.6,0,0,1-.72-.75,7,7,0,0,0,.41-2.1c.05-1.33,1.94-10.48-2.72-7.24a7.94,7.94,0,0,0-2.11,1.8c-.31.4-.43.68-.79,1.17a10.5,10.5,0,0,0-.74,1.2,11.63,11.63,0,0,0-1.06,2.84,18.07,18.07,0,0,0-.29,2.3.59.59,0,0,1-1,.33,6.48,6.48,0,0,0-1.42-1.38C-1.25,21.08.38,30.62,1,32.85a.59.59,0,0,1-.3.69c-.42.22-.87.59-.59,2.41A18.37,18.37,0,0,0,.93,39a16.79,16.79,0,0,0,2.51,4.4.6.6,0,0,1,0,.77c-1.06,1.34,1.35,4.42,2.21,5.5,1.08,1.35,2.15,3,3.94,3.8a.61.61,0,0,1,.21.94c-.25.28-.23.74.5,1.79,1.52,2.2,5.78,4.11,8.39,4.22a26.24,26.24,0,0,0,5.45-.78c.44-.12,1.39-.55,1.55-.58a22,22,0,0,1,4.87,1.61,1.13,1.13,0,0,0,.45.09Z"/><g id="Torreon"><rect class="cls-2" x="22.95" y="51.69" width="12.9" height="4.67"/><path class="cls-3" d="M35.85,32.24V27.59h-11a31.71,31.71,0,0,1,1.79,4.65Z"/><rect class="cls-2" x="31.73" y="15.55" width="9.31" height="4.67"/><path class="cls-3" d="M35.85,44.31V39.63H26.24c-.48,1.62-1.35,3-2,4.68Z"/><path class="cls-3" d="M28.44,50.33V45.67H23.52a2.41,2.41,0,0,0-.57.94v3.72Z"/><path class="cls-3" d="M23,24.06c.06.54,1.16,1.91,1.19,2.17h4.3V21.56H23Z"/><path class="cls-3" d="M27.35,20.22l0-4.67H23s0,1.38,0,4.67Z"/><rect class="cls-2" x="45.44" y="15.55" width="4.39" height="4.67"/><path class="cls-3" d="M28.44,38.27V33.62H26.8a14.71,14.71,0,0,1-.18,4.65Z"/><path class="cls-3" d="M46.21,32.24A30.66,30.66,0,0,1,48,27.59H36.93v4.65Z"/><path class="cls-3" d="M48.59,44.32c-.66-1.65-1.54-3.07-2-4.69H36.93v4.68Z"/><rect class="cls-2" x="36.93" y="51.69" width="12.9" height="4.67"/><path class="cls-3" d="M49.84,21.56H44.35v4.67h4.3c0-.26,1.13-1.63,1.19-2.17Z"/><path class="cls-3" d="M46.19,38.27A14.72,14.72,0,0,1,46,33.62H44.35v4.65Z"/><path class="cls-3" d="M49.84,50.33V46.61a2.4,2.4,0,0,0-.55-.94H44.35v4.66Z"/><rect class="cls-2" x="29.58" y="21.56" width="13.64" height="4.67"/><rect class="cls-2" x="29.58" y="45.67" width="13.64" height="4.66"/><rect class="cls-2" x="29.57" y="33.61" width="13.64" height="4.66"/></g><g id="Laurel"><path class="cls-3" d="M21.87,56.36V51a16.16,16.16,0,0,0-4.42-2c-.07,3.86,1.81,5.69,4,7.11Z"/><path class="cls-3" d="M55.2,54.47c1.8,0,7.22-1.62,8.54-2.8.4-.35,5.18-5.88,4.18-6.83-.2-.2-3,1.31-3.59,1.58-5,2.3-3.15,1.16-5,3.5l-2.66,3c-.55.52-1.14.73-1.46,1.54Z"/><path class="cls-3" d="M17.2,54.47c-.28-.73-1.69-1.66-2.76-2.89-3.6-4.12-.59-2.47-6.25-5.1-.61-.29-3.5-1.83-3.71-1.64-1,.91,3.75,6.43,4.09,6.75,1.31,1.22,6.65,2.9,8.63,2.88Z"/><path class="cls-3" d="M61.24,46.67a15.72,15.72,0,0,0,3.84-1.81,10.6,10.6,0,0,0,3.16-2.35c1.43-1.66,3.24-5,3.08-8-.79.15-5.55,4.2-6.32,4.79-1.51,1.14-.15.82-1.58,3.92-1,2.18-1.64,2.33-2.18,3.47Z"/><path class="cls-3" d="M11.17,46.67c-.5-1-2.27-2.58-2.85-5.45-.51-2.47.22-.91-4-4.36-.74-.61-2.58-2.24-3.24-2.37-.16,3,1.64,6.36,3.07,8a19.43,19.43,0,0,0,7,4.16Z"/><path class="cls-3" d="M25.1,57.94c-.86-.57-2.25-.57-3.23-1-5.61-2.49-1.26-1.85-6.7-1.73A24.08,24.08,0,0,1,10.91,55c-.16.56,2.93,3.18,5.69,4a14.1,14.1,0,0,0,6.7-.2c1.17-.24,1.53-.27,1.8-.85Z"/><path class="cls-3" d="M17.63,53.17c-.79-4.27.14-5.28-2.07-9.62-.35-.67-1.12-2.09-1.81-2.34-1.68,1-1.29,5.57-.44,7.24.71,1.39,3,4.47,4.32,4.72Z"/><path class="cls-3" d="M59,48.57c-.71,1.36-3.05,4.36-4.24,4.6l.3-2.23c-.59,1-1.5,4.33-4.16,5.42V51.28A6.36,6.36,0,0,1,55.23,49a13.28,13.28,0,0,1,2.14-6.3c.16-.25.41-.68.55-.87.4-.53.23-.39.74-.57C60.28,42.19,59.91,46.89,59,48.57Z"/><path class="cls-3" d="M7.63,38c0-.7-.9-2.25-.88-4.17,0-2.86.7-1.74-.67-4.21-1-1.72-3.42-5.65-4.63-6.09-.61,1.52,0,7.69.62,9.39.5,1.38,3.82,5.19,5.56,5.08Z"/><path class="cls-3" d="M64.77,38c1.65.09,5-3.62,5.51-5,.69-1.67,1.3-8,.68-9.51-.72.26-.89.65-1.33,1.24a33.75,33.75,0,0,0-3.24,4.73c-1.35,2.42-.82,1.28-.74,4.16s-.88,3.52-.88,4.34Z"/><path class="cls-3" d="M7.36,29.42A7.51,7.51,0,0,0,8.23,28c.64-1.06,1.62-1.22,2.66-4.61a30.68,30.68,0,0,0,.55-4.23,8,8,0,0,0-.13-4.27c-2,0-4.49,3.66-5.19,5.86-.81,2.55-.92,7.49,1.24,8.71Z"/><path class="cls-3" d="M65,29.42c2.53-1.46,2.47-8.56-.68-12.28-.58-.68-2-2.3-3.27-2.29A8.07,8.07,0,0,0,61,19.12c.39,2.85.32,5.15,2.08,7.5.31.41.74.7,1.08,1.22s.44,1.09.92,1.58Z"/><path class="cls-3" d="M47.31,57.73c-.06,1,2.64,1.23,3.81,1.39a9.68,9.68,0,0,0,4.54-.1c2.87-.75,6-3.42,5.84-4-1.58.25-7.11-.19-7.84.21A11.41,11.41,0,0,1,51,56.71a8.58,8.58,0,0,1-3.22.88Z"/><path class="cls-3" d="M11.09,33.3c-.32,1.13-2.34,2.09-1.83,6.28a12.32,12.32,0,0,0,.92,3.31c.49,1.16.88,2.39,1.7,2.67.25-1,.39-1.87.74-2.94,1.61-5,.61-6.06-.71-9.42l-.65-.09c.65-1.87,2.48-3.18,2-5.5a8.2,8.2,0,0,1-.06-2.24c-1.43.1-3.91,2-4.6,4.17-.59,1.85-1.81,5.85-.09,7.39.88-.44,1-2.45,2.06-3.3l.2-.15c.31-.2,0,0,.35-.18Z"/><path class="cls-3" d="M61.15,33.12l-.65.08c-1.27,3.21-2.32,4.41-.76,9.29.37,1.13.52,2.06.79,3.07C62,45,63.91,39,62.86,36c-.44-1.27-1.35-2-1.55-2.71.37.14,0-.06.46.26a2.35,2.35,0,0,1,.44.45c.81,1.09.93,2.53,1.72,2.92,1.68-1.55.54-5.23,0-7.11A5.85,5.85,0,0,0,62.17,27a7.84,7.84,0,0,0-2.94-1.6,7.74,7.74,0,0,1,0,2.09,2.68,2.68,0,0,0,.11,2.16c.49,1.31,1.45,2.39,1.83,3.5Z"/><path class="cls-3" d="M34.56,60l-2-2.8c-1.15-.07-4.55-.23-7.84-.28a27,27,0,0,0,7.77,3Z"/><path class="cls-3" d="M40,60a27.32,27.32,0,0,0,7.77-3c-3.29,0-6.69.21-7.84.27L38,60Z"/></g><g id="Sol"><path class="cls-3" d="M36.37,5.31A14.68,14.68,0,0,1,33,0c-1.16,4.1-.53,5.88-.53,5.88A28.9,28.9,0,0,1,26.9,2.22,13,13,0,0,0,28.31,8a51.19,51.19,0,0,1-6.44-1.6,11.26,11.26,0,0,0,3.19,5.09,34,34,0,0,1-6.51.51c1.79,2.53,3.32,3,3.32,3v-.1a.67.67,0,0,1,.67-.67h2.93l.19-.43a11.62,11.62,0,0,1,3.74-4.3,12.33,12.33,0,0,1,13.67.05,11.45,11.45,0,0,1,2.38,2,9.47,9.47,0,0,1,1.67,2.63h3.16a.65.65,0,0,1,.65.65V15s1.25-.14,3.14-3a41.62,41.62,0,0,1-6.47-.61A10.24,10.24,0,0,0,51,6.69a38.48,38.48,0,0,1-6.72,1.19s1.53-1.71,1.55-5.63C44.08,4,39.88,5.79,39.88,5.79s.6-1.87-.36-5.79a14.57,14.57,0,0,1-3.15,5.31Z"/><path class="cls-3" d="M25.42,14.17h2.39a.63.63,0,0,1,.63.63v5.13a.29.29,0,0,0,.29.29h1.61a.28.28,0,0,0,.28-.29V14.85a.69.69,0,0,1,.68-.68H41.5a.64.64,0,0,1,.64.64v5.12a.28.28,0,0,0,.28.29h1.64a.29.29,0,0,0,.29-.29V14.82a.65.65,0,0,1,.64-.65h2.14a9.73,9.73,0,0,0-1.68-2.63,11.45,11.45,0,0,0-2.38-2A12.33,12.33,0,0,0,29.4,9.44a11.56,11.56,0,0,0-3.73,4.29v0Z"/></g><g id="Moño"><path class="cls-4" d="M39.77,64.51a3.34,3.34,0,0,0,0-1.62,7.78,7.78,0,0,0,4.38-2.21A3.59,3.59,0,0,0,45,57.9a2.85,2.85,0,0,0-1.3-2.15c-2.12-1.38-6.15-.38-7.29,0-1.13-.33-5.16-1.33-7.28,0a2.85,2.85,0,0,0-1.3,2.15,3.59,3.59,0,0,0,.8,2.78A7.81,7.81,0,0,0,33,62.9a3.38,3.38,0,0,0,0,1.59,14.08,14.08,0,0,1-8,3.91h0a6.31,6.31,0,0,0,1.23,1.47A15.7,15.7,0,0,0,33.82,66a4.59,4.59,0,0,0,.39.37c-.27,1-1.39,3.68-5.95,4.83A10.35,10.35,0,0,0,31,72a8.13,8.13,0,0,0,4.7-4.91,3.11,3.11,0,0,0,.69.07,3.68,3.68,0,0,0,.66-.06,8.14,8.14,0,0,0,4.7,4.9,10.46,10.46,0,0,0,2.75-.78c-4.55-1.15-5.67-3.76-5.95-4.82A2.79,2.79,0,0,0,39,66a15.81,15.81,0,0,0,7.6,3.87,6.35,6.35,0,0,0,1.23-1.48,14.1,14.1,0,0,1-8-3.89"/><path class="cls-5" d="M42.77,57.12a1.23,1.23,0,0,1,.57,1,2,2,0,0,1-.44,1.55,4.84,4.84,0,0,1-2.12,1.29,3.1,3.1,0,0,0,.16-2.45,3.76,3.76,0,0,0-1.31-1.74,5.4,5.4,0,0,1,3.14.38"/><path class="cls-5" d="M33.37,59.05c.61-1.65,2.92-1.67,3-1.67h0a4.81,4.81,0,0,1,1.32.22,2.47,2.47,0,0,1,1.7,1.45,2.12,2.12,0,0,1-.7,2,3.43,3.43,0,0,0-2.3-.88,3.47,3.47,0,0,0-2.32.89,2.08,2.08,0,0,1-.71-2"/><path class="cls-5" d="M32,60.94a4.76,4.76,0,0,1-2.12-1.3,2,2,0,0,1-.44-1.55,1.23,1.23,0,0,1,.57-1,4,4,0,0,1,2.08-.43c.34,0,.7,0,1.06.05a3.76,3.76,0,0,0-1.31,1.74A3.05,3.05,0,0,0,32,60.94"/><path class="cls-5" d="M34.56,63.67A1.84,1.84,0,1,1,36.4,65.5a1.84,1.84,0,0,1-1.84-1.83"/><path class="cls-5" d="M46.56,69.88A15.81,15.81,0,0,1,39,66a3.59,3.59,0,0,1-.4.38c.28,1,1.4,3.66,5.95,4.81a8.16,8.16,0,0,0,2.05-1.32"/><path class="cls-5" d="M33.82,66a15.78,15.78,0,0,1-7.61,3.88,8,8,0,0,0,2.05,1.32c4.56-1.15,5.68-3.8,5.95-4.83a4.59,4.59,0,0,1-.39-.37"/></g></g></g></g></svg>