<svg xmlns="http://www.w3.org/2000/svg" viewBox="0 0 814 153.67"><defs><style>.cls-1,.cls-3{fill-rule:evenodd;}.cls-2,.cls-3{fill:#ffd33b;}.cls-4{fill:#6493b5;}.cls-5{fill:#fff;}</style></defs><g id="Capa_2" data-name="Capa 2"><g id="Isologo_Color" data-name="Isologo Color"><g id="Isologo_color-2" data-name="Isologo color"><g id="Torreon"><path class="cls-1" d="M87.39,130a2.53,2.53,0,0,0,1-.2c3.43-1.5,9.23-3.65,10.27-3.5a32.45,32.45,0,0,0,6.63,2c8.36,1.43,14,1.31,21-3.81,1.79-1.32,6.2-4.41,6.1-6.91a2.08,2.08,0,0,0-.31-1.17,1.25,1.25,0,0,1,.47-1.88c3.73-1.74,6-5.09,8.18-7.84,1.75-2.21,7.16-8.85,4.85-11.8a1.27,1.27,0,0,1,.12-1.67c2-2,3.93-5.78,5.12-9,.9-2.44,2.69-7.75,1.83-10.39-.36-1.13-.56-1.23-.87-1.3a1.26,1.26,0,0,1-1-1.58c1.36-4.84,4.6-25.76-2.55-21.53-.21.12-1.59,1.52-2.82,2.84a1.26,1.26,0,0,1-2.18-.77,24.48,24.48,0,0,0-2.69-10.59,41.75,41.75,0,0,0-3.2-5.06c-2-2.81-12.55-12-11.29,3.43.21,2.51.82,4.85.91,7.5a16.91,16.91,0,0,0,.92,4.82,1.27,1.27,0,0,1-1.52,1.58c-5.32-1.3-2.71,2.33-3.76,6.61-.79,3.16,1.35,7.64,3,9.92a1.24,1.24,0,0,1,.09,1.3c-.43.82-1,1.48-1.39,2.45a22.65,22.65,0,0,0-1.8,12.08,1.27,1.27,0,0,1-.62,1.3,2.25,2.25,0,0,0-.67.67.41.41,0,0,0-.07.11l-3.5,5.71-.06.1c-3.16,6.36-1.64,10.1-2.65,10.35-5.5,1.35-7.41,5.05-7.41,4.1,0-9.85.6-8.06-2.3-12.72-1.4-2.25-5.08-9-5.73-12.76-.62-3.57-1.09-8.66-.11-12.8.79-3.31,4.42-10.42,5.84-12.66,2.86-4.51,2.3-3.49,2.3-12.72V32.63a1.25,1.25,0,0,0-1.26-1.26H94.91a1.26,1.26,0,0,0-1.27,1.26V42.88a1.27,1.27,0,0,1-1.27,1.27H90.24A1.27,1.27,0,0,1,89,42.88V32.63a1.25,1.25,0,0,0-1.26-1.26H65.93a1.26,1.26,0,0,0-1.27,1.26V42.88a1.27,1.27,0,0,1-1.27,1.27H61.33a1.27,1.27,0,0,1-1.27-1.27V32.63a1.26,1.26,0,0,0-1.27-1.26H47.45a1.26,1.26,0,0,0-1.27,1.26V44.15c0,9.23-.55,8.12,2.29,12.72a65.59,65.59,0,0,1,5.81,12.7,27.12,27.12,0,0,1,0,12.76c-.92,3.56-4.66,10.81-5.86,12.76-2.84,4.6-2.29,2.87-2.29,12.72,0,.66-4.38-3.36-7.2-4.54a1.24,1.24,0,0,1-.75-1c-.87-5.1-4.34-13.37-7.36-15.54a1.25,1.25,0,0,1-.52-1.16c.95-8.33-1.36-10.31-3.22-14.73a1.26,1.26,0,0,1,.14-1.24c1.63-2.26,3.76-6.77,3-9.93-1.1-4.43,1.44-7.9-3.73-6.62A1.26,1.26,0,0,1,25,51.51a15,15,0,0,0,.87-4.45C26,44.27,30,24.91,20.12,31.77a16.41,16.41,0,0,0-4.45,3.79C15,36.43,14.76,37,14,38.05a21,21,0,0,0-1.58,2.53,26.12,26.12,0,0,0-2.24,6,38.48,38.48,0,0,0-.6,4.88,1.26,1.26,0,0,1-2.23.7,13.49,13.49,0,0,0-3-2.94c-7-3.26-3.57,16.93-2.3,21.64a1.27,1.27,0,0,1-.64,1.45c-.9.48-1.85,1.26-1.26,5.1A38.79,38.79,0,0,0,2,83.9a35.17,35.17,0,0,0,5.29,9.3,1.27,1.27,0,0,1,.06,1.64c-2.24,2.82,2.85,9.33,4.67,11.62,2.29,2.86,4.54,6.28,8.32,8a1.27,1.27,0,0,1,.44,2c-.53.59-.47,1.57,1.06,3.79C25,124.92,34,129,39.53,129.19A56.54,56.54,0,0,0,51,127.54c.93-.26,2.92-1.16,3.27-1.23.94-.2,6.73,1.89,10.28,3.4a2.38,2.38,0,0,0,1,.2Z"/><g id="Torreon-2" data-name="Torreon"><rect class="cls-2" x="48.47" y="110.68" width="27.23" height="9.88"/><path class="cls-3" d="M75.7,69.57V59.74H52.36a66,66,0,0,1,3.79,9.83Z"/><rect class="cls-2" x="67" y="34.28" width="19.66" height="9.86"/><path class="cls-3" d="M75.7,95.09V85.18H55.4c-1,3.43-2.85,6.42-4.26,9.91Z"/><path class="cls-3" d="M60.06,107.81V98H49.65a5,5,0,0,0-1.18,2v7.86Z"/><path class="cls-3" d="M48.47,52.26c.12,1.15,2.44,4.06,2.5,4.61h9.09V47H48.47Z"/><path class="cls-3" d="M57.75,44.16l0-9.88H48.47s0,2.91,0,9.87Z"/><rect class="cls-2" x="95.95" y="34.28" width="9.28" height="9.86"/><path class="cls-3" d="M60.06,82.33V72.49H56.59a31.68,31.68,0,0,1-.37,9.84Z"/><path class="cls-3" d="M97.57,69.57a65,65,0,0,1,3.8-9.83H78v9.83Z"/><path class="cls-3" d="M102.61,95.11c-1.41-3.5-3.27-6.49-4.26-9.91L78,85.18v9.91Z"/><rect class="cls-2" x="77.98" y="110.68" width="27.25" height="9.88"/><path class="cls-3" d="M105.24,47H93.64v9.88h9.09c.07-.55,2.38-3.46,2.51-4.61Z"/><path class="cls-3" d="M97.53,82.32a31.09,31.09,0,0,1-.37-9.84H93.64v9.84Z"/><path class="cls-3" d="M105.23,107.81V99.94a4.81,4.81,0,0,0-1.15-2H93.64v9.85Z"/><rect class="cls-2" x="62.46" y="46.99" width="28.81" height="9.88"/><rect class="cls-2" x="62.46" y="97.96" width="28.81" height="9.85"/><rect class="cls-2" x="62.44" y="72.46" width="28.81" height="9.85"/></g><g id="Laurel"><path class="cls-3" d="M46.18,120.56V109.2c-2.84-1.43-5.33-3.41-9.34-4.24-.15,8.16,3.83,12,8.52,15Z"/><path class="cls-3" d="M116.56,116.56c3.79,0,15.24-3.42,18-5.92.84-.73,10.95-12.42,8.83-14.43-.44-.42-6.35,2.77-7.58,3.33-10.49,4.88-6.66,2.47-10.58,7.41l-5.62,6.35c-1.17,1.1-2.41,1.55-3.08,3.26Z"/><path class="cls-3" d="M36.32,116.56c-.6-1.53-3.58-3.51-5.83-6.09-7.61-8.73-1.25-5.24-13.19-10.8-1.29-.61-7.41-3.88-7.84-3.46-2,1.93,7.91,13.58,8.64,14.26,2.75,2.59,14,6.14,18.22,6.09Z"/><path class="cls-3" d="M129.3,100.08c2.44-.48,6.11-2.67,8.12-3.84,2.86-1.67,4.69-2.67,6.66-5,3-3.52,6.85-10.55,6.51-17-1.66.31-11.7,8.87-13.34,10.12-3.2,2.41-.33,1.74-3.34,8.29-2.13,4.61-3.45,4.93-4.61,7.34Z"/><path class="cls-3" d="M23.58,100.08c-1-2.15-4.79-5.46-6-11.53-1.06-5.22.47-1.92-8.4-9.22C7.6,78,3.72,74.6,2.32,74.33,2,80.74,5.79,87.77,8.8,91.29c2.55,3,11.4,8.12,14.78,8.79Z"/><path class="cls-3" d="M53,123.9c-1.82-1.19-4.74-1.21-6.83-2.14-11.83-5.27-2.65-3.9-14.13-3.64a52.59,52.59,0,0,1-9-.35c-.35,1.18,6.18,6.73,12,8.34,4.7,1.3,9.28.58,14.13-.41,2.47-.51,3.24-.57,3.81-1.8Z"/><path class="cls-3" d="M37.23,113.81c-1.66-9,.3-11.16-4.38-20.32-.72-1.42-2.35-4.42-3.81-4.95-3.56,2.09-2.73,11.78-.93,15.3,1.5,2.93,6.34,9.45,9.12,10Z"/><path class="cls-3" d="M124.65,104.08c-1.51,2.88-6.44,9.23-9,9.74l.64-4.72c-1.24,2.2-3.18,9.15-8.8,11.46V109.82c2.41-2.41,4.08-4.2,9.09-4.93a28,28,0,0,1,4.52-13.31c.34-.54.87-1.44,1.16-1.84.84-1.12.48-.82,1.56-1.2C127.28,90.6,126.51,100.55,124.65,104.08Z"/><path class="cls-3" d="M16.11,81.75c0-1.48-1.89-4.76-1.85-8.82.06-6.05,1.48-3.68-1.42-8.9-2-3.65-7.23-12-9.78-12.87C1.77,54.37,3.09,67.42,4.37,71c1.06,2.92,8.07,11,11.74,10.75Z"/><path class="cls-3" d="M136.77,81.75c3.48.19,10.49-7.67,11.64-10.49,1.44-3.52,2.72-16.85,1.41-20.1-1.51.54-1.87,1.36-2.79,2.61-2.83,3.8-4.09,5.09-6.84,10-2.87,5.1-1.74,2.7-1.57,8.78s-1.86,7.45-1.85,9.19Z"/><path class="cls-3" d="M15.55,63.6a16.07,16.07,0,0,0,1.83-3.08c1.34-2.25,3.42-2.58,5.61-9.76.77-2.5.79-6.09,1.18-8.93.5-3.61.83-5.9-.28-9-4.29,0-9.49,7.76-11,12.4C11.21,50.58,11,61,15.55,63.6Z"/><path class="cls-3" d="M137.34,63.6c5.33-3.08,5.21-18.1-1.45-25.95-1.23-1.44-4.15-4.87-6.89-4.86-1.12,3.13-.78,5.43-.28,9,.83,6,.67,10.89,4.38,15.85.66.88,1.57,1.49,2.3,2.57s.93,2.32,1.94,3.35Z"/><path class="cls-3" d="M99.89,123.47c-.13,2.13,5.57,2.59,8,2.93,3.75.54,5.9.76,9.6-.21,6-1.58,12.64-7.24,12.31-8.42-3.34.52-15-.39-16.54.45-2.16,1.17-.76,1-5.55,3.08a17.92,17.92,0,0,1-6.78,1.85Z"/><path class="cls-3" d="M23.43,71.8c-.68,2.4-4.95,4.42-3.87,13.29a25.89,25.89,0,0,0,1.94,7c1,2.44,1.84,5,3.58,5.64.54-2,.83-4,1.57-6.21C30,80.93,27.93,78.71,25.14,71.6l-1.37-.19c1.37-4,5.25-6.73,4.17-11.64-.56-2.54,0-2.63-.12-4.73-3,.21-8.26,4.26-9.72,8.82-1.24,3.91-3.82,12.36-.2,15.63,1.86-.94,2.22-5.19,4.35-7,.08-.07.34-.26.43-.32.65-.43,0-.1.75-.39Z"/><path class="cls-3" d="M129.12,71.42l-1.38.17c-2.67,6.79-4.88,9.32-1.59,19.65.76,2.38,1.08,4.36,1.66,6.49C130.9,96.62,135,84,132.73,77.55c-.93-2.69-2.86-4.28-3.26-5.74.76.29.06-.14,1,.54a4.89,4.89,0,0,1,.92,1c1.71,2.32,2,5.37,3.64,6.19,3.55-3.28,1.14-11.06-.06-15a12.48,12.48,0,0,0-3.66-6c-1-.82-4.37-3.24-6.2-3.39-.09,1.93.44,2.15,0,4.44-.46,2.1-.59,2.42.23,4.57,1,2.76,3.06,5,3.87,7.38Z"/><path class="cls-3" d="M73,128.28l-4.19-5.92c-2.43-.14-9.6-.49-16.55-.59,3.44,2.44,10.78,5.07,16.4,6.43Z"/><path class="cls-3" d="M84.53,128.19c5.62-1.36,13-4,16.4-6.43-7,.1-14.12.44-16.55.59l-4.19,5.91Z"/></g><g id="Sol"><path class="cls-3" d="M76.79,12.63s-5.26-5.19-7.07-11.2c-2.44,8.66-1.12,12.43-1.12,12.43S61.2,10.18,56.8,6.1c.54,8.38,3,12.19,3,12.19a108.9,108.9,0,0,1-13.6-3.39c1.6,6.32,6.74,10.76,6.74,10.76a72.69,72.69,0,0,1-13.74,1.08c3.77,5.34,7,6.26,7,6.26v-.23a1.4,1.4,0,0,1,1.41-1.4h6.19l.41-.91a24.43,24.43,0,0,1,7.9-9.1c8.59-5.73,20.76-5.82,28.85.11a23.81,23.81,0,0,1,5,4.34,19.7,19.7,0,0,1,3.54,5.56h6.67a1.36,1.36,0,0,1,1.36,1.36v.36s2.65-.3,6.63-6.33a87.51,87.51,0,0,1-13.65-1.29s5.7-4.3,7.18-9.93c-5,1.71-14.2,2.52-14.2,2.52s3.23-3.62,3.29-11.89c-3.69,3.64-12.56,7.47-12.56,7.47s1.26-3.94-.77-12.23a30.73,30.73,0,0,1-6.66,11.22Z"/><path class="cls-3" d="M53.67,31.37h5a1.33,1.33,0,0,1,1.34,1.33V43.55a.6.6,0,0,0,.6.6h3.4a.6.6,0,0,0,.6-.6V32.8a1.43,1.43,0,0,1,1.44-1.43H87.63A1.34,1.34,0,0,1,89,32.71V43.55a.6.6,0,0,0,.6.6H93a.6.6,0,0,0,.6-.6V32.73A1.36,1.36,0,0,1,95,31.37h4.51A20,20,0,0,0,96,25.81a23.81,23.81,0,0,0-5-4.34c-8.09-5.93-20.26-5.84-28.85-.11a24.42,24.42,0,0,0-7.89,9.08l0,0Z"/></g><g id="Moño"><path class="cls-4" d="M84,137.8a7.47,7.47,0,0,0,0-3.43c2.62-.53,6.88-1.79,9.24-4.67a7.59,7.59,0,0,0,1.7-5.87,6.05,6.05,0,0,0-2.76-4.56c-4.47-2.92-13-.8-15.37-.11-2.41-.69-10.91-2.81-15.38.11a6.05,6.05,0,0,0-2.76,4.56,7.59,7.59,0,0,0,1.71,5.87c2.37,2.9,6.67,4.16,9.29,4.68a7.34,7.34,0,0,0-.18,1.63,7.15,7.15,0,0,0,.21,1.74,29.8,29.8,0,0,1-17,8.28h0a13,13,0,0,0,2.59,3.11,33.17,33.17,0,0,0,16.07-8.2,7.66,7.66,0,0,0,.83.78c-.57,2.17-2.93,7.78-12.57,10.21a21.5,21.5,0,0,0,5.8,1.65c6.71-3,9.1-7.67,9.94-10.37a6.9,6.9,0,0,0,1.44.15,7.23,7.23,0,0,0,1.4-.14c.84,2.7,3.24,7.33,9.93,10.36a21.5,21.5,0,0,0,5.8-1.65c-9.6-2.42-12-8-12.56-10.17a7.1,7.1,0,0,0,.85-.79,33.26,33.26,0,0,0,16,8.17A12.94,12.94,0,0,0,100.9,146,29.86,29.86,0,0,1,84,137.8"/><path class="cls-5" d="M90.31,122.17a2.59,2.59,0,0,1,1.2,2,4.19,4.19,0,0,1-.93,3.29,10.2,10.2,0,0,1-4.48,2.73,6.5,6.5,0,0,0,.35-5.18,7.93,7.93,0,0,0-2.78-3.68c2.63-.26,5.2-.14,6.64.8"/><path class="cls-5" d="M70.46,126.25c1.29-3.49,6.17-3.54,6.36-3.54h0a10.6,10.6,0,0,1,2.79.47,5.22,5.22,0,0,1,3.59,3.07c.58,1.58-.53,3.22-1.48,4.26a7.33,7.33,0,0,0-9.77,0c-1-1-2.09-2.68-1.49-4.29"/><path class="cls-5" d="M67.55,130.24a10.14,10.14,0,0,1-4.47-2.74,4.18,4.18,0,0,1-.94-3.29,2.59,2.59,0,0,1,1.2-2,8.33,8.33,0,0,1,4.39-.92c.73,0,1.49,0,2.25.11a7.88,7.88,0,0,0-2.77,3.69,6.46,6.46,0,0,0,.34,5.19"/><path class="cls-5" d="M73,136a3.88,3.88,0,1,1,3.88,3.88A3.88,3.88,0,0,1,73,136"/><path class="cls-5" d="M98.31,149.14a33.26,33.26,0,0,1-16-8.17,7.1,7.1,0,0,1-.85.79c.58,2.22,3,7.75,12.56,10.17a17,17,0,0,0,4.33-2.79"/><path class="cls-5" d="M71.41,140.94a33.17,33.17,0,0,1-16.07,8.2,17,17,0,0,0,4.33,2.79c9.64-2.43,12-8,12.57-10.21a7.66,7.66,0,0,1-.83-.78"/></g></g><path d="M213.14,23.21H198.8V34.39h16V40.1h-23V2H214V7.74H198.8v9.82h14.34Z"/><path d="M220.54,33.66a15.09,15.09,0,0,0,7,2c3,0,4.4-1.3,4.4-3.1s-1.13-2.77-4.52-4c-5.36-1.81-7.56-4.75-7.56-8,0-4.86,4-8.59,10.39-8.59a15.91,15.91,0,0,1,7.34,1.64l-1.41,4.86a12.14,12.14,0,0,0-5.82-1.58c-2.49,0-3.84,1.24-3.84,2.93s1.3,2.54,4.8,3.84c5,1.75,7.28,4.3,7.34,8.36,0,5-3.9,8.64-11.18,8.64a17.74,17.74,0,0,1-8.36-1.92Z"/><path d="M264.59,39.25a20,20,0,0,1-7.79,1.41c-8.58,0-14.17-5.53-14.17-14.06,0-8.25,5.64-14.63,15.3-14.63a18.69,18.69,0,0,1,6.72,1.24l-1.24,5.26a11.37,11.37,0,0,0-5.25-1.08c-5.31,0-8.48,3.9-8.42,8.93,0,5.64,3.67,8.86,8.42,8.86a13.66,13.66,0,0,0,5.47-1.07Z"/><path d="M294.36,31.85c0,3.28.11,6,.22,8.25h-6L288.2,36H288a10,10,0,0,1-8.86,4.75c-5,0-9.55-3-9.55-12V12.59h6.95v15c0,4.57,1.47,7.51,5.14,7.51A5.66,5.66,0,0,0,287,31.34a5,5,0,0,0,.39-2.14V12.59h6.95Z"/><path d="M306.78,28.29c.17,5,4,7.12,8.47,7.12a22.31,22.31,0,0,0,7.63-1.24l1,4.74a24.6,24.6,0,0,1-9.6,1.75c-8.92,0-14.17-5.48-14.17-13.89,0-7.63,4.63-14.8,13.44-14.8s11.86,7.34,11.86,13.39a16.21,16.21,0,0,1-.23,2.93Zm12.09-4.85c.05-2.54-1.08-6.72-5.71-6.72-4.29,0-6.1,3.89-6.38,6.72Z"/><path d="M331,0H338V40.1H331Z"/><path d="M366.87,33.49a38.07,38.07,0,0,0,.45,6.61h-6.26l-.51-3.05h-.17a10.07,10.07,0,0,1-8.13,3.67c-5.54,0-8.65-4-8.65-8.19,0-6.89,6.16-10.45,16.33-10.39v-.45c0-1.81-.74-4.8-5.59-4.8a14.5,14.5,0,0,0-7.4,2l-1.36-4.52A19.82,19.82,0,0,1,355.52,12c8.81,0,11.35,5.59,11.35,11.64Zm-6.77-6.83c-4.92-.06-9.61,1-9.61,5.14a3.65,3.65,0,0,0,4,3.95A5.71,5.71,0,0,0,359.93,32a4.62,4.62,0,0,0,.17-1.52Z"/><path d="M191.85,59a61.42,61.42,0,0,1,10.62-.79c5.08,0,8.75,1.07,11.18,3.1a10.77,10.77,0,0,1,3.73,8.42,11.58,11.58,0,0,1-3.22,8.58c-2.82,2.77-7.12,4.13-12,4.13a14.92,14.92,0,0,1-3.39-.29V96.58h-6.89Zm6.89,17.68a11.76,11.76,0,0,0,3.39.33c5.2,0,8.36-2.59,8.36-7,0-4.23-2.94-6.44-7.74-6.44a19.18,19.18,0,0,0-4,.34Z"/><path d="M226.64,84.77c.17,5,4,7.12,8.47,7.12a22.31,22.31,0,0,0,7.63-1.24l1,4.74a24.6,24.6,0,0,1-9.6,1.75c-8.92,0-14.17-5.48-14.17-13.89,0-7.63,4.63-14.8,13.44-14.8s11.86,7.34,11.86,13.39a16.3,16.3,0,0,1-.23,2.93Zm12.09-4.86c.05-2.54-1.07-6.72-5.71-6.72-4.29,0-6.09,3.9-6.38,6.72Z"/><path d="M250.87,77.26c0-3.16-.11-5.82-.22-8.19h6l.34,4.12h.17A10.1,10.1,0,0,1,266,68.45c4.8,0,9.77,3.11,9.77,11.8V96.58h-6.95V81c0-4-1.47-6.94-5.25-6.94a5.81,5.81,0,0,0-5.42,4.06,6.42,6.42,0,0,0-.34,2.21V96.58h-6.95Z"/><path d="M290.57,61.39a3.9,3.9,0,1,1-3.89-3.78A3.71,3.71,0,0,1,290.57,61.39Zm-7.39,35.19V69.07h6.94V96.58Z"/><path d="M305.6,62v7.06h6.6v5.2h-6.6V86.41c0,3.39.9,5.08,3.56,5.08a8.93,8.93,0,0,0,2.71-.28l.11,5.25a15.11,15.11,0,0,1-5,.74,7.94,7.94,0,0,1-6-2.26c-1.53-1.58-2.21-4.13-2.21-7.74V74.27h-3.89v-5.2h3.89V63.93Z"/><path d="M322,84.77c.17,5,4,7.12,8.47,7.12a22.31,22.31,0,0,0,7.63-1.24l1,4.74a24.6,24.6,0,0,1-9.6,1.75c-8.92,0-14.17-5.48-14.17-13.89,0-7.63,4.63-14.8,13.44-14.8s11.86,7.34,11.86,13.39a16.3,16.3,0,0,1-.23,2.93Zm12.09-4.86c.05-2.54-1.07-6.72-5.71-6.72-4.29,0-6.1,3.9-6.38,6.72Z"/><path d="M346.26,77.26c0-3.16-.11-5.82-.22-8.19h6l.34,4.12h.17a10.1,10.1,0,0,1,8.81-4.74c4.8,0,9.77,3.11,9.77,11.8V96.58h-6.95V81c0-4-1.47-6.94-5.25-6.94a5.81,5.81,0,0,0-5.42,4.06,6.42,6.42,0,0,0-.34,2.21V96.58h-6.95Z"/><path d="M398.78,95.73A20,20,0,0,1,391,97.14c-8.58,0-14.17-5.53-14.17-14.06,0-8.25,5.64-14.63,15.3-14.63a18.69,18.69,0,0,1,6.72,1.24l-1.24,5.25a11.52,11.52,0,0,0-5.25-1.07c-5.31,0-8.48,3.9-8.42,8.93,0,5.64,3.67,8.86,8.42,8.86a13.84,13.84,0,0,0,5.47-1.07Z"/><path d="M411.32,61.39a3.9,3.9,0,1,1-3.89-3.78A3.71,3.71,0,0,1,411.32,61.39Zm-7.4,35.19V69.07h6.95V96.58Z"/><path d="M439.73,90a37.11,37.11,0,0,0,.45,6.61h-6.27l-.51-3h-.17a10,10,0,0,1-8.13,3.67c-5.53,0-8.64-4-8.64-8.19,0-6.89,6.16-10.45,16.32-10.39v-.46c0-1.8-.73-4.8-5.59-4.8a14.56,14.56,0,0,0-7.4,2l-1.35-4.52a19.82,19.82,0,0,1,9.94-2.43c8.81,0,11.35,5.59,11.35,11.63ZM433,83.13c-4.91,0-9.6,1-9.6,5.14a3.65,3.65,0,0,0,3.95,4,5.69,5.69,0,0,0,5.48-3.79,4.65,4.65,0,0,0,.17-1.52Z"/><path d="M447.07,77.94c0-3.73-.05-6.44-.22-8.87h6l.29,5.2h.16a8.24,8.24,0,0,1,7.57-5.82,7.45,7.45,0,0,1,1.64.17v6.49a11.38,11.38,0,0,0-2.09-.17,6.11,6.11,0,0,0-6.21,5.26,12.28,12.28,0,0,0-.17,2.09V96.58h-6.95Z"/><path d="M474.58,61.39a3.9,3.9,0,1,1-3.9-3.78A3.72,3.72,0,0,1,474.58,61.39Zm-7.4,35.19V69.07h6.94V96.58Z"/><path d="M503,90a37,37,0,0,0,.46,6.61h-6.27l-.51-3h-.17a10.07,10.07,0,0,1-8.13,3.67c-5.54,0-8.64-4-8.64-8.19,0-6.89,6.15-10.45,16.32-10.39v-.46c0-1.8-.74-4.8-5.59-4.8a14.5,14.5,0,0,0-7.4,2l-1.36-4.52a19.85,19.85,0,0,1,9.94-2.43C500.44,68.45,503,74,503,80.08Zm-6.77-6.84c-4.92,0-9.6,1-9.6,5.14a3.65,3.65,0,0,0,3.95,4A5.71,5.71,0,0,0,496,88.44a4.65,4.65,0,0,0,.17-1.52Z"/><path d="M547.37,56.48V88.84c0,2.82.12,5.87.23,7.74h-6.16l-.34-4.35H541a9.87,9.87,0,0,1-8.92,5c-6.61,0-11.8-5.59-11.8-14.07-.06-9.2,5.7-14.68,12.31-14.68,3.78,0,6.49,1.53,7.73,3.56h.12V56.48Zm-6.94,24.06a10.75,10.75,0,0,0-.17-1.87,6.1,6.1,0,0,0-6-4.85c-4.46,0-6.95,4-6.95,9s2.49,8.76,6.89,8.76a6.14,6.14,0,0,0,6-4.92,7.7,7.7,0,0,0,.23-2Z"/><path d="M559.74,84.77c.17,5,4,7.12,8.47,7.12a22.31,22.31,0,0,0,7.63-1.24l1,4.74a24.6,24.6,0,0,1-9.6,1.75c-8.92,0-14.17-5.48-14.17-13.89,0-7.63,4.63-14.8,13.44-14.8s11.86,7.34,11.86,13.39a16.3,16.3,0,0,1-.23,2.93Zm12.09-4.86c0-2.54-1.07-6.72-5.71-6.72-4.29,0-6.09,3.9-6.38,6.72Z"/><path d="M595.66,56.48h7v40.1h-7Z"/><path d="M631.52,90a37,37,0,0,0,.46,6.61h-6.27l-.51-3H625a10.07,10.07,0,0,1-8.13,3.67c-5.54,0-8.64-4-8.64-8.19,0-6.89,6.15-10.45,16.32-10.39v-.46c0-1.8-.74-4.8-5.59-4.8a14.5,14.5,0,0,0-7.4,2l-1.36-4.52a19.85,19.85,0,0,1,9.94-2.43c8.81,0,11.35,5.59,11.35,11.63Zm-6.77-6.84c-4.92,0-9.6,1-9.6,5.14a3.65,3.65,0,0,0,4,4,5.71,5.71,0,0,0,5.48-3.79,4.65,4.65,0,0,0,.17-1.52Z"/><path d="M650.78,96.58V58.51h8l9.82,16.32a112.33,112.33,0,0,1,6.5,12.77h.11a155.17,155.17,0,0,1-.62-15.82V58.51H681V96.58h-7.23L663.83,79.8a130.36,130.36,0,0,1-6.78-13.1l-.23.06c.29,4.91.4,9.94.4,16.2V96.58Z"/><path d="M710.08,90a38.07,38.07,0,0,0,.45,6.61h-6.26l-.51-3h-.17a10.07,10.07,0,0,1-8.13,3.67c-5.54,0-8.65-4-8.65-8.19,0-6.89,6.16-10.45,16.33-10.39v-.46c0-1.8-.74-4.8-5.6-4.8a14.49,14.49,0,0,0-7.39,2l-1.36-4.52a19.82,19.82,0,0,1,9.94-2.43c8.81,0,11.35,5.59,11.35,11.63Zm-6.77-6.84c-4.92,0-9.61,1-9.61,5.14a3.66,3.66,0,0,0,4,4,5.71,5.71,0,0,0,5.48-3.79,4.65,4.65,0,0,0,.17-1.52Z"/><path d="M737.64,95.73a20,20,0,0,1-7.79,1.41c-8.58,0-14.18-5.53-14.18-14.06,0-8.25,5.65-14.63,15.31-14.63a18.69,18.69,0,0,1,6.72,1.24l-1.24,5.25a11.52,11.52,0,0,0-5.25-1.07c-5.31,0-8.48,3.9-8.42,8.93,0,5.64,3.67,8.86,8.42,8.86a13.84,13.84,0,0,0,5.47-1.07Z"/><path d="M750.18,61.39a3.9,3.9,0,1,1-3.9-3.78A3.71,3.71,0,0,1,750.18,61.39Zm-7.4,35.19V69.07h7V96.58Z"/><path d="M783.39,82.57c0,10.11-7.12,14.63-14.12,14.63-7.74,0-13.78-5.31-13.78-14.18,0-9,5.93-14.57,14.23-14.57S783.39,74.21,783.39,82.57Zm-20.73.28c0,5.31,2.66,9.32,6.84,9.32,4,0,6.72-3.84,6.72-9.43,0-4.29-1.92-9.26-6.67-9.26C764.64,73.48,762.66,78.28,762.66,82.85Zm15-25.69-6.89,8.35H766l4.92-8.35Z"/><path d="M789.09,77.26c0-3.16-.11-5.82-.22-8.19h6l.34,4.12h.17a10.11,10.11,0,0,1,8.81-4.74c4.8,0,9.77,3.11,9.77,11.8V96.58h-7V81c0-4-1.46-6.94-5.25-6.94a5.81,5.81,0,0,0-5.42,4.06,6.42,6.42,0,0,0-.34,2.21V96.58h-6.95Z"/><path d="M192.14,115.55a62.86,62.86,0,0,1,10.44-.84c7.06,0,12.09,1.69,15.42,4.74s5.42,7.51,5.42,13.67-2,11.29-5.48,14.79-9.48,5.48-16.88,5.48a79,79,0,0,1-8.92-.45Zm4.91,33.66a40.62,40.62,0,0,0,5,.23c10.56,0,16.21-5.87,16.21-16.15.05-9-5-14.69-15.42-14.69a28.08,28.08,0,0,0-5.76.51Z"/><path d="M229.58,134.25c0-3.22-.06-6-.23-8.53h4.35l.23,5.42h.17c1.24-3.67,4.29-6,7.62-6a9.69,9.69,0,0,1,1.36.12V130a8,8,0,0,0-1.7-.11c-3.5,0-6,2.6-6.66,6.33a15.09,15.09,0,0,0-.17,2.31v14.57h-5Z"/><path d="M243.87,150.12a3.37,3.37,0,0,1,3.39-3.56,3.3,3.3,0,0,1,3.33,3.56,3.35,3.35,0,0,1-3.45,3.55A3.31,3.31,0,0,1,243.87,150.12Z"/><path d="M276.62,115h5v25.47c0,10.11-5,13.21-11.52,13.21a15.37,15.37,0,0,1-5.25-.9l.68-4a11.67,11.67,0,0,0,4.18.73c4.4,0,6.94-2,6.94-9.43Z"/><path d="M312.49,145.54c0,2.88.05,5.37.22,7.51h-4.4l-.29-4.46h-.11a10.21,10.21,0,0,1-9,5.08c-4.3,0-9.44-2.42-9.44-12v-16h5V140.8c0,5.19,1.64,8.75,6.1,8.75a7.13,7.13,0,0,0,6.55-4.57,6.66,6.66,0,0,0,.46-2.54V125.72h5Z"/><path d="M339.93,146.5a46.13,46.13,0,0,0,.4,6.55h-4.46l-.4-3.44h-.17a10.19,10.19,0,0,1-8.36,4.06c-5.53,0-8.35-3.89-8.35-7.85,0-6.6,5.87-10.22,16.43-10.16v-.57c0-2.2-.62-6.32-6.21-6.27a13.15,13.15,0,0,0-7.17,2l-1.13-3.33a17.61,17.61,0,0,1,9-2.38c8.36,0,10.39,5.71,10.39,11.13Zm-4.8-7.4c-5.42-.11-11.57.85-11.57,6.16a4.35,4.35,0,0,0,4.63,4.74,6.91,6.91,0,0,0,6.72-4.57,5.59,5.59,0,0,0,.22-1.58Z"/><path d="M348,133.12c0-2.88-.05-5.14-.22-7.4h4.4l.29,4.52h.11a10.12,10.12,0,0,1,9-5.09c3.79,0,9.66,2.26,9.66,11.64v16.26h-5V137.3c0-4.41-1.64-8.08-6.32-8.08a7.19,7.19,0,0,0-6.67,5.08,7.32,7.32,0,0,0-.34,2.32v16.43h-5Z"/><path d="M399.18,115h5v25.47c0,10.11-5,13.21-11.52,13.21a15.39,15.39,0,0,1-5.26-.9l.68-4a11.75,11.75,0,0,0,4.18.73c4.41,0,6.95-2,6.95-9.43Z"/><path d="M436.9,139.16c0,10.11-7.06,14.51-13.61,14.51-7.34,0-13.1-5.42-13.1-14.06,0-9.09,6-14.46,13.56-14.46C431.6,125.15,436.9,130.86,436.9,139.16Zm-21.63.28c0,6,3.39,10.51,8.25,10.51s8.3-4.46,8.3-10.62c0-4.63-2.31-10.45-8.19-10.45S415.27,134.3,415.27,139.44Z"/><path d="M442.5,148a14,14,0,0,0,6.6,1.92c3.56,0,5.26-1.75,5.26-4.07s-1.42-3.61-5-5c-5-1.81-7.29-4.46-7.29-7.74,0-4.4,3.62-8,9.44-8a12.69,12.69,0,0,1,6.66,1.7L457,130.46a10.56,10.56,0,0,0-5.59-1.64c-2.93,0-4.51,1.7-4.51,3.73,0,2.26,1.58,3.28,5.13,4.69,4.69,1.75,7.18,4.12,7.18,8.19,0,4.86-3.79,8.24-10.17,8.24a15.58,15.58,0,0,1-7.68-1.92Z"/><path d="M468.31,140.29c.11,6.72,4.35,9.49,9.37,9.49a17.81,17.81,0,0,0,7.57-1.41l.9,3.55a22.28,22.28,0,0,1-9.15,1.75c-8.41,0-13.44-5.59-13.44-13.83s4.86-14.69,12.82-14.69c9,0,11.3,7.8,11.3,12.82a12.42,12.42,0,0,1-.17,2.32Zm14.57-3.56c.05-3.1-1.3-8-6.89-8-5.09,0-7.23,4.58-7.63,8ZM484,113.92,477.12,122h-3.5l5-8.07Z"/><path d="M538.51,133.63c0,13-8,20-17.68,20-10.11,0-17.11-7.85-17.11-19.37,0-12.08,7.45-20,17.62-20C531.79,114.31,538.51,122.27,538.51,133.63Zm-29.6.56c0,8.19,4.41,15.47,12.2,15.47s12.2-7.17,12.2-15.81c0-7.62-3.95-15.53-12.14-15.53S508.91,125.89,508.91,134.19Z"/><path d="M551.44,114a69.52,69.52,0,0,1-5.25,13.44l-3.17.34a84.65,84.65,0,0,0,3.34-13.21Z"/><path d="M582.28,151.87a24.34,24.34,0,0,1-10.06,1.8c-10.73,0-18.75-6.77-18.75-19.31,0-12,8.08-20,19.88-20a20.62,20.62,0,0,1,9,1.69l-1.24,4a17.53,17.53,0,0,0-7.63-1.58c-8.92,0-14.85,5.7-14.85,15.7,0,9.38,5.36,15.3,14.57,15.3a19.79,19.79,0,0,0,8.08-1.58Z"/><path d="M612.43,139.16c0,10.11-7,14.51-13.61,14.51-7.34,0-13.1-5.42-13.1-14.06,0-9.09,6-14.46,13.56-14.46C607.13,125.15,612.43,130.86,612.43,139.16Zm-21.63.28c0,6,3.39,10.51,8.25,10.51s8.3-4.46,8.3-10.62c0-4.63-2.31-10.45-8.19-10.45S590.8,134.3,590.8,139.44Z"/><path d="M618.7,133.12c0-2.88-.05-5.14-.22-7.4h4.4l.29,4.52h.11a10.13,10.13,0,0,1,9-5.09c3.78,0,9.65,2.26,9.65,11.64v16.26h-5V137.3c0-4.41-1.64-8.08-6.32-8.08A7.19,7.19,0,0,0,624,134.3a7.32,7.32,0,0,0-.34,2.32v16.43h-5Z"/><path d="M650.05,133.12c0-2.88-.06-5.14-.23-7.4h4.41l.28,4.52h.11a10.14,10.14,0,0,1,9-5.09c3.78,0,9.66,2.26,9.66,11.64v16.26h-5V137.3c0-4.41-1.64-8.08-6.33-8.08a7.17,7.17,0,0,0-6.66,5.08,7,7,0,0,0-.34,2.32v16.43h-5Z"/><path d="M706.13,139.16c0,10.11-7.06,14.51-13.61,14.51-7.34,0-13.1-5.42-13.1-14.06,0-9.09,6-14.46,13.55-14.46C700.82,125.15,706.13,130.86,706.13,139.16Zm-21.63.28c0,6,3.39,10.51,8.25,10.51s8.3-4.46,8.3-10.62c0-4.63-2.32-10.45-8.19-10.45S684.5,134.3,684.5,139.44Z"/><path d="M712.4,134.25c0-3.22-.06-6-.23-8.53h4.35l.23,5.42h.17c1.24-3.67,4.29-6,7.62-6a9.56,9.56,0,0,1,1.36.12V130a8,8,0,0,0-1.7-.11c-3.5,0-6,2.6-6.66,6.33a15.09,15.09,0,0,0-.17,2.31v14.57h-5Z"/></g></g></g></svg>