<svg xmlns="http://www.w3.org/2000/svg" viewBox="0 0 607.06 114.94"><defs><style>.cls-1,.cls-2{fill:#fff;}.cls-2{fill-rule:evenodd;}</style></defs><g id="Capa_2" data-name="Capa 2"><g id="Isologotipo_pluma_y_negativo_a_3_lineas" data-name="Isologotipo pluma y negativo a 3 lineas"><g id="Isologotipo_a_3_lineas_Negativo" data-name="Isologotipo a 3 lineas Negativo"><path class="cls-1" d="M157.67,17.36H146.94v8.36h12V30H141.74V1.52H158.3V5.79H146.94v7.35h10.73Z"/><path class="cls-1" d="M163.2,25.17a11.24,11.24,0,0,0,5.24,1.53c2.28,0,3.29-1,3.29-2.33s-.84-2.07-3.38-3c-4-1.35-5.66-3.54-5.66-6,0-3.64,3-6.43,7.77-6.43a11.84,11.84,0,0,1,5.5,1.23l-1.06,3.63a9.21,9.21,0,0,0-4.35-1.18c-1.86,0-2.87.93-2.87,2.2s1,1.9,3.59,2.87C175,19,176.72,20.91,176.76,24c0,3.76-2.92,6.46-8.37,6.46A13.33,13.33,0,0,1,162.14,29Z"/><path class="cls-1" d="M196.15,29.36a15.23,15.23,0,0,1-5.83,1.05c-6.42,0-10.6-4.14-10.6-10.52,0-6.16,4.22-10.94,11.44-10.94a14,14,0,0,1,5,.93l-.93,3.93a8.62,8.62,0,0,0-3.93-.8c-4,0-6.34,2.91-6.29,6.67,0,4.23,2.74,6.64,6.29,6.64a10.41,10.41,0,0,0,4.1-.81Z"/><path class="cls-1" d="M218.41,23.82c0,2.45.08,4.48.17,6.17h-4.52l-.26-3.08h-.12A7.55,7.55,0,0,1,207,30.45c-3.71,0-7.13-2.23-7.13-8.95V9.42h5.19V20.61c0,3.42,1.1,5.62,3.84,5.62a4.24,4.24,0,0,0,4-2.79,3.75,3.75,0,0,0,.29-1.6V9.42h5.2Z"/><path class="cls-1" d="M227.7,21.16c.13,3.72,3,5.32,6.34,5.32a16.59,16.59,0,0,0,5.7-.93l.76,3.55a18.52,18.52,0,0,1-7.18,1.31c-6.68,0-10.6-4.09-10.6-10.39,0-5.7,3.46-11.07,10.05-11.07s8.87,5.5,8.87,10a13.12,13.12,0,0,1-.17,2.19Zm9-3.63c0-1.9-.8-5-4.27-5-3.21,0-4.56,2.92-4.77,5Z"/><path class="cls-1" d="M245.82,0H251V30h-5.2Z"/><path class="cls-1" d="M272.64,25.05A28,28,0,0,0,273,30h-4.69l-.38-2.28h-.12a7.54,7.54,0,0,1-6.09,2.74,6.1,6.1,0,0,1-6.46-6.12c0-5.15,4.6-7.81,12.21-7.77v-.34c0-1.35-.55-3.59-4.18-3.59a10.9,10.9,0,0,0-5.54,1.52l-1-3.38A14.79,14.79,0,0,1,264.15,9c6.59,0,8.49,4.19,8.49,8.71Zm-5.07-5.11c-3.67-.05-7.18.71-7.18,3.84a2.73,2.73,0,0,0,3,3,4.27,4.27,0,0,0,4.1-2.83,3.69,3.69,0,0,0,.12-1.14Z"/><path class="cls-1" d="M141.74,44.14a45.6,45.6,0,0,1,7.94-.59c3.8,0,6.55.8,8.37,2.32a8.09,8.09,0,0,1,2.78,6.3,8.68,8.68,0,0,1-2.4,6.42c-2.12,2.07-5.33,3.08-9,3.08a11.38,11.38,0,0,1-2.54-.21V72.23h-5.15Zm5.15,13.22a8.73,8.73,0,0,0,2.54.26c3.88,0,6.25-1.95,6.25-5.24s-2.2-4.82-5.79-4.82a14.07,14.07,0,0,0-3,.26Z"/><path class="cls-1" d="M167.76,63.4c.13,3.72,3,5.33,6.34,5.33a16.83,16.83,0,0,0,5.7-.93l.76,3.54a18.45,18.45,0,0,1-7.18,1.31c-6.67,0-10.6-4.09-10.6-10.39,0-5.7,3.46-11.06,10.05-11.06s8.87,5.49,8.87,10a12.11,12.11,0,0,1-.17,2.19Zm9-3.63c0-1.9-.8-5-4.27-5-3.21,0-4.56,2.92-4.77,5Z"/><path class="cls-1" d="M185.88,57.79c0-2.37-.08-4.36-.17-6.13h4.52l.26,3.08h.12a7.56,7.56,0,0,1,6.59-3.54c3.59,0,7.31,2.32,7.31,8.82V72.23h-5.2V60.62c0-3-1.09-5.2-3.92-5.2a4.37,4.37,0,0,0-4.06,3,4.81,4.81,0,0,0-.25,1.65V72.23h-5.2Z"/><path class="cls-1" d="M215.58,45.92a2.92,2.92,0,1,1-2.92-2.83A2.77,2.77,0,0,1,215.58,45.92ZM210,72.23V51.66h5.2V72.23Z"/><path class="cls-1" d="M226.81,46.38v5.28h4.95v3.89h-4.95v9.08c0,2.53.68,3.8,2.66,3.8a6.75,6.75,0,0,0,2-.21l.09,3.93a11.58,11.58,0,0,1-3.76.55A6,6,0,0,1,223.35,71c-1.14-1.19-1.65-3.09-1.65-5.79V55.55h-2.91V51.66h2.91V47.82Z"/><path class="cls-1" d="M239.11,63.4c.12,3.72,3,5.33,6.33,5.33a16.74,16.74,0,0,0,5.7-.93l.76,3.54a18.45,18.45,0,0,1-7.18,1.31c-6.67,0-10.6-4.09-10.6-10.39,0-5.7,3.46-11.06,10-11.06s8.87,5.49,8.87,10a13.36,13.36,0,0,1-.16,2.19Zm9-3.63c.05-1.9-.8-5-4.26-5-3.21,0-4.56,2.92-4.77,5Z"/><path class="cls-1" d="M257.23,57.79c0-2.37-.09-4.36-.17-6.13h4.52l.25,3.08H262a7.56,7.56,0,0,1,6.59-3.54c3.59,0,7.3,2.32,7.3,8.82V72.23h-5.19V60.62c0-3-1.1-5.2-3.93-5.2a4.35,4.35,0,0,0-4.05,3,4.8,4.8,0,0,0-.26,1.65V72.23h-5.19Z"/><path class="cls-1" d="M296.51,71.6a15.19,15.19,0,0,1-5.83,1.05c-6.42,0-10.6-4.14-10.6-10.51,0-6.17,4.22-10.94,11.45-10.94a14,14,0,0,1,5,.92l-.93,3.93a8.58,8.58,0,0,0-3.93-.8c-4,0-6.33,2.92-6.29,6.67,0,4.23,2.75,6.64,6.29,6.64a10.16,10.16,0,0,0,4.1-.81Z"/><path class="cls-1" d="M305.89,45.92A2.92,2.92,0,1,1,303,43.09,2.77,2.77,0,0,1,305.89,45.92Zm-5.54,26.31V51.66h5.2V72.23Z"/><path class="cls-1" d="M327.13,67.29a28,28,0,0,0,.34,4.94h-4.69L322.4,70h-.12a7.52,7.52,0,0,1-6.09,2.75,6.11,6.11,0,0,1-6.46-6.13c0-5.15,4.61-7.81,12.21-7.77v-.34c0-1.35-.55-3.59-4.18-3.59a10.9,10.9,0,0,0-5.54,1.52l-1-3.38a14.8,14.8,0,0,1,7.43-1.81c6.59,0,8.49,4.18,8.49,8.7Zm-5.06-5.11c-3.68,0-7.19.72-7.19,3.84a2.73,2.73,0,0,0,3,3,4.27,4.27,0,0,0,4.1-2.83,3.42,3.42,0,0,0,.13-1.14Z"/><path class="cls-1" d="M332.63,58.29c0-2.79-.05-4.81-.17-6.63h4.47l.22,3.89h.12a6.15,6.15,0,0,1,5.66-4.35,5.76,5.76,0,0,1,1.23.12v4.86a8.79,8.79,0,0,0-1.57-.13A4.57,4.57,0,0,0,338,60a8.56,8.56,0,0,0-.13,1.56V72.23h-5.19Z"/><path class="cls-1" d="M353.2,45.92a2.92,2.92,0,1,1-2.92-2.83A2.77,2.77,0,0,1,353.2,45.92Zm-5.54,26.31V51.66h5.2V72.23Z"/><path class="cls-1" d="M374.44,67.29a28,28,0,0,0,.34,4.94h-4.69L369.71,70h-.12a7.52,7.52,0,0,1-6.09,2.75A6.11,6.11,0,0,1,357,66.57c0-5.15,4.61-7.81,12.21-7.77v-.34c0-1.35-.55-3.59-4.18-3.59a10.9,10.9,0,0,0-5.54,1.52l-1-3.38A14.8,14.8,0,0,1,366,51.2c6.59,0,8.49,4.18,8.49,8.7Zm-5.07-5.11c-3.67,0-7.18.72-7.18,3.84a2.73,2.73,0,0,0,3,3,4.27,4.27,0,0,0,4.1-2.83,3.69,3.69,0,0,0,.12-1.14Z"/><path class="cls-1" d="M407.64,42.24v24.2c0,2.12.09,4.4.17,5.79h-4.6L403,69h-.09a7.38,7.38,0,0,1-6.67,3.72c-4.94,0-8.83-4.19-8.83-10.52,0-6.89,4.27-11,9.21-11,2.83,0,4.86,1.14,5.78,2.66h.09V42.24Zm-5.19,18a7.27,7.27,0,0,0-.13-1.39,4.55,4.55,0,0,0-4.48-3.63c-3.33,0-5.19,3-5.19,6.76s1.86,6.54,5.15,6.54a4.58,4.58,0,0,0,4.48-3.67,5.67,5.67,0,0,0,.17-1.52Z"/><path class="cls-1" d="M416.9,63.4c.12,3.72,3,5.33,6.33,5.33a16.74,16.74,0,0,0,5.7-.93l.76,3.54a18.45,18.45,0,0,1-7.18,1.31c-6.67,0-10.6-4.09-10.6-10.39,0-5.7,3.46-11.06,10-11.06s8.87,5.49,8.87,10a13.36,13.36,0,0,1-.16,2.19Zm9-3.63c.05-1.9-.8-5-4.26-5-3.21,0-4.56,2.92-4.77,5Z"/><path class="cls-1" d="M443.76,42.24H449v30h-5.2Z"/><path class="cls-1" d="M470.58,67.29a28,28,0,0,0,.34,4.94h-4.69L465.85,70h-.13a7.48,7.48,0,0,1-6.08,2.75,6.11,6.11,0,0,1-6.46-6.13c0-5.15,4.6-7.81,12.21-7.77v-.34c0-1.35-.55-3.59-4.19-3.59a10.89,10.89,0,0,0-5.53,1.52l-1-3.38a14.8,14.8,0,0,1,7.43-1.81c6.59,0,8.49,4.18,8.49,8.7Zm-5.07-5.11c-3.67,0-7.18.72-7.18,3.84a2.73,2.73,0,0,0,3,3,4.27,4.27,0,0,0,4.1-2.83,3.69,3.69,0,0,0,.12-1.14Z"/><path class="cls-1" d="M485,72.23V43.76h5.95L498.29,56a84.37,84.37,0,0,1,4.86,9.55h.08a116.54,116.54,0,0,1-.46-11.83V43.76h4.81V72.23h-5.4l-7.44-12.54a101.29,101.29,0,0,1-5.07-9.8l-.16,0c.21,3.67.29,7.43.29,12.12V72.23Z"/><path class="cls-1" d="M529.34,67.29a27.11,27.11,0,0,0,.34,4.94H525L524.61,70h-.13a7.5,7.5,0,0,1-6.08,2.75,6.11,6.11,0,0,1-6.46-6.13c0-5.15,4.6-7.81,12.2-7.77v-.34c0-1.35-.55-3.59-4.18-3.59a10.83,10.83,0,0,0-5.53,1.52l-1-3.38a14.84,14.84,0,0,1,7.44-1.81c6.59,0,8.49,4.18,8.49,8.7Zm-5.07-5.11c-3.68,0-7.18.72-7.18,3.84a2.73,2.73,0,0,0,3,3,4.25,4.25,0,0,0,4.09-2.83,3.42,3.42,0,0,0,.13-1.14Z"/><path class="cls-1" d="M550,71.6a15.19,15.19,0,0,1-5.83,1.05c-6.42,0-10.6-4.14-10.6-10.51,0-6.17,4.22-10.94,11.45-10.94a14,14,0,0,1,5,.92l-.92,3.93a8.62,8.62,0,0,0-3.93-.8c-4,0-6.34,2.92-6.3,6.67,0,4.23,2.75,6.64,6.3,6.64a10.14,10.14,0,0,0,4.09-.81Z"/><path class="cls-1" d="M559.33,45.92a2.92,2.92,0,1,1-2.91-2.83A2.77,2.77,0,0,1,559.33,45.92ZM553.8,72.23V51.66H559V72.23Z"/><path class="cls-1" d="M584.17,61.76c0,7.56-5.33,10.94-10.56,10.94-5.79,0-10.31-4-10.31-10.61s4.44-10.89,10.64-10.89S584.17,55.5,584.17,61.76ZM568.66,62c0,4,2,7,5.12,7,3,0,5-2.88,5-7.06,0-3.21-1.43-6.92-5-6.92S568.66,58.55,568.66,62ZM579.9,42.75,574.75,49h-3.59l3.67-6.25Z"/><path class="cls-1" d="M588.43,57.79c0-2.37-.08-4.36-.17-6.13h4.52l.26,3.08h.12a7.56,7.56,0,0,1,6.59-3.54c3.59,0,7.31,2.32,7.31,8.82V72.23h-5.19V60.62c0-3-1.1-5.2-3.93-5.2a4.37,4.37,0,0,0-4.06,3,4.81,4.81,0,0,0-.25,1.65V72.23h-5.2Z"/><path class="cls-1" d="M142,86.43a47.16,47.16,0,0,1,7.82-.64c5.28,0,9,1.27,11.53,3.55s4,5.62,4,10.22-1.48,8.45-4.09,11.07-7.1,4.1-12.63,4.1a59,59,0,0,1-6.68-.34Zm3.68,25.17a29.83,29.83,0,0,0,3.71.17c7.9,0,12.13-4.39,12.13-12.08,0-6.72-3.76-11-11.53-11a20.91,20.91,0,0,0-4.31.38Z"/><path class="cls-1" d="M170,100.41c0-2.41,0-4.48-.17-6.38H173l.17,4h.13a6.18,6.18,0,0,1,5.7-4.47,8,8,0,0,1,1,.08V97.2a5.4,5.4,0,0,0-1.26-.09c-2.62,0-4.48,1.94-5,4.73a11.7,11.7,0,0,0-.13,1.73v10.9H170Z"/><path class="cls-1" d="M180.64,112.28a2.53,2.53,0,0,1,2.54-2.67,2.47,2.47,0,0,1,2.49,2.67,2.52,2.52,0,1,1-5,0Z"/><path class="cls-1" d="M205.14,86h3.72v19c0,7.56-3.72,9.89-8.62,9.89a11.44,11.44,0,0,1-3.92-.68l.5-3a8.75,8.75,0,0,0,3.13.55c3.29,0,5.19-1.48,5.19-7Z"/><path class="cls-1" d="M232,108.85c0,2.16,0,4,.16,5.62h-3.29l-.21-3.33h-.09a7.64,7.64,0,0,1-6.75,3.8c-3.21,0-7.06-1.82-7.06-9V94h3.72v11.28c0,3.88,1.22,6.54,4.56,6.54a5.35,5.35,0,0,0,4.9-3.42,5.08,5.08,0,0,0,.34-1.9V94H232Z"/><path class="cls-1" d="M252.49,109.57a34.34,34.34,0,0,0,.3,4.9h-3.34l-.29-2.57H249a7.63,7.63,0,0,1-6.25,3c-4.14,0-6.25-2.92-6.25-5.87,0-4.95,4.39-7.65,12.29-7.61V101c0-1.65-.46-4.73-4.65-4.69a9.87,9.87,0,0,0-5.36,1.52L238,95.38a13.22,13.22,0,0,1,6.76-1.77c6.25,0,7.77,4.26,7.77,8.32ZM248.9,104c-4.05-.09-8.65.63-8.65,4.6a3.25,3.25,0,0,0,3.46,3.55,5.18,5.18,0,0,0,5-3.42,4.37,4.37,0,0,0,.16-1.18Z"/><path class="cls-1" d="M258.49,99.56c0-2.15,0-3.84-.17-5.53h3.3l.21,3.38h.08a7.58,7.58,0,0,1,6.76-3.8c2.83,0,7.23,1.69,7.23,8.7v12.16h-3.72V102.69c0-3.3-1.23-6-4.73-6a5.37,5.37,0,0,0-5,3.8,5.31,5.31,0,0,0-.25,1.73v12.29h-3.72Z"/><path class="cls-1" d="M296.81,86h3.71v19c0,7.56-3.71,9.89-8.61,9.89a11.46,11.46,0,0,1-3.93-.68l.5-3a8.75,8.75,0,0,0,3.13.55c3.29,0,5.2-1.48,5.2-7Z"/><path class="cls-1" d="M325,104.08c0,7.56-5.28,10.86-10.18,10.86-5.49,0-9.8-4.06-9.8-10.52,0-6.8,4.52-10.81,10.14-10.81C321.05,93.61,325,97.87,325,104.08Zm-16.18.21c0,4.48,2.54,7.86,6.17,7.86s6.21-3.34,6.21-7.94c0-3.47-1.73-7.82-6.12-7.82S308.84,100.45,308.84,104.29Z"/><path class="cls-1" d="M329.2,110.71a10.48,10.48,0,0,0,4.95,1.44c2.66,0,3.92-1.31,3.92-3s-1.05-2.71-3.76-3.72c-3.71-1.35-5.44-3.34-5.44-5.79,0-3.29,2.7-6,7.05-6a9.43,9.43,0,0,1,5,1.26L340,97.58a7.91,7.91,0,0,0-4.18-1.23c-2.2,0-3.38,1.27-3.38,2.79,0,1.69,1.18,2.45,3.84,3.51,3.51,1.3,5.36,3.08,5.36,6.12,0,3.63-2.83,6.17-7.6,6.17a11.56,11.56,0,0,1-5.74-1.44Z"/><path class="cls-1" d="M348.51,104.93c.08,5,3.25,7.09,7,7.09a13.33,13.33,0,0,0,5.66-1l.68,2.66a16.69,16.69,0,0,1-6.85,1.31c-6.29,0-10.05-4.18-10.05-10.35s3.63-11,9.59-11c6.71,0,8.45,5.83,8.45,9.58a9.56,9.56,0,0,1-.13,1.74Zm10.9-2.67c0-2.32-1-6-5.16-6-3.8,0-5.4,3.42-5.7,6Zm.84-17.06-5.15,6h-2.62l3.72-6Z"/><path class="cls-1" d="M401,99.94c0,9.76-5.95,15-13.22,15-7.56,0-12.8-5.87-12.8-14.49,0-9,5.58-15,13.18-15C396,85.5,401,91.45,401,99.94Zm-22.13.42c0,6.13,3.29,11.58,9.12,11.58s9.13-5.37,9.13-11.83c0-5.7-3-11.61-9.09-11.61S378.88,94.15,378.88,100.36Z"/><path class="cls-1" d="M410.69,85.24a52.79,52.79,0,0,1-3.93,10.06l-2.37.25a62.65,62.65,0,0,0,2.49-9.89Z"/><path class="cls-1" d="M433.75,113.59a18.21,18.21,0,0,1-7.52,1.35c-8,0-14-5.07-14-14.45,0-8.95,6-14.95,14.86-14.95a15.35,15.35,0,0,1,6.76,1.27l-.93,3a13.09,13.09,0,0,0-5.7-1.18c-6.67,0-11.11,4.27-11.11,11.74,0,7,4,11.45,10.9,11.45a14.75,14.75,0,0,0,6-1.18Z"/><path class="cls-1" d="M456.31,104.08c0,7.56-5.28,10.86-10.18,10.86-5.5,0-9.8-4.06-9.8-10.52,0-6.8,4.52-10.81,10.13-10.81C452.33,93.61,456.31,97.87,456.31,104.08Zm-16.18.21c0,4.48,2.53,7.86,6.16,7.86s6.21-3.34,6.21-7.94c0-3.47-1.73-7.82-6.12-7.82S440.13,100.45,440.13,104.29Z"/><path class="cls-1" d="M461,99.56c0-2.15,0-3.84-.16-5.53h3.29l.21,3.38h.09a7.56,7.56,0,0,1,6.75-3.8c2.83,0,7.23,1.69,7.23,8.7v12.16h-3.72V102.69c0-3.3-1.22-6-4.73-6a5.35,5.35,0,0,0-5,3.8,5.29,5.29,0,0,0-.26,1.73v12.29H461Z"/><path class="cls-1" d="M484.44,99.56c0-2.15,0-3.84-.17-5.53h3.29l.21,3.38h.09a7.57,7.57,0,0,1,6.76-3.8c2.83,0,7.22,1.69,7.22,8.7v12.16h-3.72V102.69c0-3.3-1.22-6-4.73-6a5.44,5.44,0,0,0-5.23,5.53v12.29h-3.72Z"/><path class="cls-1" d="M526.38,104.08c0,7.56-5.28,10.86-10.18,10.86-5.49,0-9.8-4.06-9.8-10.52,0-6.8,4.52-10.81,10.14-10.81C522.41,93.61,526.38,97.87,526.38,104.08Zm-16.18.21c0,4.48,2.54,7.86,6.17,7.86s6.21-3.34,6.21-7.94c0-3.47-1.73-7.82-6.12-7.82S510.2,100.45,510.2,104.29Z"/><g id="Torreon"><g id="Sol"><path class="cls-2" d="M55.72,9.45s-3.94-3.89-5.29-8.38c-1.83,6.47-.84,9.29-.84,9.29a45.62,45.62,0,0,1-8.83-5.8c.41,6.27,2.23,9.12,2.23,9.12a80.88,80.88,0,0,1-10.17-2.54,17.79,17.79,0,0,0,5,8.05A54.23,54.23,0,0,1,27.58,20c2.82,4,5.24,4.68,5.24,4.68v-.17a1,1,0,0,1,1-1.05H38.5l.31-.68A18.38,18.38,0,0,1,44.72,16c6.43-4.28,15.53-4.35,21.57.09a17.53,17.53,0,0,1,3.76,3.25,14.85,14.85,0,0,1,2.65,4.15h5a1,1,0,0,1,1,1v.27s2-.22,5-4.74a66,66,0,0,1-10.22-1s4.27-3.22,5.37-7.43C75.08,12.9,68.2,13.51,68.2,13.51s2.42-2.71,2.46-8.89c-2.76,2.72-9.39,5.58-9.39,5.58s.94-2.94-.57-9.15a23.23,23.23,0,0,1-5,8.4Z"/></g><path class="cls-1" d="M59.49,105.73c-.1.1-.2.2-.31.29A7.49,7.49,0,0,0,60,108a7.87,7.87,0,0,1-.81-1.93C59.29,105.93,59.39,105.83,59.49,105.73Z"/><path class="cls-1" d="M51.69,105.41l-.18.17.18-.17Z"/><path class="cls-1" d="M59.81,105.44h0a26.33,26.33,0,0,0,2.22,1.8A26.33,26.33,0,0,1,59.81,105.44Z"/><path class="cls-1" d="M43.93,88.44c2.94-1.92,8.51-.92,11-.31V82.78H34.53v7.39h7.61A14.66,14.66,0,0,1,43.93,88.44Z"/><path class="cls-1" d="M40.28,52H54.9V44.68H37.44A49,49,0,0,1,40.28,52Z"/><rect class="cls-1" x="48.39" y="25.64" width="14.7" height="7.38"/><path class="cls-1" d="M54.9,71.12V63.71H39.71c-.74,2.56-2.13,4.8-3.18,7.41Z"/><path class="cls-1" d="M43.2,73.27H35.42a3.69,3.69,0,0,0-.89,1.49v5.88H43.2Z"/><path class="cls-1" d="M43.2,42.53V35.14H34.53v4c.09.86,1.82,3,1.88,3.44Z"/><path class="cls-1" d="M41.47,33l0-7.39h-7s0,2.18,0,7.38Z"/><rect class="cls-1" x="70.05" y="25.64" width="6.94" height="7.38"/><path class="cls-1" d="M43.2,61.57V54.22H40.6a23.55,23.55,0,0,1-.27,7.35Z"/><path class="cls-1" d="M74.1,44.68H56.61V52H71.25A49,49,0,0,1,74.1,44.68Z"/><path class="cls-1" d="M71.84,63.72H56.61v7.41H75C74,68.52,72.58,66.28,71.84,63.72Z"/><path class="cls-1" d="M67.24,88.39a14,14,0,0,1,1.83,1.78H77V82.78H56.61v5.3C59.07,87.46,64.31,86.48,67.24,88.39Z"/><path class="cls-1" d="M77,39.09v-4H68.32v7.39h6.79C75.17,42.12,76.9,40,77,39.09Z"/><path class="cls-1" d="M68.32,54.22v7.35h2.9A23.32,23.32,0,0,1,71,54.21Z"/><path class="cls-1" d="M77,74.75a3.63,3.63,0,0,0-.85-1.48H68.32v7.37H77Z"/><rect class="cls-1" x="44.99" y="35.14" width="21.55" height="7.39"/><rect class="cls-1" x="44.99" y="73.27" width="21.55" height="7.37"/><rect class="cls-1" x="44.98" y="54.2" width="21.55" height="7.37"/><path class="cls-1" d="M32.21,89.74l.61.43V81.68c-2.13-1.07-4-2.56-7-3.18C25.72,84.61,28.7,87.51,32.21,89.74Z"/><path class="cls-1" d="M99.88,74.45C92,78.1,94.9,76.3,92,80l-4.21,4.75c-.87.82-1.8,1.16-2.3,2.44,2.83,0,11.4-2.56,13.48-4.43.63-.55,8.19-9.29,6.61-10.79C105.22,71.64,100.8,74,99.88,74.45Z"/><path class="cls-1" d="M21.09,82.62c-5.7-6.53-.94-3.92-9.87-8.08-1-.45-5.54-2.89-5.86-2.58-1.52,1.44,5.91,10.16,6.46,10.67,2.06,1.93,10.5,4.59,13.63,4.55C25,86,22.77,84.55,21.09,82.62Z"/><path class="cls-1" d="M110.91,55.6c-1.24.23-8.75,6.63-10,7.56-2.39,1.81-.24,1.3-2.5,6.2-1.59,3.45-2.58,3.69-3.44,5.49,1.82-.36,4.57-2,6.07-2.87a16.67,16.67,0,0,0,5-3.71C108.31,65.64,111.16,60.38,110.91,55.6Z"/><path class="cls-1" d="M15.92,74.85c-.79-1.61-3.59-4.08-4.51-8.62-.79-3.91.36-1.44-6.28-6.9C4,58.37,1.06,55.8,0,55.6c-.26,4.79,2.59,10,4.84,12.68C6.77,70.5,13.39,74.35,15.92,74.85Z"/><path class="cls-1" d="M32.81,91.07c-8.85-3.94-2-2.92-10.57-2.73a38.49,38.49,0,0,1-6.73-.26c-.26.88,4.62,5,9,6.24,3.52,1,7,.44,10.57-.31,1.85-.37,2.42-.42,2.85-1.34C36.56,91.77,34.37,91.76,32.81,91.07Z"/><path class="cls-1" d="M19.3,77.66c1.12,2.2,4.75,7.07,6.82,7.46-1.24-6.74.23-8.35-3.27-15.2-.54-1.06-1.76-3.3-2.85-3.7C17.34,67.79,18,75,19.3,77.66Z"/><path class="cls-1" d="M85.29,81.6l-.48,3.53c1.88-.38,5.57-5.13,6.7-7.28,1.39-2.65,2-10.09-.6-11.63-.8.29-.53.06-1.16.9-.22.3-.61,1-.87,1.38a21,21,0,0,0-3.38,10c-3.75.55-5,1.89-6.79,3.69v8C82.91,88.45,84.36,83.25,85.29,81.6Z"/><path class="cls-1" d="M10.33,61.14c0-1.1-1.41-3.56-1.39-6.59C9,50,10.05,51.79,7.88,47.89,6.37,45.16,2.47,39,.57,38.27c-1,2.39,0,12.15,1,14.83C2.34,55.28,7.58,61.31,10.33,61.14Z"/><path class="cls-1" d="M102,54.27c.12,4.46-1.39,5.57-1.39,6.87,2.61.14,7.85-5.73,8.71-7.84,1.07-2.64,2-12.61,1.06-15-1.13.4-1.4,1-2.09,1.94a52.49,52.49,0,0,0-5.12,7.5C101,51.52,101.83,49.72,102,54.27Z"/><path class="cls-1" d="M9.91,47.57a12.26,12.26,0,0,0,1.37-2.3c1-1.69,2.56-1.94,4.19-7.3.58-1.88.59-4.56.88-6.69.38-2.7.63-4.41-.2-6.75-3.21,0-7.1,5.8-8.2,9.27C6.67,37.83,6.5,45.64,9.91,47.57Z"/><path class="cls-1" d="M97.83,43.14c.49.66,1.17,1.11,1.72,1.93a14.42,14.42,0,0,0,1.45,2.5c4-2.31,3.9-13.54-1.08-19.41-.92-1.08-3.11-3.65-5.16-3.63-.83,2.34-.58,4.06-.21,6.75C95.17,35.79,95.05,39.43,97.83,43.14Z"/><path class="cls-1" d="M83,88.42c-1.62.87-.57.77-4.15,2.3a13.41,13.41,0,0,1-5.08,1.39l-.81.23c-.1,1.6,4.17,1.94,6,2.2a15.42,15.42,0,0,0,7.18-.16c4.52-1.18,9.46-5.42,9.21-6.3C92.9,88.47,84.18,87.79,83,88.42Z"/><path class="cls-1" d="M11.82,47.77C10.89,50.69,9,57,11.67,59.45c1.39-.7,1.66-3.88,3.25-5.22a3.71,3.71,0,0,1,.32-.23c.49-.33,0-.08.56-.3-.5,1.8-3.7,3.31-2.89,9.94a19.2,19.2,0,0,0,1.45,5.23c.77,1.83,1.38,3.78,2.68,4.23.4-1.53.62-3,1.17-4.65,2.54-7.92,1-9.58-1.13-14.9l-1-.14c1-3,3.92-5,3.12-8.7-.42-1.91,0-2-.1-3.54C16.82,41.33,12.91,44.35,11.82,47.77Z"/><path class="cls-1" d="M92.63,68.24c.57,1.78.81,3.26,1.24,4.86,2.31-.83,5.34-10.31,3.68-15.1-.69-2-2.13-3.2-2.44-4.29.57.22,0-.1.73.4a3.83,3.83,0,0,1,.68.71c1.28,1.74,1.47,4,2.72,4.63,2.66-2.45.85-8.27,0-11.24a9.36,9.36,0,0,0-2.74-4.52c-.73-.61-3.27-2.42-4.64-2.53-.07,1.44.34,1.61,0,3.32A4.24,4.24,0,0,0,92,47.89c.77,2.07,2.29,3.78,2.89,5.53l-1,.13C91.82,58.62,90.17,60.52,92.63,68.24Z"/><path class="cls-1" d="M48.94,90.69c.54,0,1.11,0,1.68.08a7.06,7.06,0,0,0-.86.79l1.56,2.2c1.29-1.94,4.29-2,4.42-2h0a7.65,7.65,0,0,1,2.09.35A4.31,4.31,0,0,1,60,93.52l1.42-2,.27,0a7.65,7.65,0,0,0-.8-.72,8.85,8.85,0,0,1,4.82.53l3.22-.12a4.57,4.57,0,0,0-.62-1H56.61V88.89l-.87.24c-.22-.07-.5-.15-.84-.23v1.27H43.2a4.38,4.38,0,0,0-.63,1l3.19.12A6.52,6.52,0,0,1,48.94,90.69Z"/><path class="cls-1" d="M61.26,101.73a5.45,5.45,0,0,0-.14-1.23c2-.39,5.14-1.34,6.91-3.49a5.62,5.62,0,0,0,1.31-3.67c-.89.37-1.82.72-2.77,1a3.11,3.11,0,0,1-.54,1,7.47,7.47,0,0,1-3.35,2,5.65,5.65,0,0,0,.54-2l-1.72.45h-1a5.09,5.09,0,0,1-1.08,1.72,5.47,5.47,0,0,0-7.3,0A4.93,4.93,0,0,1,51,95.91l-1.38,0-1.35-.35a5.33,5.33,0,0,0,.54,1.87,7.58,7.58,0,0,1-3.35-2,3.18,3.18,0,0,1-.49-.82c-1-.33-1.92-.68-2.83-1A5.64,5.64,0,0,0,43.45,97c1.78,2.17,5,3.11,6.95,3.5a6.08,6.08,0,0,0-.13,1.22,5.09,5.09,0,0,0,.16,1.3,22.33,22.33,0,0,1-12.7,6.19h0a10,10,0,0,0,1.94,2.33h0a24.86,24.86,0,0,0,11.84-6l.18-.17h0c.05.06.11.1.16.15a4.68,4.68,0,0,0,.46.43c-.42,1.63-2.19,5.82-9.4,7.64a16.11,16.11,0,0,0,4.34,1.24c5-2.27,6.8-5.74,7.43-7.76a5.49,5.49,0,0,0,1.08.11,5.1,5.1,0,0,0,1-.1c.64,2,2.43,5.48,7.43,7.75a16.11,16.11,0,0,0,4.34-1.24c-5.12-1.29-7.49-3.76-8.58-5.68a7.49,7.49,0,0,1-.81-1.93c.11-.09.21-.19.31-.29l.32-.29h0a26.33,26.33,0,0,0,2.22,1.8,24.38,24.38,0,0,0,9.78,4.3,9.6,9.6,0,0,0,1.94-2.32,22.37,22.37,0,0,1-12.66-6.15A5.41,5.41,0,0,0,61.26,101.73Zm-5.5,2.9a2.91,2.91,0,1,1,2.9-2.9A2.9,2.9,0,0,1,55.76,104.63Z"/><path class="cls-1" d="M54.9,88.9c-2.46-.62-7.72-1.62-10.66.3a4.59,4.59,0,0,0-1,1H54.9Z"/><path class="cls-1" d="M68.28,90.17a4.39,4.39,0,0,0-1-1c-2.93-1.91-8.17-.93-10.63-.31v1.28Z"/><path class="cls-1" d="M44.75,92.9a2,2,0,0,1,.91-1.53l.1-.05-3.19-.12a4.67,4.67,0,0,0-.39,1.41,6.78,6.78,0,0,0,0,.89c.91.36,1.87.71,2.83,1A3.42,3.42,0,0,1,44.75,92.9Z"/><path class="cls-1" d="M51,94.43a3.51,3.51,0,0,1,.34-.67l-1.56-2.2a5.94,5.94,0,0,0-1.22,2,4.79,4.79,0,0,0-.27,2l1.35.35,1.38,0A2.15,2.15,0,0,1,51,94.43Z"/><path class="cls-1" d="M61.66,91.49l-.27,0-1.42,2a3.06,3.06,0,0,1,.53.91,2.09,2.09,0,0,1,0,1.46h1l1.72-.45a4.59,4.59,0,0,0-.29-1.9A5.72,5.72,0,0,0,61.66,91.49Z"/><path class="cls-1" d="M65.82,91.37a2,2,0,0,1,.91,1.53,3.33,3.33,0,0,1-.16,1.49c1-.33,1.88-.68,2.77-1a6.06,6.06,0,0,0,0-.73,5.13,5.13,0,0,0-.4-1.43l-3.22.12Z"/><path class="cls-1" d="M71.81,111.55h0a24.38,24.38,0,0,1-9.78-4.3A24.25,24.25,0,0,0,71.81,111.55Z"/><path class="cls-1" d="M60,108c1.09,1.92,3.46,4.39,8.58,5.68h0C63.45,112.34,61.08,109.87,60,108Z"/><path class="cls-1" d="M59.81,105.44l-.32.29.32-.29Z"/><path class="cls-1" d="M51.69,105.41c.05.06.11.1.16.15s-.11-.09-.16-.15Z"/><path class="cls-1" d="M39.67,111.54h0a24.81,24.81,0,0,0,11.84-6A24.86,24.86,0,0,1,39.67,111.54Z"/></g><path class="cls-1" d="M531.07,100.41c0-2.41,0-4.48-.17-6.38h3.26l.16,4h.13a6.18,6.18,0,0,1,5.7-4.47,8.12,8.12,0,0,1,1,.08V97.2a5.45,5.45,0,0,0-1.27-.09c-2.62,0-4.48,1.94-5,4.73a10.49,10.49,0,0,0-.13,1.73v10.9h-3.72Z"/></g></g></g></svg>