<svg xmlns="http://www.w3.org/2000/svg" viewBox="0 0 607.1 114.94"><defs><style>.cls-1,.cls-2{fill:#2d393b;}.cls-2,.cls-3{fill-rule:evenodd;}.cls-3,.cls-4{fill:none;}.cls-5{fill:#fff;}</style></defs><g id="Capa_2" data-name="Capa 2"><g id="Isologotipo_pluma_y_negativo_a_3_lineas" data-name="Isologotipo pluma y negativo a 3 lineas"><g id="Isologotipo_a_3_lineas_pluma" data-name="Isologotipo a 3 lineas pluma"><path class="cls-1" d="M157.71,17.36H147v8.36h12V30H141.78V1.52h16.56V5.79H147v7.35h10.73Z"/><path class="cls-1" d="M163.24,25.17a11.24,11.24,0,0,0,5.24,1.53c2.28,0,3.29-1,3.29-2.33s-.84-2.07-3.38-3c-4-1.35-5.66-3.54-5.66-6,0-3.64,3-6.43,7.77-6.43a11.84,11.84,0,0,1,5.5,1.23l-1.06,3.63a9.14,9.14,0,0,0-4.35-1.18c-1.86,0-2.87.93-2.87,2.2s1,1.9,3.59,2.87c3.76,1.31,5.45,3.21,5.49,6.25,0,3.76-2.92,6.46-8.36,6.46A13.34,13.34,0,0,1,162.18,29Z"/><path class="cls-1" d="M196.19,29.36a15.23,15.23,0,0,1-5.83,1.05c-6.42,0-10.6-4.14-10.6-10.52C179.76,13.73,184,9,191.2,9a14,14,0,0,1,5,.93l-.93,3.93a8.58,8.58,0,0,0-3.93-.8c-4,0-6.33,2.91-6.29,6.67,0,4.23,2.74,6.64,6.29,6.64a10.33,10.33,0,0,0,4.1-.81Z"/><path class="cls-1" d="M218.45,23.82c0,2.45.08,4.48.17,6.17H214.1l-.26-3.08h-.12a7.55,7.55,0,0,1-6.63,3.54c-3.72,0-7.14-2.23-7.14-8.95V9.42h5.19V20.61c0,3.42,1.1,5.62,3.85,5.62a4.23,4.23,0,0,0,4-2.79,3.75,3.75,0,0,0,.29-1.6V9.42h5.2Z"/><path class="cls-1" d="M227.74,21.16c.13,3.72,3,5.32,6.34,5.32a16.59,16.59,0,0,0,5.7-.93l.76,3.55a18.49,18.49,0,0,1-7.18,1.31c-6.68,0-10.6-4.09-10.6-10.39,0-5.7,3.46-11.07,10.05-11.07s8.87,5.5,8.87,10a12.11,12.11,0,0,1-.17,2.19Zm9-3.63c0-1.9-.8-5-4.27-5-3.21,0-4.56,2.92-4.77,5Z"/><path class="cls-1" d="M245.86,0h5.2V30h-5.2Z"/><path class="cls-1" d="M272.68,25.05A28,28,0,0,0,273,30h-4.69L268,27.71h-.12a7.54,7.54,0,0,1-6.09,2.74,6.1,6.1,0,0,1-6.46-6.12c0-5.15,4.61-7.81,12.21-7.77v-.34c0-1.35-.55-3.59-4.18-3.59a10.9,10.9,0,0,0-5.54,1.52l-1-3.38A14.79,14.79,0,0,1,264.19,9c6.59,0,8.49,4.19,8.49,8.71Zm-5.06-5.11c-3.68-.05-7.19.71-7.19,3.84a2.73,2.73,0,0,0,3,3,4.27,4.27,0,0,0,4.1-2.83,3.42,3.42,0,0,0,.13-1.14Z"/><path class="cls-1" d="M141.78,44.14a45.6,45.6,0,0,1,7.94-.59c3.8,0,6.55.8,8.37,2.32a8.06,8.06,0,0,1,2.78,6.3,8.68,8.68,0,0,1-2.4,6.42c-2.12,2.07-5.33,3.08-9,3.08a11.38,11.38,0,0,1-2.54-.21V72.23h-5.15Zm5.15,13.22a8.73,8.73,0,0,0,2.54.26c3.89,0,6.25-1.95,6.25-5.24s-2.2-4.82-5.79-4.82a14.07,14.07,0,0,0-3,.26Z"/><path class="cls-1" d="M167.8,63.4c.13,3.72,3,5.33,6.34,5.33a16.74,16.74,0,0,0,5.7-.93l.76,3.54a18.45,18.45,0,0,1-7.18,1.31c-6.67,0-10.6-4.09-10.6-10.39,0-5.7,3.46-11.06,10.05-11.06s8.87,5.49,8.87,10a12.11,12.11,0,0,1-.17,2.19Zm9-3.63c0-1.9-.8-5-4.27-5-3.21,0-4.56,2.92-4.77,5Z"/><path class="cls-1" d="M185.92,57.79c0-2.37-.08-4.36-.17-6.13h4.52l.26,3.08h.12a7.56,7.56,0,0,1,6.59-3.54c3.59,0,7.31,2.32,7.31,8.82V72.23h-5.19V60.62c0-3-1.1-5.2-3.93-5.2a4.37,4.37,0,0,0-4.06,3,4.81,4.81,0,0,0-.25,1.65V72.23h-5.2Z"/><path class="cls-1" d="M215.62,45.92a2.92,2.92,0,1,1-2.92-2.83A2.77,2.77,0,0,1,215.62,45.92Zm-5.54,26.31V51.66h5.2V72.23Z"/><path class="cls-1" d="M226.85,46.38v5.28h5v3.89h-5v9.08c0,2.53.68,3.8,2.67,3.8a6.72,6.72,0,0,0,2-.21l.09,3.93a11.58,11.58,0,0,1-3.76.55A6,6,0,0,1,223.39,71c-1.14-1.19-1.65-3.09-1.65-5.79V55.55h-2.91V51.66h2.91V47.82Z"/><path class="cls-1" d="M239.15,63.4c.12,3.72,3,5.33,6.33,5.33a16.74,16.74,0,0,0,5.7-.93l.77,3.54a18.54,18.54,0,0,1-7.19,1.31c-6.67,0-10.6-4.09-10.6-10.39,0-5.7,3.47-11.06,10.06-11.06s8.87,5.49,8.87,10a13.12,13.12,0,0,1-.17,2.19Zm9-3.63c0-1.9-.81-5-4.27-5-3.21,0-4.56,2.92-4.77,5Z"/><path class="cls-1" d="M257.27,57.79c0-2.37-.09-4.36-.17-6.13h4.52l.25,3.08H262a7.56,7.56,0,0,1,6.59-3.54c3.59,0,7.31,2.32,7.31,8.82V72.23h-5.2V60.62c0-3-1.1-5.2-3.93-5.2a4.36,4.36,0,0,0-4,3,4.8,4.8,0,0,0-.26,1.65V72.23h-5.19Z"/><path class="cls-1" d="M296.55,71.6a15.19,15.19,0,0,1-5.83,1.05c-6.42,0-10.6-4.14-10.6-10.51,0-6.17,4.22-10.94,11.45-10.94a14,14,0,0,1,5,.92l-.93,3.93a8.57,8.57,0,0,0-3.92-.8c-4,0-6.34,2.92-6.3,6.67,0,4.23,2.75,6.64,6.3,6.64a10.14,10.14,0,0,0,4.09-.81Z"/><path class="cls-1" d="M305.93,45.92A2.92,2.92,0,1,1,303,43.09,2.77,2.77,0,0,1,305.93,45.92ZM300.4,72.23V51.66h5.19V72.23Z"/><path class="cls-1" d="M327.18,67.29a28.14,28.14,0,0,0,.33,4.94h-4.69L322.44,70h-.12a7.51,7.51,0,0,1-6.08,2.75,6.11,6.11,0,0,1-6.47-6.13c0-5.15,4.61-7.81,12.21-7.77v-.34c0-1.35-.55-3.59-4.18-3.59a10.9,10.9,0,0,0-5.54,1.52l-1-3.38a14.81,14.81,0,0,1,7.44-1.81c6.58,0,8.49,4.18,8.49,8.7Zm-5.07-5.11c-3.68,0-7.18.72-7.18,3.84a2.73,2.73,0,0,0,2.95,3,4.27,4.27,0,0,0,4.1-2.83,3.42,3.42,0,0,0,.13-1.14Z"/><path class="cls-1" d="M332.67,58.29c0-2.79-.05-4.81-.17-6.63H337l.21,3.89h.12A6.15,6.15,0,0,1,343,51.2a5.76,5.76,0,0,1,1.23.12v4.86a8.75,8.75,0,0,0-1.56-.13A4.58,4.58,0,0,0,338,60a8.56,8.56,0,0,0-.13,1.56V72.23h-5.19Z"/><path class="cls-1" d="M353.24,45.92a2.92,2.92,0,1,1-2.92-2.83A2.77,2.77,0,0,1,353.24,45.92ZM347.7,72.23V51.66h5.2V72.23Z"/><path class="cls-1" d="M374.48,67.29a28,28,0,0,0,.34,4.94h-4.69L369.75,70h-.12a7.52,7.52,0,0,1-6.09,2.75,6.11,6.11,0,0,1-6.46-6.13c0-5.15,4.61-7.81,12.21-7.77v-.34c0-1.35-.55-3.59-4.18-3.59a10.9,10.9,0,0,0-5.54,1.52l-1-3.38A14.8,14.8,0,0,1,366,51.2c6.59,0,8.49,4.18,8.49,8.7Zm-5.06-5.11c-3.68,0-7.19.72-7.19,3.84a2.73,2.73,0,0,0,3,3,4.27,4.27,0,0,0,4.1-2.83,3.42,3.42,0,0,0,.13-1.14Z"/><path class="cls-1" d="M407.69,42.24v24.2c0,2.12.08,4.4.16,5.79h-4.6L403,69h-.09a7.38,7.38,0,0,1-6.67,3.72c-4.94,0-8.83-4.19-8.83-10.52,0-6.89,4.27-11,9.21-11,2.83,0,4.86,1.14,5.79,2.66h.08V42.24Zm-5.2,18a7.27,7.27,0,0,0-.13-1.39,4.55,4.55,0,0,0-4.47-3.63c-3.34,0-5.2,3-5.2,6.76s1.86,6.54,5.15,6.54a4.58,4.58,0,0,0,4.48-3.67,5.67,5.67,0,0,0,.17-1.52Z"/><path class="cls-1" d="M416.94,63.4c.12,3.72,3,5.33,6.33,5.33a16.74,16.74,0,0,0,5.7-.93l.76,3.54a18.45,18.45,0,0,1-7.18,1.31c-6.67,0-10.6-4.09-10.6-10.39,0-5.7,3.47-11.06,10.06-11.06s8.87,5.49,8.87,10a13.12,13.12,0,0,1-.17,2.19Zm9-3.63c0-1.9-.81-5-4.27-5-3.21,0-4.56,2.92-4.77,5Z"/><path class="cls-1" d="M443.8,42.24H449v30h-5.2Z"/><path class="cls-1" d="M470.62,67.29a28,28,0,0,0,.34,4.94h-4.69L465.89,70h-.12a7.52,7.52,0,0,1-6.09,2.75,6.11,6.11,0,0,1-6.46-6.13c0-5.15,4.6-7.81,12.21-7.77v-.34c0-1.35-.55-3.59-4.18-3.59a10.9,10.9,0,0,0-5.54,1.52l-1-3.38a14.8,14.8,0,0,1,7.43-1.81c6.59,0,8.49,4.18,8.49,8.7Zm-5.07-5.11c-3.67,0-7.18.72-7.18,3.84a2.73,2.73,0,0,0,3,3,4.27,4.27,0,0,0,4.1-2.83,3.69,3.69,0,0,0,.12-1.14Z"/><path class="cls-1" d="M485,72.23V43.76h6L498.33,56a84.37,84.37,0,0,1,4.86,9.55h.08a116.54,116.54,0,0,1-.46-11.83V43.76h4.82V72.23h-5.41l-7.44-12.54a99,99,0,0,1-5.06-9.8l-.17,0c.21,3.67.29,7.43.29,12.12V72.23Z"/><path class="cls-1" d="M529.38,67.29a27.11,27.11,0,0,0,.34,4.94H525L524.65,70h-.13a7.5,7.5,0,0,1-6.08,2.75A6.11,6.11,0,0,1,512,66.57c0-5.15,4.6-7.81,12.2-7.77v-.34c0-1.35-.55-3.59-4.18-3.59a10.83,10.83,0,0,0-5.53,1.52l-1-3.38a14.8,14.8,0,0,1,7.43-1.81c6.59,0,8.49,4.18,8.49,8.7Zm-5.07-5.11c-3.67,0-7.18.72-7.18,3.84a2.73,2.73,0,0,0,3,3,4.25,4.25,0,0,0,4.09-2.83,3.42,3.42,0,0,0,.13-1.14Z"/><path class="cls-1" d="M550,71.6a15.19,15.19,0,0,1-5.83,1.05c-6.42,0-10.6-4.14-10.6-10.51,0-6.17,4.23-10.94,11.45-10.94a14.07,14.07,0,0,1,5,.92l-.93,3.93a8.62,8.62,0,0,0-3.93-.8c-4,0-6.34,2.92-6.3,6.67,0,4.23,2.75,6.64,6.3,6.64a10.14,10.14,0,0,0,4.09-.81Z"/><path class="cls-1" d="M559.37,45.92a2.92,2.92,0,1,1-2.91-2.83A2.77,2.77,0,0,1,559.37,45.92Zm-5.53,26.31V51.66H559V72.23Z"/><path class="cls-1" d="M584.21,61.76c0,7.56-5.32,10.94-10.56,10.94-5.79,0-10.31-4-10.31-10.61S567.78,51.2,574,51.2,584.21,55.5,584.21,61.76Zm-15.5.21c0,4,2,7,5.11,7,2.95,0,5-2.88,5-7.06,0-3.21-1.43-6.92-5-6.92S568.71,58.55,568.71,62Zm11.23-19.22L574.79,49H571.2l3.67-6.25Z"/><path class="cls-1" d="M588.47,57.79c0-2.37-.08-4.36-.16-6.13h4.52l.25,3.08h.13a7.53,7.53,0,0,1,6.58-3.54c3.59,0,7.31,2.32,7.31,8.82V72.23h-5.19V60.62c0-3-1.1-5.2-3.93-5.2a4.37,4.37,0,0,0-4.06,3,4.81,4.81,0,0,0-.25,1.65V72.23h-5.2Z"/><path class="cls-1" d="M142,86.43a46.11,46.11,0,0,1,7.82-.64c5.28,0,9,1.27,11.53,3.55s4,5.62,4,10.22-1.47,8.45-4.09,11.07-7.1,4.1-12.63,4.1a59.14,59.14,0,0,1-6.68-.34Zm3.68,25.17a29.83,29.83,0,0,0,3.71.17c7.9,0,12.13-4.39,12.13-12.08,0-6.72-3.76-11-11.53-11a21,21,0,0,0-4.31.38Z"/><path class="cls-1" d="M170,100.41c0-2.41,0-4.48-.17-6.38h3.25l.17,4h.13a6.18,6.18,0,0,1,5.7-4.47,7.81,7.81,0,0,1,1,.08V97.2a5.4,5.4,0,0,0-1.26-.09c-2.62,0-4.48,1.94-5,4.73a11.75,11.75,0,0,0-.12,1.73v10.9H170Z"/><path class="cls-1" d="M180.69,112.28a2.52,2.52,0,0,1,2.53-2.67,2.47,2.47,0,0,1,2.49,2.67,2.51,2.51,0,1,1-5,0Z"/><path class="cls-1" d="M205.18,86h3.72v19c0,7.56-3.72,9.89-8.62,9.89a11.44,11.44,0,0,1-3.92-.68l.5-3a8.75,8.75,0,0,0,3.13.55c3.29,0,5.19-1.48,5.19-7Z"/><path class="cls-1" d="M232,108.85c0,2.16,0,4,.17,5.62h-3.3l-.21-3.33h-.09a7.63,7.63,0,0,1-6.75,3.8c-3.21,0-7.06-1.82-7.06-9V94h3.72v11.28c0,3.88,1.22,6.54,4.56,6.54a5.34,5.34,0,0,0,4.9-3.42,5.08,5.08,0,0,0,.34-1.9V94H232Z"/><path class="cls-1" d="M252.54,109.57a34.45,34.45,0,0,0,.29,4.9h-3.34l-.29-2.57h-.13a7.63,7.63,0,0,1-6.25,3c-4.14,0-6.25-2.92-6.25-5.87,0-4.95,4.39-7.65,12.29-7.61V101c0-1.65-.46-4.73-4.65-4.69a9.87,9.87,0,0,0-5.36,1.52L238,95.38a13.16,13.16,0,0,1,6.75-1.77c6.25,0,7.78,4.26,7.78,8.32ZM249,104c-4.06-.09-8.66.63-8.66,4.6a3.25,3.25,0,0,0,3.46,3.55,5.18,5.18,0,0,0,5-3.42,4.42,4.42,0,0,0,.17-1.18Z"/><path class="cls-1" d="M258.53,99.56c0-2.15,0-3.84-.16-5.53h3.29l.21,3.38H262a7.55,7.55,0,0,1,6.75-3.8c2.83,0,7.23,1.69,7.23,8.7v12.16h-3.72V102.69c0-3.3-1.23-6-4.73-6a5.37,5.37,0,0,0-5,3.8,5.59,5.59,0,0,0-.25,1.73v12.29h-3.72Z"/><path class="cls-1" d="M296.85,86h3.71v19c0,7.56-3.71,9.89-8.61,9.89a11.46,11.46,0,0,1-3.93-.68l.5-3a8.75,8.75,0,0,0,3.13.55c3.3,0,5.2-1.48,5.2-7Z"/><path class="cls-1" d="M325.06,104.08c0,7.56-5.28,10.86-10.18,10.86-5.49,0-9.8-4.06-9.8-10.52,0-6.8,4.52-10.81,10.14-10.81C321.09,93.61,325.06,97.87,325.06,104.08Zm-16.18.21c0,4.48,2.54,7.86,6.17,7.86s6.21-3.34,6.21-7.94c0-3.47-1.73-7.82-6.12-7.82S308.88,100.45,308.88,104.29Z"/><path class="cls-1" d="M329.24,110.71a10.51,10.51,0,0,0,4.95,1.44c2.66,0,3.92-1.31,3.92-3s-1.05-2.71-3.75-3.72c-3.72-1.35-5.45-3.34-5.45-5.79,0-3.29,2.7-6,7-6a9.5,9.5,0,0,1,5,1.26l-.89,2.71a7.88,7.88,0,0,0-4.18-1.23c-2.2,0-3.38,1.27-3.38,2.79,0,1.69,1.18,2.45,3.84,3.51,3.51,1.3,5.37,3.08,5.37,6.12,0,3.63-2.83,6.17-7.61,6.17a11.56,11.56,0,0,1-5.74-1.44Z"/><path class="cls-1" d="M348.55,104.93c.08,5,3.25,7.09,7,7.09a13.33,13.33,0,0,0,5.66-1l.68,2.66a16.69,16.69,0,0,1-6.85,1.31c-6.29,0-10.05-4.18-10.05-10.35s3.63-11,9.59-11c6.72,0,8.45,5.83,8.45,9.58a9.56,9.56,0,0,1-.13,1.74Zm10.9-2.67c0-2.32-1-6-5.16-6-3.8,0-5.4,3.42-5.7,6Zm.84-17.06-5.15,6h-2.62l3.72-6Z"/><path class="cls-1" d="M401.05,99.94c0,9.76-5.95,15-13.22,15-7.56,0-12.8-5.87-12.8-14.49,0-9,5.58-15,13.18-15C396,85.5,401.05,91.45,401.05,99.94Zm-22.13.42c0,6.13,3.29,11.58,9.12,11.58s9.13-5.37,9.13-11.83c0-5.7-3-11.61-9.08-11.61S378.92,94.15,378.92,100.36Z"/><path class="cls-1" d="M410.73,85.24A52.79,52.79,0,0,1,406.8,95.3l-2.37.25a62.65,62.65,0,0,0,2.49-9.89Z"/><path class="cls-1" d="M433.79,113.59a18.21,18.21,0,0,1-7.52,1.35c-8,0-14-5.07-14-14.45,0-8.95,6-14.95,14.87-14.95a15.33,15.33,0,0,1,6.75,1.27l-.93,3a13.09,13.09,0,0,0-5.7-1.18c-6.67,0-11.11,4.27-11.11,11.74,0,7,4,11.45,10.9,11.45a14.75,14.75,0,0,0,6-1.18Z"/><path class="cls-1" d="M456.35,104.08c0,7.56-5.28,10.86-10.18,10.86-5.49,0-9.8-4.06-9.8-10.52,0-6.8,4.52-10.81,10.13-10.81C452.38,93.61,456.35,97.87,456.35,104.08Zm-16.18.21c0,4.48,2.53,7.86,6.17,7.86s6.2-3.34,6.2-7.94c0-3.47-1.73-7.82-6.12-7.82S440.17,100.45,440.17,104.29Z"/><path class="cls-1" d="M461,99.56c0-2.15-.05-3.84-.17-5.53h3.29l.21,3.38h.09a7.57,7.57,0,0,1,6.76-3.8c2.83,0,7.22,1.69,7.22,8.7v12.16h-3.72V102.69c0-3.3-1.22-6-4.73-6a5.35,5.35,0,0,0-5,3.8,5.29,5.29,0,0,0-.26,1.73v12.29H461Z"/><path class="cls-1" d="M484.48,99.56c0-2.15,0-3.84-.17-5.53h3.29l.22,3.38h.08a7.57,7.57,0,0,1,6.76-3.8c2.83,0,7.22,1.69,7.22,8.7v12.16h-3.72V102.69c0-3.3-1.22-6-4.73-6a5.37,5.37,0,0,0-5,3.8,5.31,5.31,0,0,0-.25,1.73v12.29h-3.72Z"/><path class="cls-1" d="M526.42,104.08c0,7.56-5.28,10.86-10.18,10.86-5.49,0-9.8-4.06-9.8-10.52,0-6.8,4.52-10.81,10.14-10.81C522.45,93.61,526.42,97.87,526.42,104.08Zm-16.17.21c0,4.48,2.53,7.86,6.16,7.86s6.21-3.34,6.21-7.94c0-3.47-1.73-7.82-6.12-7.82S510.25,100.45,510.25,104.29Z"/><path class="cls-1" d="M531.11,100.41c0-2.41,0-4.48-.17-6.38h3.26l.17,4h.12a6.18,6.18,0,0,1,5.7-4.47,8.12,8.12,0,0,1,1,.08V97.2a5.45,5.45,0,0,0-1.27-.09c-2.62,0-4.48,1.94-5,4.73a10.49,10.49,0,0,0-.13,1.73v10.9h-3.72Z"/><g id="Torreon"><g id="Sol"><path class="cls-2" d="M55.74,9.45S51.8,5.57,50.45,1.07c-1.83,6.48-.84,9.3-.84,9.3a45,45,0,0,1-8.83-5.81c.4,6.28,2.23,9.12,2.23,9.12a82,82,0,0,1-10.18-2.53,17.79,17.79,0,0,0,5,8,53.75,53.75,0,0,1-10.28.8c2.82,4,5.24,4.69,5.24,4.69v-.17a1,1,0,0,1,1.05-1.05h4.64l.31-.68A18.28,18.28,0,0,1,44.73,16c6.44-4.29,15.54-4.35,21.59.08a17.81,17.81,0,0,1,3.76,3.25,15.29,15.29,0,0,1,2.65,4.16h5a1,1,0,0,1,1,1v.27s2-.23,5-4.74a66,66,0,0,1-10.22-1s4.26-3.22,5.37-7.43c-3.75,1.28-10.62,1.88-10.62,1.88s2.42-2.7,2.46-8.89c-2.76,2.72-9.4,5.59-9.4,5.59s.94-3-.57-9.16a23.12,23.12,0,0,1-5,8.4Z"/><path class="cls-3" d="M38.43,23.47h3.79a1,1,0,0,1,1,1v8.11a.45.45,0,0,0,.44.45h2.55a.45.45,0,0,0,.45-.45v-8a1.07,1.07,0,0,1,1.07-1.07H63.84a1,1,0,0,1,1,1v8.1a.45.45,0,0,0,.45.45h2.59a.45.45,0,0,0,.45-.45V24.49a1,1,0,0,1,1-1h3.38a15.31,15.31,0,0,0-2.66-4.16,17.81,17.81,0,0,0-3.76-3.25c-6-4.43-15.15-4.37-21.59-.08a18.41,18.41,0,0,0-5.9,6.8v0Z"/></g><path class="cls-4" d="M59.51,105.77c-.1.1-.2.2-.31.29A7.87,7.87,0,0,0,60,108a8.28,8.28,0,0,1-.81-1.93C59.31,106,59.41,105.87,59.51,105.77Z"/><path class="cls-4" d="M51.71,105.45c-.05,0-.13.11-.18.17s.13-.12.18-.17Z"/><path class="cls-4" d="M59.83,105.47h0a23.35,23.35,0,0,0,2.23,1.81A24.69,24.69,0,0,1,59.83,105.47Z"/><path class="cls-1" d="M44,88.47c2.94-1.92,8.51-.92,11-.3V82.81H34.54v7.4h7.62A13.4,13.4,0,0,1,44,88.47Z"/><path class="cls-1" d="M40.29,52.06H54.92V44.7H37.45A47.91,47.91,0,0,1,40.29,52.06Z"/><rect class="cls-1" x="48.41" y="25.65" width="14.71" height="7.38"/><path class="cls-1" d="M54.92,71.15V63.73H39.73c-.75,2.57-2.13,4.8-3.19,7.42Z"/><path class="cls-1" d="M43.22,73.3H35.43a3.69,3.69,0,0,0-.89,1.49v5.88h8.68Z"/><path class="cls-1" d="M43.22,42.55V35.16H34.54V39.1c.09.86,1.83,3,1.88,3.45Z"/><path class="cls-1" d="M41.49,33l0-7.39h-7s0,2.18,0,7.38Z"/><rect class="cls-1" x="70.07" y="25.65" width="6.94" height="7.38"/><path class="cls-1" d="M43.22,61.6V54.24h-2.6a23.64,23.64,0,0,1-.28,7.36Z"/><path class="cls-1" d="M74.12,44.7H56.63v7.36H71.28A50.06,50.06,0,0,1,74.12,44.7Z"/><path class="cls-1" d="M71.86,63.74H56.63v7.42H75.05C74,68.54,72.61,66.31,71.86,63.74Z"/><path class="cls-1" d="M67.27,88.42a14.75,14.75,0,0,1,1.83,1.79H77v-7.4H56.63v5.3C59.09,87.49,64.33,86.51,67.27,88.42Z"/><path class="cls-1" d="M77,39.1V35.16H68.34v7.39h6.8C75.19,42.14,76.93,40,77,39.1Z"/><path class="cls-1" d="M68.34,54.24V61.6h2.91A23.63,23.63,0,0,1,71,54.23Z"/><path class="cls-1" d="M77,74.77a3.69,3.69,0,0,0-.85-1.47H68.34v7.37H77Z"/><rect class="cls-1" x="45.01" y="35.16" width="21.55" height="7.39"/><rect class="cls-1" x="45.01" y="73.3" width="21.55" height="7.37"/><rect class="cls-1" x="44.99" y="54.22" width="21.55" height="7.37"/><path class="cls-1" d="M32.22,89.77l.61.44v-8.5c-2.13-1.08-4-2.56-7-3.18C25.73,84.64,28.71,87.54,32.22,89.77Z"/><path class="cls-1" d="M99.92,74.48c-7.85,3.64-5,1.84-7.92,5.54l-4.21,4.75c-.87.83-1.8,1.16-2.3,2.44,2.84,0,11.4-2.56,13.49-4.43.63-.55,8.19-9.29,6.61-10.8C105.26,71.67,100.84,74.05,99.92,74.48Z"/><path class="cls-1" d="M21.09,82.65c-5.69-6.53-.93-3.92-9.87-8.08-1-.45-5.54-2.9-5.86-2.59-1.52,1.45,5.91,10.17,6.46,10.68,2.06,1.93,10.51,4.59,13.64,4.55C25,86.07,22.78,84.59,21.09,82.65Z"/><path class="cls-1" d="M111,55.62c-1.24.23-8.76,6.63-10,7.57-2.39,1.8-.24,1.3-2.5,6.2-1.59,3.45-2.58,3.69-3.45,5.49,1.82-.36,4.58-2,6.08-2.87a16.84,16.84,0,0,0,5-3.71C108.35,65.66,111.21,60.4,111,55.62Z"/><path class="cls-1" d="M15.92,74.88c-.78-1.61-3.58-4.08-4.5-8.63-.8-3.9.35-1.43-6.29-6.9C4,58.39,1.06,55.82,0,55.62-.24,60.41,2.61,65.67,4.87,68.3,6.77,70.52,13.39,74.38,15.92,74.88Z"/><path class="cls-1" d="M32.83,91.1c-8.86-3.94-2-2.92-10.58-2.72a39.45,39.45,0,0,1-6.73-.26c-.26.88,4.62,5,9,6.24,3.52,1,7,.43,10.57-.31,1.85-.38,2.42-.43,2.85-1.35C36.57,91.81,34.38,91.8,32.83,91.1Z"/><path class="cls-1" d="M19.31,77.69c1.12,2.2,4.75,7.07,6.82,7.46-1.24-6.75.23-8.35-3.27-15.2-.54-1.06-1.76-3.31-2.86-3.7C17.35,67.81,18,75.06,19.31,77.69Z"/><path class="cls-1" d="M85.32,81.63l-.48,3.53c1.89-.38,5.57-5.13,6.71-7.29,1.38-2.64,2-10.08-.6-11.62-.81.28-.54.06-1.16.9-.22.29-.62,1-.87,1.37a20.94,20.94,0,0,0-3.39,10c-3.75.55-5,1.89-6.79,3.69v8C82.94,88.48,84.39,83.28,85.32,81.63Z"/><path class="cls-1" d="M10.34,61.16c0-1.1-1.42-3.55-1.39-6.59,0-4.53,1.11-2.76-1.07-6.66C6.37,45.18,2.47,39,.57,38.28c-1,2.4,0,12.16,1,14.84C2.34,55.3,7.59,61.34,10.34,61.16Z"/><path class="cls-1" d="M102,54.29c.12,4.46-1.4,5.57-1.39,6.87,2.61.15,7.85-5.73,8.71-7.84,1.08-2.64,2-12.61,1.06-15-1.13.4-1.4,1-2.09,1.95a52.35,52.35,0,0,0-5.12,7.49C101,51.54,101.87,49.74,102,54.29Z"/><path class="cls-1" d="M9.91,47.58a11.65,11.65,0,0,0,1.37-2.3c1-1.68,2.56-1.93,4.2-7.3.58-1.87.59-4.56.88-6.69.38-2.7.63-4.41-.21-6.76-3.2,0-7.1,5.81-8.2,9.28C6.67,37.85,6.5,45.65,9.91,47.58Z"/><path class="cls-1" d="M97.87,43.15c.49.66,1.17,1.12,1.71,1.93s.7,1.74,1.46,2.5c4-2.3,3.9-13.54-1.09-19.41-.92-1.08-3.1-3.65-5.16-3.64-.83,2.35-.57,4.07-.2,6.76C95.21,35.8,95.09,39.44,97.87,43.15Z"/><path class="cls-1" d="M83.06,88.45c-1.62.88-.57.77-4.15,2.31a13.46,13.46,0,0,1-5.08,1.38l-.81.24c-.1,1.6,4.17,1.94,6,2.2a15.42,15.42,0,0,0,7.18-.17c4.53-1.18,9.46-5.41,9.21-6.29C92.94,88.5,84.21,87.82,83.06,88.45Z"/><path class="cls-1" d="M11.82,47.78C10.89,50.7,9,57,11.67,59.47c1.39-.7,1.67-3.88,3.25-5.22l.33-.24c.48-.32,0-.07.56-.29-.51,1.8-3.7,3.31-2.89,10a19.76,19.76,0,0,0,1.44,5.23c.78,1.83,1.39,3.77,2.68,4.22.41-1.52.63-3,1.18-4.65,2.54-7.92,1-9.58-1.13-14.9l-1-.14c1-3,3.93-5,3.12-8.71-.42-1.9,0-2-.09-3.54C16.83,41.34,12.92,44.36,11.82,47.78Z"/><path class="cls-1" d="M92.67,68.27c.57,1.78.8,3.26,1.23,4.85,2.32-.83,5.35-10.31,3.69-15.1-.7-2-2.14-3.2-2.44-4.29.57.22,0-.1.72.4a3.88,3.88,0,0,1,.69.71c1.28,1.74,1.47,4,2.72,4.63,2.66-2.45.85-8.27,0-11.25a9.22,9.22,0,0,0-2.75-4.51c-.73-.61-3.27-2.42-4.64-2.53-.06,1.44.34,1.6,0,3.31A4.3,4.3,0,0,0,92,47.91c.78,2.07,2.29,3.77,2.89,5.53l-1,.12C91.85,58.65,90.2,60.54,92.67,68.27Z"/><path class="cls-1" d="M49,90.72a16.19,16.19,0,0,1,1.68.09,6.25,6.25,0,0,0-.86.78l1.56,2.21c1.29-2,4.29-2,4.42-2h0a7.4,7.4,0,0,1,2.09.34A4.38,4.38,0,0,1,60,93.55l1.42-2,.27,0a5.9,5.9,0,0,0-.8-.71,8.91,8.91,0,0,1,4.83.52l3.21-.11a4.12,4.12,0,0,0-.61-1H56.63V88.93c-.35.08-.65.16-.87.23l-.84-.23v1.28H43.21a4.28,4.28,0,0,0-.62,1c1.14,0,2.22.08,3.19.12A6.38,6.38,0,0,1,49,90.72Z"/><path class="cls-1" d="M61.28,101.76a5.43,5.43,0,0,0-.14-1.22c2-.4,5.15-1.34,6.91-3.5a5.62,5.62,0,0,0,1.32-3.66c-.89.36-1.83.71-2.78,1a3.11,3.11,0,0,1-.54,1,7.58,7.58,0,0,1-3.35,2,5.24,5.24,0,0,0,.54-2c-.59.17-1.16.32-1.72.45l-1,0a5.11,5.11,0,0,1-1.09,1.72,5.49,5.49,0,0,0-7.3,0A5.1,5.1,0,0,1,51,95.94l-1.37,0c-.44-.1-.89-.22-1.35-.35a5.53,5.53,0,0,0,.53,1.87,7.58,7.58,0,0,1-3.35-2,3.31,3.31,0,0,1-.48-.83c-1-.32-1.92-.67-2.83-1A5.59,5.59,0,0,0,43.47,97c1.78,2.17,5,3.12,7,3.51a5.34,5.34,0,0,0-.13,1.21,5.66,5.66,0,0,0,.15,1.31,22.29,22.29,0,0,1-12.69,6.19h0a9.52,9.52,0,0,0,1.94,2.33h0a24.91,24.91,0,0,0,11.84-6c0-.06.13-.12.18-.17h0c0,.06.11.1.16.15a4.68,4.68,0,0,0,.46.43c-.42,1.63-2.19,5.83-9.41,7.64a16.18,16.18,0,0,0,4.35,1.24c5-2.27,6.8-5.74,7.43-7.76a5.49,5.49,0,0,0,1.08.11,5.82,5.82,0,0,0,1-.1c.64,2,2.43,5.48,7.44,7.75a16.21,16.21,0,0,0,4.34-1.24c-5.13-1.29-7.49-3.76-8.59-5.68a7.87,7.87,0,0,1-.81-1.93c.11-.09.21-.19.31-.29s.22-.19.32-.3h0a24.69,24.69,0,0,0,2.23,1.81,24.13,24.13,0,0,0,9.77,4.3,9.35,9.35,0,0,0,1.94-2.32,22.3,22.3,0,0,1-12.66-6.16A5.35,5.35,0,0,0,61.28,101.76Zm-5.5,2.91a2.91,2.91,0,1,1,2.91-2.91A2.91,2.91,0,0,1,55.78,104.67Z"/><path class="cls-1" d="M54.92,88.93c-2.46-.62-7.72-1.61-10.66.31a4.43,4.43,0,0,0-1,1H54.92Z"/><path class="cls-1" d="M68.31,90.21a4.58,4.58,0,0,0-1-1c-2.94-1.92-8.18-.93-10.64-.31v1.28Z"/><path class="cls-1" d="M44.77,92.94a2,2,0,0,1,.9-1.53l.11,0c-1,0-2.05-.09-3.19-.12a4.9,4.9,0,0,0-.4,1.41,6.53,6.53,0,0,0,0,.88c.91.37,1.87.72,2.83,1A3.26,3.26,0,0,1,44.77,92.94Z"/><path class="cls-1" d="M51,94.46a3.42,3.42,0,0,1,.34-.66l-1.56-2.21a6,6,0,0,0-1.22,2,4.5,4.5,0,0,0-.27,2c.46.13.91.25,1.35.35l1.37,0A2.15,2.15,0,0,1,51,94.46Z"/><path class="cls-1" d="M61.68,91.52l-.27,0-1.42,2a3.65,3.65,0,0,1,.54.91,2.24,2.24,0,0,1,0,1.47l1,0c.56-.13,1.13-.28,1.72-.45a4.6,4.6,0,0,0-.28-1.9A6,6,0,0,0,61.68,91.52Z"/><path class="cls-1" d="M65.85,91.41a2,2,0,0,1,.9,1.53,3.27,3.27,0,0,1-.16,1.48c1-.33,1.89-.68,2.78-1a6,6,0,0,0,0-.73,4.74,4.74,0,0,0-.41-1.43l-3.21.11Z"/><path class="cls-5" d="M51.34,93.8a3.42,3.42,0,0,0-.34.66,2.15,2.15,0,0,0,0,1.48l1.87,0Z"/><path class="cls-5" d="M60.53,94.46a3.65,3.65,0,0,0-.54-.91L58.28,96l2.23,0A2.24,2.24,0,0,0,60.53,94.46Z"/><path class="cls-5" d="M71.83,111.59h0a24.13,24.13,0,0,1-9.77-4.3A24.27,24.27,0,0,0,71.83,111.59Z"/><path class="cls-5" d="M60,108c1.1,1.92,3.46,4.39,8.59,5.68h0C63.47,112.38,61.11,109.91,60,108Z"/><path class="cls-5" d="M59.83,105.47c-.1.11-.21.2-.32.3.11-.1.22-.19.32-.3Z"/><path class="cls-5" d="M51.71,105.45c0,.06.11.1.16.15s-.11-.09-.16-.15Z"/><path class="cls-5" d="M39.69,111.58h0a24.86,24.86,0,0,0,11.84-6A24.91,24.91,0,0,1,39.69,111.58Z"/></g></g></g></g></svg>